<svg id="svg" version="1.1" xmlns="http://www.w3.org/2000/svg" xmlns:xlink="http://www.w3.org/1999/xlink" width="400" height="76.92307692307692" viewBox="0, 0, 400,76.92307692307692"><g id="svgg"><path id="path0" d="M38.500 38.417 L 38.500 76.833 76.917 76.833 L 115.333 76.833 115.333 38.417 L 115.333 0.000 76.917 0.000 L 38.500 0.000 38.500 38.417 M81.583 10.316 C 81.945 10.459,82.211 10.776,82.545 11.465 L 83.006 12.417 83.008 20.167 C 83.010 26.118,83.059 27.980,83.220 28.191 C 83.790 28.941,84.806 29.022,92.250 28.910 C 104.470 28.727,104.152 28.600,104.294 33.707 C 104.454 39.451,104.208 39.668,97.361 39.819 L 92.972 39.917 92.486 40.461 L 92.000 41.005 92.000 47.075 L 92.000 53.144 92.469 53.478 C 92.901 53.786,93.251 53.815,97.010 53.864 C 103.218 53.944,103.250 53.973,103.250 59.345 C 103.250 63.007,103.327 62.763,101.884 63.652 L 101.046 64.167 91.368 64.167 C 82.988 64.167,81.657 64.133,81.440 63.917 C 81.303 63.779,81.136 63.667,81.068 63.667 C 80.772 63.667,80.032 62.597,79.939 62.035 C 79.883 61.695,79.836 56.933,79.835 51.452 C 79.833 40.323,79.909 41.034,78.640 40.233 C 77.537 39.537,74.833 39.913,74.833 40.763 C 74.833 40.874,74.721 41.008,74.583 41.060 C 74.370 41.142,74.333 41.780,74.330 45.370 C 74.328 48.177,74.251 50.001,74.101 50.833 C 73.635 53.410,73.457 54.268,73.253 54.917 C 73.138 55.283,72.949 55.894,72.834 56.274 C 72.719 56.654,72.465 57.144,72.271 57.362 C 72.076 57.581,71.775 58.020,71.602 58.338 C 71.228 59.025,68.590 61.667,68.278 61.667 C 68.158 61.667,67.765 61.918,67.405 62.224 C 66.370 63.105,65.826 63.293,62.667 63.859 C 60.962 64.165,52.976 64.178,52.875 63.875 C 52.837 63.760,52.718 63.666,52.611 63.666 C 52.504 63.666,52.079 63.375,51.667 63.019 L 50.917 62.373 50.917 59.228 C 50.917 54.730,51.442 53.850,54.135 53.839 C 56.272 53.829,58.338 53.383,58.833 52.822 C 58.879 52.770,59.335 52.453,59.847 52.116 C 61.682 50.910,62.293 49.044,62.452 44.160 L 62.548 41.237 61.764 40.547 L 60.981 39.858 56.615 39.793 C 51.378 39.716,51.018 39.614,50.048 37.934 C 49.766 37.446,49.761 31.779,50.042 30.713 C 50.513 28.921,50.530 28.918,60.750 28.910 C 70.497 28.903,70.020 28.922,70.523 28.515 L 70.917 28.196 71.000 20.302 L 71.083 12.407 71.509 11.578 C 71.950 10.721,72.429 10.376,73.500 10.146 C 74.416 9.949,81.005 10.087,81.583 10.316 M63.463 13.282 C 64.375 14.214,64.484 14.401,64.581 15.199 C 64.748 16.571,64.610 24.494,64.416 24.631 C 64.324 24.697,64.035 25.065,63.774 25.450 C 62.897 26.743,62.896 26.743,58.569 26.803 L 54.722 26.855 53.781 26.410 C 52.098 25.613,52.000 25.225,52.000 19.338 C 52.000 13.599,51.958 13.752,53.849 12.687 L 54.750 12.181 58.602 12.215 L 62.453 12.250 63.463 13.282 M99.727 12.418 C 99.990 12.555,100.290 12.669,100.394 12.672 C 100.652 12.680,101.173 13.153,101.625 13.791 C 102.204 14.608,102.210 24.084,101.632 25.203 C 101.183 26.071,100.941 26.333,100.587 26.333 C 100.438 26.333,100.086 26.453,99.804 26.599 C 99.033 26.997,91.776 26.886,91.183 26.467 C 90.793 26.190,90.108 25.208,89.899 24.625 C 89.841 24.465,89.728 24.333,89.647 24.333 C 89.460 24.333,89.460 15.623,89.647 14.820 C 89.854 13.928,91.270 12.490,92.097 12.331 C 93.400 12.080,99.206 12.146,99.727 12.418 M148.167 29.928 C 145.552 30.522,144.935 30.772,144.083 31.578 C 143.625 32.012,143.167 32.416,143.067 32.475 C 142.794 32.636,142.000 33.954,142.000 34.247 C 142.000 34.386,141.925 34.500,141.833 34.500 C 141.742 34.500,141.667 34.612,141.667 34.750 C 141.667 34.887,141.594 35.000,141.504 35.000 C 141.038 35.000,140.323 37.364,140.354 38.800 C 140.375 39.740,140.377 39.735,140.579 38.333 C 140.791 36.863,141.155 35.823,141.658 35.250 C 141.819 35.067,142.093 34.561,142.267 34.126 C 142.441 33.691,142.640 33.334,142.708 33.334 C 142.777 33.334,142.833 33.221,142.833 33.083 C 142.833 32.946,142.898 32.833,142.978 32.833 C 143.057 32.833,143.536 32.436,144.041 31.950 C 144.644 31.371,145.212 30.993,145.689 30.855 C 146.089 30.739,146.642 30.580,146.917 30.502 C 147.851 30.236,149.413 30.156,150.500 30.318 C 152.772 30.657,153.563 30.945,154.431 31.748 C 154.912 32.195,156.529 32.199,156.917 31.755 C 158.218 30.266,163.306 30.145,164.493 31.574 C 164.860 32.017,164.646 65.146,164.272 65.764 C 163.705 66.701,163.533 66.743,159.991 66.805 C 156.289 66.870,156.519 66.952,156.103 65.417 L 155.832 64.417 155.893 65.304 C 155.930 65.853,156.081 66.362,156.287 66.637 L 156.620 67.083 159.768 67.075 C 163.446 67.066,164.312 66.867,164.698 65.942 C 165.062 65.067,165.107 31.938,164.744 31.384 C 163.851 30.022,158.583 29.841,157.168 31.124 C 156.940 31.331,156.595 31.500,156.402 31.500 C 156.208 31.500,155.809 31.584,155.515 31.686 C 155.058 31.846,154.927 31.826,154.615 31.551 C 154.010 31.016,153.460 30.736,152.583 30.515 C 152.125 30.399,151.487 30.203,151.167 30.080 C 150.305 29.749,149.202 29.693,148.167 29.928 M201.583 29.835 C 200.942 29.891,200.267 30.014,200.083 30.109 C 199.900 30.203,199.163 30.415,198.447 30.579 C 197.284 30.845,197.051 30.967,196.293 31.706 C 195.515 32.464,195.392 32.526,194.846 32.436 C 194.518 32.381,194.088 32.336,193.889 32.335 C 193.691 32.334,193.258 32.071,192.928 31.750 C 192.598 31.429,192.260 31.167,192.178 31.167 C 192.095 31.167,192.000 31.085,191.967 30.984 C 191.934 30.884,191.609 30.742,191.245 30.668 C 190.881 30.594,189.990 30.377,189.265 30.184 C 187.543 29.726,185.780 29.728,184.068 30.188 C 183.343 30.383,182.502 30.580,182.198 30.624 C 181.822 30.680,181.393 30.964,180.846 31.519 C 179.822 32.560,179.589 32.556,178.165 31.475 C 176.761 30.409,176.494 30.333,174.135 30.333 L 171.946 30.333 171.390 30.958 L 170.834 31.583 170.836 43.250 L 170.839 54.917 171.258 55.314 C 171.766 55.796,172.005 55.671,171.514 55.181 C 171.169 54.835,171.167 54.766,171.167 43.191 L 171.167 31.549 171.575 31.108 C 171.978 30.673,172.017 30.667,174.214 30.667 L 176.445 30.667 177.431 31.363 C 177.973 31.747,178.754 32.225,179.166 32.427 L 179.915 32.794 180.774 31.914 C 182.936 29.700,190.667 29.653,192.618 31.842 C 193.050 32.328,194.315 32.833,195.099 32.833 C 195.319 32.833,195.798 32.508,196.277 32.034 C 197.990 30.337,201.958 29.762,205.873 30.645 C 207.118 30.925,209.333 32.531,209.333 33.153 C 209.333 33.252,209.408 33.333,209.500 33.333 C 209.592 33.333,209.667 33.481,209.667 33.662 C 209.667 33.843,209.843 34.387,210.058 34.870 C 211.033 37.059,211.002 36.684,211.001 46.202 L 211.000 54.988 210.635 55.184 C 210.434 55.291,210.078 55.437,209.843 55.509 C 209.427 55.635,209.430 55.638,209.936 55.652 C 210.227 55.660,210.648 55.515,210.894 55.321 L 211.333 54.976 211.333 46.446 C 211.333 37.421,211.264 36.427,210.542 35.167 C 210.359 34.846,210.072 34.190,209.905 33.708 C 209.738 33.227,209.541 32.833,209.467 32.833 C 209.394 32.833,209.333 32.721,209.333 32.583 C 209.333 32.446,209.255 32.333,209.159 32.333 C 209.063 32.333,208.641 31.995,208.221 31.581 C 207.802 31.168,207.262 30.786,207.021 30.732 C 206.780 30.679,205.983 30.463,205.250 30.253 C 203.568 29.770,203.031 29.709,201.583 29.835 M227.000 29.823 C 226.313 29.881,225.665 29.981,225.561 30.045 C 225.381 30.157,224.922 30.235,222.000 30.656 C 219.439 31.025,219.099 31.334,219.097 33.294 C 219.093 36.255,220.874 38.051,222.927 37.156 C 223.999 36.689,227.626 36.260,228.484 36.498 C 228.814 36.590,229.271 36.668,229.500 36.671 C 230.097 36.680,230.553 37.364,230.418 38.047 C 230.124 39.538,229.884 39.667,227.386 39.667 C 226.799 39.667,225.590 39.778,224.701 39.913 C 223.811 40.049,222.708 40.212,222.250 40.275 C 221.785 40.338,221.561 40.422,221.744 40.464 C 221.924 40.505,222.711 40.456,223.494 40.356 C 224.276 40.256,226.042 40.088,227.417 39.983 C 230.294 39.762,230.186 39.812,230.577 38.520 C 230.932 37.349,230.704 36.838,229.667 36.470 C 228.461 36.044,224.076 36.341,222.640 36.946 C 222.091 37.178,221.983 37.178,221.557 36.947 C 221.296 36.806,220.852 36.597,220.570 36.484 C 220.048 36.273,219.933 36.083,219.406 34.553 C 219.058 33.541,219.280 32.019,219.846 31.534 C 220.614 30.876,228.718 29.854,230.634 30.173 C 231.156 30.260,232.108 30.417,232.750 30.522 C 234.736 30.849,235.828 31.286,236.584 32.055 C 236.960 32.437,237.459 32.904,237.694 33.092 C 237.929 33.280,238.216 33.730,238.332 34.092 C 238.448 34.454,238.645 34.949,238.771 35.192 C 238.897 35.436,239.000 35.775,239.000 35.947 C 239.000 36.119,239.106 36.410,239.235 36.594 C 239.769 37.357,239.849 38.822,239.799 46.971 L 239.750 55.026 238.840 55.346 C 238.227 55.562,237.409 55.677,236.340 55.699 C 234.887 55.729,234.850 55.737,235.917 55.794 C 237.840 55.897,239.099 55.702,239.683 55.211 L 240.193 54.782 240.131 46.266 C 240.063 36.920,240.120 37.477,238.986 35.041 C 238.718 34.468,238.500 33.889,238.500 33.754 C 238.500 33.619,238.224 33.263,237.887 32.963 C 237.550 32.662,237.006 32.146,236.679 31.816 C 235.908 31.038,235.652 30.913,234.160 30.587 C 233.476 30.437,232.692 30.235,232.417 30.137 C 231.245 29.720,229.445 29.616,227.000 29.823 M320.833 29.836 C 320.237 29.890,319.563 30.018,319.333 30.118 C 319.104 30.219,318.467 30.396,317.917 30.512 C 316.596 30.790,316.042 31.078,315.305 31.870 L 314.693 32.527 313.721 32.412 C 312.955 32.321,312.627 32.184,312.167 31.764 C 311.199 30.881,311.103 30.837,309.057 30.316 C 306.807 29.742,304.706 29.719,303.000 30.248 C 302.496 30.404,301.786 30.593,301.422 30.667 C 301.058 30.741,300.733 30.884,300.700 30.984 C 300.666 31.085,300.565 31.167,300.474 31.167 C 300.285 31.167,299.833 31.585,299.833 31.761 C 299.833 32.573,298.478 32.411,297.445 31.476 C 296.457 30.582,295.562 30.333,293.360 30.339 C 289.851 30.347,290.165 29.073,290.172 43.245 C 290.178 54.813,290.181 54.920,290.524 55.333 L 290.870 55.750 294.143 55.758 L 297.417 55.767 294.312 55.713 C 291.291 55.661,291.196 55.649,290.771 55.254 L 290.333 54.849 290.333 43.257 L 290.333 31.664 290.778 31.165 L 291.222 30.667 293.448 30.667 C 295.834 30.667,296.127 30.754,297.334 31.820 C 297.563 32.022,298.062 32.326,298.442 32.495 L 299.135 32.803 299.651 32.298 C 299.934 32.021,300.167 31.734,300.167 31.662 C 300.167 31.391,301.652 30.825,303.258 30.484 C 306.432 29.811,310.408 30.425,311.854 31.812 C 312.448 32.382,313.523 32.826,314.321 32.831 C 314.591 32.832,314.987 32.557,315.515 32.000 C 315.950 31.542,316.403 31.167,316.522 31.167 C 316.641 31.167,317.041 31.061,317.411 30.932 C 320.908 29.708,325.769 30.116,327.323 31.763 C 327.619 32.077,327.929 32.333,328.014 32.333 C 328.098 32.333,328.167 32.438,328.167 32.566 C 328.167 32.693,328.271 32.838,328.398 32.887 C 328.526 32.935,328.759 33.337,328.917 33.779 C 329.075 34.222,329.381 35.033,329.597 35.583 C 330.274 37.308,330.333 38.202,330.333 46.671 C 330.333 54.189,330.312 54.800,330.042 55.032 C 329.494 55.502,329.082 55.567,325.917 55.677 L 322.750 55.786 326.198 55.766 C 329.598 55.745,329.651 55.739,330.073 55.343 L 330.500 54.942 330.499 46.429 C 330.498 36.744,330.474 36.466,329.499 34.667 C 329.325 34.346,329.179 33.951,329.175 33.789 C 329.149 32.856,327.018 30.895,325.667 30.561 C 325.162 30.437,324.375 30.229,323.917 30.098 C 322.788 29.776,322.113 29.719,320.833 29.836 M346.163 29.829 C 345.656 29.895,345.080 30.035,344.882 30.141 C 344.684 30.247,344.336 30.333,344.108 30.333 C 342.823 30.333,341.018 31.004,340.211 31.782 C 339.907 32.074,339.529 32.355,339.371 32.405 C 339.212 32.455,338.895 32.735,338.666 33.027 C 338.437 33.319,337.920 33.921,337.517 34.364 C 337.049 34.879,336.706 35.457,336.569 35.961 C 336.281 37.025,336.083 37.583,335.317 39.500 C 334.758 40.896,335.069 46.768,335.748 47.667 C 335.852 47.804,336.150 48.592,336.409 49.417 C 336.803 50.672,337.019 51.069,337.732 51.847 C 338.200 52.358,338.796 53.014,339.056 53.305 C 339.316 53.596,339.636 53.833,339.767 53.833 C 339.899 53.833,340.304 54.021,340.667 54.250 C 341.030 54.479,341.403 54.667,341.497 54.667 C 341.590 54.667,341.667 54.740,341.667 54.830 C 341.667 55.792,350.483 56.523,354.083 55.859 L 354.917 55.706 354.250 55.687 C 353.883 55.677,352.571 55.744,351.333 55.837 C 347.076 56.156,342.838 55.618,341.809 54.627 C 341.685 54.507,341.086 54.167,340.478 53.871 C 339.773 53.527,339.161 53.075,338.790 52.624 C 338.469 52.235,337.946 51.641,337.627 51.305 C 337.104 50.753,336.500 49.400,336.500 48.781 C 336.500 48.649,336.301 48.101,336.059 47.562 C 335.096 45.427,334.885 40.947,335.677 39.463 C 335.812 39.210,336.112 38.338,336.671 36.572 C 336.760 36.290,336.833 35.923,336.833 35.755 C 336.833 35.588,337.152 35.100,337.542 34.672 C 337.931 34.243,338.438 33.668,338.667 33.393 C 338.896 33.119,339.308 32.755,339.583 32.583 C 339.858 32.412,340.313 32.049,340.594 31.777 C 342.859 29.579,353.083 29.794,355.405 32.089 C 355.687 32.366,356.239 32.801,356.633 33.055 C 357.027 33.308,357.391 33.643,357.441 33.799 C 357.572 34.208,358.066 35.235,358.179 35.333 C 358.231 35.379,358.326 35.529,358.389 35.667 C 358.451 35.804,358.665 36.179,358.862 36.500 C 359.060 36.821,359.312 37.608,359.423 38.250 L 359.625 39.417 359.646 38.595 C 359.671 37.600,359.433 36.853,358.737 35.750 C 358.448 35.292,358.034 34.552,357.817 34.107 C 357.600 33.661,357.234 33.156,357.003 32.983 C 356.772 32.811,356.493 32.594,356.382 32.502 C 356.271 32.409,356.130 32.333,356.068 32.333 C 356.007 32.333,355.720 32.084,355.432 31.778 C 354.838 31.148,353.970 30.788,352.167 30.424 C 351.479 30.286,350.654 30.103,350.333 30.019 C 349.481 29.794,347.224 29.692,346.163 29.829 M246.377 30.961 L 245.837 31.583 245.835 39.730 C 245.833 49.928,245.963 51.076,247.279 52.496 C 247.492 52.725,247.667 52.995,247.667 53.096 C 247.667 53.196,247.985 53.557,248.375 53.897 C 248.765 54.238,249.233 54.650,249.417 54.814 C 250.072 55.399,250.616 55.666,251.510 55.839 C 252.617 56.054,257.029 56.056,257.833 55.842 C 258.320 55.713,256.844 55.742,254.917 55.898 C 254.045 55.969,251.010 55.597,250.667 55.377 C 249.404 54.568,247.667 52.930,247.667 52.548 C 247.667 52.424,247.556 52.280,247.421 52.229 C 247.286 52.177,246.967 51.710,246.713 51.192 L 246.250 50.250 246.195 40.913 L 246.141 31.577 246.562 31.122 L 246.984 30.667 250.127 30.667 L 253.269 30.667 253.801 31.108 L 254.333 31.548 254.345 37.483 C 254.362 45.781,254.507 46.741,255.997 48.375 C 256.899 49.365,258.254 49.521,259.265 48.750 C 259.565 48.521,259.872 48.332,259.947 48.331 C 260.022 48.329,260.368 48.086,260.716 47.789 C 261.740 46.916,261.833 46.132,261.834 38.333 L 261.835 31.750 262.235 31.250 L 262.634 30.750 265.776 30.696 C 269.121 30.639,269.924 30.753,270.500 31.371 C 270.988 31.896,271.028 54.614,270.542 55.032 C 270.023 55.478,269.621 55.556,267.250 55.676 L 264.917 55.793 267.568 55.757 L 270.220 55.722 270.613 55.265 L 271.007 54.807 270.962 43.042 C 270.926 33.811,270.872 31.263,270.708 31.208 C 270.594 31.170,270.500 31.048,270.500 30.937 C 270.500 30.523,268.640 30.303,265.616 30.361 L 262.674 30.417 262.212 30.879 L 261.750 31.340 261.646 38.545 C 261.529 46.725,261.489 47.010,260.361 47.695 C 260.025 47.899,259.712 48.109,259.667 48.162 C 258.511 49.493,255.786 48.676,255.300 46.853 C 254.705 44.617,254.678 44.238,254.673 38.026 C 254.665 29.839,254.967 30.332,249.953 30.336 L 246.917 30.338 246.377 30.961 M346.908 36.140 C 346.821 36.217,346.488 36.384,346.167 36.510 C 344.710 37.085,344.076 38.880,344.984 39.855 C 345.394 40.295,350.455 40.278,351.125 39.835 C 351.764 39.412,351.667 37.891,350.958 37.217 C 349.905 36.215,347.536 35.585,346.908 36.140 M349.599 36.579 C 350.723 37.151,350.983 37.513,351.035 38.580 L 351.083 39.578 350.333 39.693 C 349.390 39.838,345.617 39.868,345.264 39.732 C 345.061 39.655,345.000 39.384,345.000 38.568 C 345.000 37.410,344.920 37.512,346.583 36.546 C 347.069 36.265,349.022 36.286,349.599 36.579 M151.250 36.824 C 150.628 37.079,149.341 39.098,149.332 39.833 C 149.330 39.971,149.207 40.421,149.058 40.833 C 148.436 42.556,148.974 46.783,149.937 47.747 C 150.064 47.873,150.167 48.026,150.167 48.086 C 150.167 48.979,152.950 49.773,153.917 49.157 C 154.192 48.982,154.567 48.770,154.750 48.687 C 155.728 48.242,156.115 47.416,156.385 45.193 C 156.714 42.483,156.308 39.023,155.560 38.154 C 155.435 38.009,155.333 37.835,155.333 37.767 C 155.333 37.414,153.870 36.603,153.398 36.694 C 153.197 36.733,153.421 36.896,154.045 37.165 C 154.570 37.392,155.000 37.672,155.000 37.789 C 155.000 37.905,155.061 38.000,155.136 38.000 C 155.428 38.000,155.818 39.201,156.090 40.933 C 156.696 44.798,155.761 48.667,154.221 48.667 C 154.068 48.667,153.806 48.791,153.639 48.942 C 153.262 49.282,152.462 49.276,151.965 48.928 C 151.760 48.784,151.465 48.667,151.309 48.667 C 150.964 48.667,149.833 47.383,149.833 46.990 C 149.833 46.835,149.729 46.454,149.602 46.145 C 148.324 43.033,149.576 37.703,151.750 37.006 C 152.643 36.720,152.688 36.686,152.167 36.687 C 151.846 36.687,151.433 36.749,151.250 36.824 M182.333 36.969 C 181.655 37.296,181.333 37.570,181.333 37.821 C 181.333 37.920,181.276 38.000,181.205 38.000 C 180.976 38.000,180.372 39.380,179.929 40.917 C 179.497 42.412,179.496 42.434,179.498 48.619 L 179.500 54.821 178.878 55.244 C 178.504 55.498,178.366 55.667,178.532 55.667 C 178.684 55.667,179.032 55.478,179.307 55.247 L 179.806 54.827 179.872 48.372 C 179.943 41.406,180.005 40.854,180.936 38.917 C 181.544 37.653,181.669 37.542,183.094 37.009 C 184.196 36.598,185.939 38.068,186.345 39.750 L 186.466 40.250 186.483 39.718 C 186.499 39.209,185.933 38.000,185.678 38.000 C 185.611 38.000,185.456 37.813,185.333 37.583 C 185.211 37.354,185.020 37.167,184.909 37.167 C 184.798 37.167,184.614 37.054,184.500 36.917 C 184.223 36.583,183.076 36.611,182.333 36.969 M197.914 37.012 C 196.886 37.547,195.833 39.013,195.833 39.911 C 195.833 40.131,195.745 40.523,195.638 40.781 C 195.505 41.100,195.411 43.435,195.346 48.081 L 195.250 54.913 194.500 55.280 C 193.369 55.833,187.562 55.862,187.067 55.316 C 186.768 54.986,186.745 54.543,186.663 47.691 L 186.576 40.417 186.538 47.731 L 186.500 55.045 186.940 55.453 L 187.381 55.861 190.923 55.806 C 194.014 55.757,194.507 55.713,194.788 55.458 C 194.965 55.298,195.189 55.167,195.287 55.167 C 195.631 55.167,195.667 54.584,195.670 48.861 C 195.674 39.528,195.959 38.261,198.300 37.160 C 199.345 36.669,201.476 37.609,201.505 38.573 C 201.508 38.670,201.630 38.900,201.775 39.083 C 202.029 39.403,202.035 39.396,201.923 38.917 C 201.523 37.192,199.456 36.210,197.914 37.012 M301.507 37.007 C 300.490 37.574,299.333 39.389,299.333 40.416 C 299.333 40.556,299.264 40.801,299.179 40.961 C 298.813 41.645,298.667 43.980,298.667 49.143 C 298.667 54.699,298.634 55.167,298.253 55.167 C 298.136 55.167,297.947 55.279,297.833 55.417 C 297.544 55.766,297.778 55.728,298.439 55.320 L 299.000 54.973 299.000 49.205 C 299.000 42.785,299.035 42.440,300.011 39.197 C 300.474 37.658,302.372 36.500,303.487 37.077 C 305.515 38.125,305.667 38.857,305.667 47.607 C 305.667 56.735,305.200 55.885,310.167 55.795 L 313.083 55.742 309.867 55.704 C 306.698 55.667,306.646 55.661,306.242 55.258 L 305.833 54.848 305.833 47.158 C 305.833 38.683,305.891 39.183,304.762 37.833 C 303.772 36.649,302.657 36.366,301.507 37.007 M317.028 37.083 C 314.931 38.282,314.500 40.338,314.500 49.133 L 314.500 54.936 313.792 55.253 C 313.359 55.447,313.188 55.592,313.352 55.626 C 313.500 55.657,313.889 55.524,314.217 55.331 L 314.813 54.979 314.875 48.365 C 314.951 40.330,315.123 39.137,316.375 37.952 C 318.428 36.008,320.825 37.113,321.178 40.167 L 321.284 41.083 321.309 40.140 C 321.374 37.614,319.030 35.939,317.028 37.083 M202.025 47.263 L 202.000 54.942 202.386 55.304 C 202.598 55.504,202.879 55.665,203.011 55.662 C 203.142 55.660,203.044 55.530,202.792 55.374 L 202.333 55.089 202.314 48.420 C 202.303 44.751,202.240 41.262,202.173 40.667 C 202.105 40.065,202.040 43.000,202.025 47.263 M140.113 41.792 C 140.060 42.777,140.077 44.146,140.151 44.833 C 140.263 45.881,140.288 45.592,140.309 43.042 C 140.336 39.622,140.257 39.116,140.113 41.792 M359.664 41.708 C 359.662 43.291,359.450 44.302,358.986 44.957 L 358.721 45.330 351.914 45.373 L 345.107 45.417 344.703 46.228 C 344.226 47.183,344.346 47.579,345.332 48.313 C 345.653 48.553,346.108 48.948,346.343 49.191 C 347.501 50.392,353.537 50.310,355.771 49.063 C 357.036 48.357,357.322 48.509,357.735 50.107 C 358.418 52.748,357.707 54.600,355.750 55.278 C 355.243 55.454,355.032 55.591,355.210 55.629 C 356.924 55.994,358.096 54.207,358.057 51.284 C 358.022 48.566,357.390 47.822,355.833 48.666 C 354.689 49.286,354.396 49.375,352.750 49.599 C 349.504 50.041,347.371 49.805,346.434 48.899 C 346.149 48.624,345.635 48.193,345.292 47.941 C 344.534 47.386,344.462 46.770,345.075 46.108 L 345.484 45.667 352.117 45.661 C 359.259 45.656,359.058 45.681,359.482 44.750 C 359.715 44.241,359.973 40.167,359.773 40.167 C 359.714 40.167,359.666 40.860,359.664 41.708 M220.162 40.782 C 219.935 40.937,219.707 41.127,219.654 41.204 C 219.601 41.280,219.083 41.660,218.503 42.047 C 217.771 42.535,217.325 42.979,217.044 43.500 C 216.822 43.913,216.547 44.325,216.432 44.417 C 215.381 45.261,215.133 50.340,216.087 51.474 C 216.295 51.722,216.640 52.260,216.852 52.670 C 217.065 53.081,217.373 53.562,217.536 53.740 C 217.700 53.917,217.833 54.124,217.833 54.198 C 217.833 54.272,217.929 54.333,218.047 54.333 C 218.164 54.333,218.370 54.488,218.505 54.677 C 218.748 55.018,219.673 55.667,219.915 55.667 C 219.984 55.667,219.947 55.554,219.833 55.417 C 219.719 55.279,219.560 55.167,219.479 55.167 C 219.161 55.167,217.355 53.212,217.094 52.586 C 216.942 52.220,216.677 51.770,216.505 51.586 C 215.393 50.388,215.459 45.867,216.606 44.691 C 216.816 44.476,217.037 44.138,217.097 43.941 C 217.298 43.277,217.994 42.526,218.768 42.140 C 219.191 41.929,219.662 41.597,219.814 41.403 C 219.967 41.209,220.371 40.958,220.712 40.846 C 221.054 40.733,221.333 40.609,221.333 40.570 C 221.333 40.386,220.528 40.531,220.162 40.782 M321.373 48.208 C 321.330 55.598,321.341 55.691,322.292 55.656 C 322.536 55.647,322.528 55.623,322.244 55.508 C 321.508 55.210,321.506 55.191,321.458 48.152 L 321.413 41.417 321.373 48.208 M228.483 44.339 C 225.719 44.662,224.423 46.282,224.987 48.709 C 225.470 50.789,229.076 50.404,230.552 48.115 C 230.718 47.857,230.826 47.560,230.791 47.455 C 230.756 47.350,230.550 47.580,230.333 47.965 C 230.116 48.351,229.848 48.667,229.737 48.667 C 229.626 48.667,229.493 48.777,229.441 48.913 C 229.243 49.430,227.888 49.886,226.894 49.769 C 225.309 49.583,225.011 49.122,225.127 47.036 C 225.193 45.836,227.257 44.500,229.044 44.500 C 230.446 44.500,230.788 44.827,230.876 46.251 L 230.937 47.250 230.968 46.192 C 231.000 45.122,230.401 44.117,229.774 44.189 C 229.669 44.201,229.088 44.268,228.483 44.339 M140.355 47.014 C 140.320 48.511,140.650 49.819,141.319 50.833 C 141.652 51.337,142.128 52.176,142.378 52.697 C 142.628 53.218,142.977 53.690,143.154 53.746 C 143.331 53.802,143.849 54.225,144.304 54.685 C 146.185 56.586,151.929 56.609,153.923 54.723 L 154.859 53.838 155.251 54.304 C 155.469 54.563,155.673 55.061,155.710 55.427 L 155.777 56.083 155.805 55.332 C 155.828 54.734,155.747 54.486,155.410 54.123 C 154.849 53.518,154.786 53.533,153.845 54.488 C 152.007 56.355,146.073 56.400,144.556 54.558 C 144.296 54.242,143.834 53.864,143.530 53.717 C 143.108 53.514,142.855 53.189,142.465 52.350 C 142.184 51.745,141.793 51.025,141.596 50.750 C 140.975 49.881,140.781 49.294,140.576 47.667 C 140.398 46.255,140.375 46.184,140.355 47.014 M278.311 47.951 C 277.852 48.021,276.500 49.072,276.500 49.357 C 276.500 49.448,276.297 49.789,276.048 50.115 C 275.285 51.115,275.216 52.689,275.893 53.662 C 276.181 54.077,276.492 54.559,276.583 54.734 C 277.109 55.734,277.865 56.040,279.864 56.062 C 283.606 56.104,284.648 55.308,284.747 52.333 L 284.795 50.917 284.665 52.083 C 284.429 54.208,284.156 54.780,283.107 55.342 C 281.264 56.330,277.530 56.022,276.944 54.833 C 276.744 54.429,276.443 53.946,276.042 53.387 C 275.760 52.995,275.667 52.634,275.667 51.934 C 275.667 51.206,275.749 50.909,276.042 50.574 C 276.248 50.339,276.580 49.842,276.780 49.471 C 277.991 47.227,284.333 47.812,284.333 50.169 C 284.333 50.340,284.408 50.527,284.500 50.583 C 284.732 50.727,284.708 50.283,284.458 49.810 C 283.562 48.114,281.434 47.470,278.311 47.951 M231.302 53.153 C 231.090 53.319,230.600 53.615,230.213 53.811 C 229.826 54.008,229.296 54.377,229.036 54.632 C 228.775 54.887,228.304 55.222,227.989 55.377 C 227.575 55.581,227.509 55.660,227.750 55.662 C 228.121 55.665,228.824 55.244,229.283 54.744 C 229.448 54.564,229.883 54.270,230.250 54.090 C 230.617 53.911,231.112 53.632,231.351 53.471 C 231.804 53.166,232.500 53.569,232.500 54.136 C 232.500 54.244,232.570 54.333,232.655 54.333 C 232.741 54.333,232.864 54.502,232.929 54.708 C 233.107 55.271,233.655 55.668,234.234 55.654 C 234.738 55.641,234.734 55.635,234.056 55.395 C 233.536 55.210,233.291 54.998,233.075 54.543 C 232.917 54.210,232.648 53.787,232.477 53.604 C 232.306 53.421,232.167 53.218,232.167 53.153 C 232.167 52.876,231.657 52.876,231.302 53.153 M262.167 53.250 C 262.053 53.387,261.856 53.500,261.730 53.500 C 261.603 53.500,261.500 53.575,261.500 53.667 C 261.500 53.758,261.399 53.833,261.275 53.833 C 261.151 53.833,260.730 54.077,260.338 54.375 C 259.947 54.673,259.355 55.084,259.022 55.289 C 258.494 55.613,258.466 55.662,258.799 55.664 C 259.189 55.667,259.356 55.564,260.148 54.833 C 260.396 54.604,261.054 54.174,261.609 53.877 C 262.731 53.277,262.808 53.301,263.333 54.417 C 263.633 55.055,264.167 55.667,264.424 55.667 C 264.533 55.667,264.370 55.399,264.061 55.071 C 263.753 54.744,263.500 54.368,263.500 54.237 C 263.500 53.597,262.496 52.854,262.167 53.250 M173.550 55.791 C 174.449 55.821,175.874 55.821,176.717 55.791 C 177.560 55.761,176.825 55.736,175.083 55.736 C 173.342 55.736,172.652 55.761,173.550 55.791 M204.867 55.791 C 205.664 55.821,207.014 55.821,207.867 55.791 C 208.719 55.761,208.067 55.736,206.417 55.736 C 204.767 55.735,204.069 55.760,204.867 55.791 M220.583 55.839 C 221.240 56.058,226.274 56.060,226.917 55.842 C 227.301 55.711,227.112 55.694,226.096 55.769 C 224.538 55.885,223.427 55.883,221.500 55.761 C 220.426 55.693,220.204 55.712,220.583 55.839 " stroke="none" fill="#cc0a09" fill-rule="evenodd"></path><path id="path1" d="M227.000 30.259 C 222.498 30.717,220.354 31.099,219.846 31.534 C 219.280 32.019,219.058 33.541,219.406 34.553 C 219.933 36.083,220.048 36.273,220.570 36.484 C 220.852 36.597,221.296 36.806,221.557 36.947 C 221.983 37.178,222.091 37.178,222.640 36.946 C 224.076 36.341,228.461 36.044,229.667 36.470 C 230.704 36.838,230.932 37.349,230.577 38.520 C 230.186 39.812,230.294 39.762,227.417 39.984 C 221.962 40.404,220.367 40.703,219.810 41.409 C 219.660 41.600,219.191 41.929,218.768 42.140 C 217.994 42.526,217.298 43.277,217.097 43.941 C 217.037 44.138,216.816 44.476,216.606 44.691 C 215.459 45.867,215.393 50.388,216.505 51.586 C 216.677 51.770,216.942 52.220,217.094 52.586 C 217.339 53.175,219.153 55.167,219.444 55.167 C 219.506 55.167,219.675 55.272,219.820 55.402 C 220.222 55.761,223.740 55.955,225.934 55.740 C 227.803 55.556,228.203 55.412,229.030 54.625 C 229.295 54.373,229.866 53.979,230.298 53.750 C 230.730 53.520,231.248 53.214,231.448 53.070 C 231.788 52.824,231.834 52.831,232.115 53.172 C 232.281 53.373,232.499 53.624,232.599 53.731 C 232.700 53.838,232.912 54.199,233.071 54.535 C 233.604 55.658,236.713 56.095,238.840 55.346 L 239.750 55.026 239.799 46.971 C 239.849 38.822,239.769 37.357,239.235 36.594 C 239.106 36.410,239.000 36.119,239.000 35.947 C 239.000 35.775,238.897 35.436,238.771 35.192 C 238.645 34.949,238.448 34.454,238.332 34.092 C 238.216 33.730,237.929 33.280,237.694 33.092 C 237.459 32.904,236.960 32.437,236.584 32.055 C 235.828 31.286,234.736 30.849,232.750 30.522 C 232.108 30.417,231.138 30.256,230.594 30.165 C 230.050 30.074,229.488 30.010,229.344 30.023 C 229.201 30.036,228.146 30.142,227.000 30.259 M147.833 30.335 C 145.469 30.777,145.046 30.960,143.991 31.993 C 143.519 32.455,143.065 32.833,142.983 32.833 C 142.901 32.833,142.833 32.946,142.833 33.083 C 142.833 33.221,142.777 33.334,142.708 33.334 C 142.640 33.334,142.441 33.691,142.267 34.126 C 142.093 34.561,141.820 35.067,141.660 35.250 C 139.845 37.330,139.799 48.244,141.595 50.750 C 141.792 51.025,142.184 51.745,142.465 52.350 C 142.855 53.189,143.108 53.514,143.530 53.717 C 143.834 53.864,144.296 54.242,144.556 54.558 C 146.073 56.400,152.007 56.355,153.845 54.488 C 154.786 53.533,154.849 53.518,155.410 54.123 L 155.833 54.580 155.833 59.404 C 155.833 64.255,156.002 65.953,156.553 66.640 C 156.813 66.964,163.094 66.851,163.606 66.513 C 164.641 65.827,164.579 66.930,164.629 48.522 C 164.661 36.618,164.622 31.730,164.493 31.574 C 163.306 30.145,158.218 30.266,156.917 31.755 C 156.528 32.200,154.912 32.195,154.429 31.747 C 153.858 31.218,152.786 30.667,152.329 30.667 C 152.136 30.667,151.852 30.600,151.697 30.518 C 151.280 30.296,148.695 30.174,147.833 30.335 M185.083 30.266 C 184.900 30.312,184.048 30.504,183.191 30.692 C 181.698 31.021,181.596 31.073,180.774 31.914 L 179.915 32.794 179.166 32.427 C 178.754 32.225,177.973 31.747,177.431 31.363 L 176.445 30.667 174.214 30.667 C 172.017 30.667,171.978 30.673,171.575 31.108 L 171.167 31.549 171.167 43.182 L 171.167 54.816 171.561 55.241 L 171.955 55.667 175.105 55.667 C 178.203 55.667,178.266 55.660,178.878 55.244 L 179.500 54.821 179.498 48.619 C 179.496 42.434,179.497 42.412,179.929 40.917 C 180.372 39.380,180.976 38.000,181.205 38.000 C 181.276 38.000,181.333 37.920,181.333 37.821 C 181.333 37.047,183.981 36.291,184.500 36.917 C 184.614 37.054,184.798 37.167,184.909 37.167 C 185.020 37.167,185.211 37.354,185.333 37.583 C 185.456 37.813,185.611 38.000,185.678 38.000 C 185.745 38.000,185.975 38.281,186.189 38.625 L 186.577 39.250 186.663 47.108 C 186.745 54.534,186.767 54.985,187.067 55.316 C 187.562 55.862,193.369 55.833,194.500 55.280 L 195.250 54.913 195.346 48.081 C 195.411 43.435,195.505 41.100,195.638 40.781 C 195.745 40.523,195.833 40.129,195.833 39.905 C 195.833 37.845,198.563 36.097,200.335 37.021 C 202.125 37.953,202.192 38.316,202.286 47.524 L 202.364 55.131 202.890 55.413 C 203.668 55.830,209.647 55.730,210.458 55.287 L 211.000 54.991 211.001 46.204 C 211.002 36.684,211.033 37.059,210.058 34.870 C 209.843 34.387,209.667 33.843,209.667 33.662 C 209.667 33.481,209.592 33.333,209.500 33.333 C 209.408 33.333,209.333 33.252,209.333 33.153 C 209.333 32.531,207.118 30.925,205.873 30.645 C 201.958 29.762,197.990 30.337,196.277 32.034 C 195.798 32.508,195.319 32.833,195.099 32.833 C 194.383 32.833,193.016 32.322,192.717 31.944 C 191.830 30.816,187.065 29.769,185.083 30.266 M303.095 30.500 C 301.622 30.829,300.167 31.406,300.167 31.662 C 300.167 31.734,299.934 32.021,299.651 32.298 L 299.135 32.803 298.442 32.495 C 298.062 32.326,297.563 32.022,297.334 31.820 C 296.127 30.754,295.834 30.667,293.448 30.667 L 291.222 30.667 290.778 31.165 L 290.333 31.664 290.333 43.257 L 290.333 54.849 290.774 55.258 C 291.329 55.772,297.424 55.909,297.833 55.417 C 297.947 55.279,298.136 55.167,298.253 55.167 C 298.634 55.167,298.667 54.699,298.667 49.143 C 298.667 43.980,298.813 41.645,299.179 40.961 C 299.264 40.801,299.333 40.556,299.333 40.416 C 299.333 40.275,299.511 39.724,299.727 39.191 C 300.832 36.471,303.111 35.857,304.762 37.833 C 305.891 39.183,305.833 38.683,305.833 47.158 L 305.833 54.848 306.242 55.258 C 306.850 55.865,312.442 55.894,313.708 55.295 L 314.500 54.921 314.500 49.126 C 314.500 40.233,314.964 38.124,317.167 37.000 C 318.532 36.303,320.128 36.895,320.931 38.394 L 321.389 39.250 321.464 47.116 C 321.536 54.705,321.550 54.994,321.870 55.283 C 322.282 55.657,327.709 55.821,328.994 55.498 C 330.437 55.136,330.333 55.820,330.333 46.671 C 330.333 38.202,330.274 37.308,329.597 35.583 C 329.381 35.033,329.075 34.222,328.917 33.779 C 328.759 33.337,328.526 32.935,328.398 32.887 C 328.271 32.838,328.167 32.693,328.167 32.566 C 328.167 32.438,328.098 32.333,328.014 32.333 C 327.929 32.333,327.619 32.077,327.323 31.763 C 325.769 30.116,320.908 29.708,317.411 30.932 C 317.041 31.061,316.641 31.167,316.522 31.167 C 316.403 31.167,315.950 31.542,315.515 32.000 C 314.987 32.557,314.591 32.832,314.321 32.831 C 313.523 32.826,312.448 32.382,311.854 31.812 C 310.414 30.431,306.221 29.803,303.095 30.500 M345.500 30.341 C 342.713 30.720,341.238 31.152,340.594 31.777 C 340.313 32.049,339.858 32.412,339.583 32.583 C 339.308 32.755,338.896 33.119,338.667 33.393 C 338.438 33.668,337.931 34.243,337.542 34.672 C 337.152 35.100,336.833 35.588,336.833 35.755 C 336.833 35.923,336.760 36.290,336.671 36.572 C 336.112 38.338,335.812 39.210,335.677 39.463 C 334.885 40.947,335.096 45.427,336.059 47.562 C 336.301 48.101,336.500 48.649,336.500 48.781 C 336.500 49.400,337.104 50.753,337.627 51.305 C 337.946 51.641,338.469 52.235,338.790 52.624 C 339.161 53.075,339.773 53.527,340.478 53.871 C 341.086 54.167,341.685 54.507,341.809 54.627 C 343.524 56.278,354.709 56.393,356.847 54.782 C 357.839 54.034,358.225 52.001,357.735 50.107 C 357.322 48.509,357.036 48.357,355.771 49.063 C 353.537 50.310,347.501 50.392,346.343 49.191 C 346.108 48.948,345.653 48.553,345.332 48.313 C 344.346 47.579,344.226 47.183,344.703 46.228 L 345.107 45.417 351.914 45.373 L 358.721 45.330 358.986 44.957 C 359.950 43.598,359.869 38.147,358.860 36.500 C 358.664 36.179,358.451 35.804,358.389 35.667 C 358.326 35.529,358.231 35.379,358.179 35.333 C 358.066 35.235,357.572 34.208,357.441 33.799 C 357.391 33.643,357.027 33.308,356.633 33.055 C 356.239 32.801,355.687 32.366,355.405 32.089 C 353.961 30.662,349.248 29.830,345.500 30.341 M246.529 31.134 L 246.141 31.581 246.195 40.916 L 246.250 50.250 246.713 51.192 C 246.967 51.710,247.286 52.177,247.421 52.229 C 247.556 52.280,247.667 52.424,247.667 52.548 C 247.667 52.919,248.469 53.690,250.567 55.335 C 251.304 55.913,257.344 56.011,258.721 55.468 C 258.980 55.366,259.543 54.991,259.971 54.636 C 260.399 54.280,260.919 53.946,261.125 53.893 C 261.331 53.840,261.500 53.730,261.500 53.649 C 261.500 53.567,261.588 53.500,261.695 53.500 C 261.803 53.500,262.032 53.372,262.204 53.216 C 262.546 52.907,263.500 53.653,263.500 54.229 C 263.500 54.365,263.753 54.744,264.061 55.071 L 264.623 55.667 266.770 55.666 C 268.984 55.665,270.036 55.491,270.542 55.041 C 271.028 54.608,270.988 31.895,270.500 31.371 C 269.924 30.753,269.121 30.639,265.776 30.696 L 262.634 30.750 262.235 31.250 L 261.835 31.750 261.834 38.333 C 261.833 46.132,261.740 46.916,260.716 47.789 C 260.368 48.086,260.022 48.329,259.947 48.331 C 259.872 48.332,259.565 48.521,259.265 48.750 C 258.254 49.521,256.899 49.365,255.997 48.375 C 254.507 46.741,254.362 45.781,254.345 37.483 L 254.333 31.548 253.801 31.108 L 253.269 30.667 250.093 30.677 L 246.917 30.687 246.529 31.134 M349.677 36.351 C 351.418 37.177,352.221 39.109,351.125 39.835 C 350.455 40.278,345.394 40.295,344.984 39.855 C 344.076 38.880,344.710 37.085,346.167 36.510 C 346.488 36.384,346.821 36.217,346.908 36.140 C 347.223 35.862,348.918 35.991,349.677 36.351 M154.331 36.972 C 154.958 37.272,155.333 37.570,155.333 37.767 C 155.333 37.835,155.435 38.009,155.560 38.154 C 156.308 39.023,156.714 42.483,156.385 45.193 C 156.115 47.416,155.728 48.242,154.750 48.687 C 154.567 48.770,154.192 48.982,153.917 49.157 C 152.950 49.773,150.167 48.979,150.167 48.086 C 150.167 48.026,150.064 47.873,149.937 47.747 C 148.974 46.783,148.436 42.556,149.058 40.833 C 149.207 40.421,149.330 39.977,149.331 39.847 C 149.335 39.435,150.315 37.575,150.736 37.180 C 151.427 36.531,153.197 36.429,154.331 36.972 M230.504 44.670 C 231.481 45.583,231.090 47.865,229.763 49.000 C 227.938 50.560,225.380 50.404,224.987 48.709 C 224.561 46.876,225.110 45.627,226.698 44.817 C 227.277 44.522,227.797 44.416,229.774 44.189 C 229.879 44.177,230.207 44.393,230.504 44.670 M278.750 48.178 C 277.555 48.410,277.205 48.636,276.809 49.429 C 276.616 49.815,276.280 50.324,276.063 50.558 C 275.510 51.154,275.499 52.632,276.042 53.387 C 276.443 53.946,276.744 54.429,276.944 54.833 C 277.716 56.397,282.721 56.263,283.977 54.645 C 284.516 53.950,284.908 51.008,284.514 50.614 C 284.415 50.515,284.333 50.304,284.333 50.145 C 284.333 48.774,281.258 47.691,278.750 48.178 " stroke="none" fill="#0e0e0e" fill-rule="evenodd"></path><path id="path2" d="M0.000 38.417 L 0.000 76.833 19.250 76.833 L 38.500 76.833 38.500 38.417 L 38.500 0.000 19.250 0.000 L 0.000 0.000 0.000 38.417 M115.333 38.417 L 115.333 76.833 257.667 76.833 L 400.000 76.833 400.000 38.417 L 400.000 0.000 257.667 0.000 L 115.333 0.000 115.333 38.417 M73.500 10.146 C 72.429 10.376,71.950 10.721,71.509 11.578 L 71.083 12.407 71.000 20.302 L 70.917 28.196 70.523 28.515 C 70.020 28.922,70.497 28.903,60.750 28.910 C 50.530 28.918,50.513 28.921,50.042 30.713 C 49.761 31.779,49.766 37.446,50.048 37.934 C 51.018 39.614,51.378 39.716,56.615 39.793 L 60.981 39.858 61.764 40.547 L 62.548 41.237 62.452 44.160 C 62.293 49.044,61.682 50.910,59.847 52.116 C 59.335 52.453,58.879 52.770,58.833 52.822 C 58.338 53.383,56.272 53.829,54.135 53.839 C 51.442 53.850,50.917 54.730,50.917 59.228 L 50.917 62.373 51.667 63.019 C 52.079 63.375,52.504 63.666,52.611 63.666 C 52.718 63.666,52.837 63.760,52.875 63.875 C 52.976 64.178,60.962 64.165,62.667 63.859 C 65.826 63.293,66.370 63.105,67.405 62.224 C 67.765 61.918,68.158 61.667,68.278 61.667 C 68.590 61.667,71.228 59.025,71.602 58.338 C 71.775 58.020,72.076 57.581,72.271 57.362 C 72.465 57.144,72.719 56.654,72.834 56.274 C 72.949 55.894,73.138 55.283,73.253 54.917 C 73.457 54.268,73.635 53.410,74.101 50.833 C 74.251 50.001,74.328 48.177,74.330 45.370 C 74.333 41.780,74.370 41.142,74.583 41.060 C 74.721 41.008,74.833 40.874,74.833 40.763 C 74.833 39.913,77.537 39.537,78.640 40.233 C 79.909 41.034,79.833 40.323,79.835 51.452 C 79.836 56.933,79.883 61.695,79.939 62.035 C 80.032 62.597,80.772 63.667,81.068 63.667 C 81.136 63.667,81.303 63.779,81.440 63.917 C 81.657 64.133,82.988 64.167,91.368 64.167 L 101.046 64.167 101.884 63.652 C 103.327 62.763,103.250 63.007,103.250 59.345 C 103.250 53.973,103.218 53.944,97.010 53.864 C 93.251 53.815,92.901 53.786,92.469 53.478 L 92.000 53.144 92.000 47.075 L 92.000 41.005 92.486 40.461 L 92.972 39.917 97.361 39.819 C 104.208 39.668,104.454 39.451,104.294 33.707 C 104.152 28.600,104.470 28.727,92.250 28.910 C 84.806 29.022,83.790 28.941,83.220 28.191 C 83.059 27.980,83.010 26.118,83.008 20.167 L 83.006 12.417 82.545 11.465 C 82.211 10.776,81.945 10.459,81.583 10.316 C 81.005 10.087,74.416 9.949,73.500 10.146 M53.849 12.687 C 51.958 13.752,52.000 13.599,52.000 19.338 C 52.000 25.225,52.098 25.613,53.781 26.410 L 54.722 26.855 58.569 26.803 C 62.896 26.743,62.897 26.743,63.774 25.450 C 64.035 25.065,64.324 24.697,64.416 24.631 C 64.610 24.494,64.748 16.571,64.581 15.199 C 64.484 14.401,64.375 14.214,63.463 13.282 L 62.453 12.250 58.602 12.215 L 54.750 12.181 53.849 12.687 M92.097 12.331 C 91.270 12.490,89.854 13.928,89.647 14.820 C 89.460 15.623,89.460 24.333,89.647 24.333 C 89.728 24.333,89.841 24.465,89.899 24.625 C 90.108 25.208,90.793 26.190,91.183 26.467 C 91.776 26.886,99.033 26.997,99.804 26.599 C 100.086 26.453,100.438 26.333,100.587 26.333 C 100.941 26.333,101.183 26.071,101.632 25.203 C 102.210 24.084,102.204 14.608,101.625 13.791 C 101.173 13.153,100.652 12.680,100.394 12.672 C 100.290 12.669,99.990 12.555,99.727 12.418 C 99.206 12.146,93.400 12.080,92.097 12.331 M151.167 30.080 C 151.487 30.203,152.125 30.399,152.583 30.515 C 153.460 30.736,154.010 31.016,154.615 31.551 C 154.927 31.826,155.058 31.846,155.515 31.686 C 155.809 31.584,156.208 31.500,156.402 31.500 C 156.595 31.500,156.940 31.331,157.168 31.124 C 158.583 29.841,163.851 30.022,164.744 31.384 C 165.107 31.938,165.062 65.067,164.698 65.942 C 164.312 66.867,163.446 67.066,159.768 67.075 L 156.620 67.083 156.268 66.613 C 155.931 66.162,155.913 65.912,155.833 60.520 L 155.750 54.897 155.304 54.367 L 154.859 53.838 153.923 54.723 C 151.929 56.609,146.185 56.586,144.304 54.685 C 143.849 54.225,143.331 53.802,143.154 53.746 C 142.977 53.690,142.628 53.218,142.378 52.697 C 142.128 52.176,141.651 51.337,141.317 50.833 C 140.582 49.724,140.567 49.656,140.251 46.000 C 139.817 40.976,140.497 35.000,141.503 35.000 C 141.593 35.000,141.667 34.887,141.667 34.750 C 141.667 34.612,141.742 34.500,141.833 34.500 C 141.925 34.500,142.000 34.386,142.000 34.247 C 142.000 33.954,142.794 32.636,143.067 32.475 C 143.167 32.416,143.625 32.012,144.083 31.578 C 145.574 30.166,149.326 29.373,151.167 30.080 M205.250 30.253 C 205.983 30.463,206.780 30.679,207.021 30.732 C 207.262 30.786,207.802 31.168,208.221 31.581 C 208.641 31.995,209.063 32.333,209.159 32.333 C 209.255 32.333,209.333 32.446,209.333 32.583 C 209.333 32.721,209.394 32.833,209.467 32.833 C 209.541 32.833,209.738 33.227,209.905 33.708 C 210.072 34.190,210.375 34.883,210.577 35.250 C 211.283 36.527,211.357 37.692,211.302 46.649 L 211.250 55.047 210.780 55.399 C 209.999 55.982,203.061 55.938,202.430 55.346 L 202.000 54.942 202.000 47.226 C 202.000 39.757,201.989 39.489,201.656 38.851 C 200.826 37.258,199.507 36.593,198.300 37.160 C 195.959 38.261,195.674 39.528,195.670 48.861 C 195.667 54.584,195.631 55.167,195.287 55.167 C 195.189 55.167,194.965 55.298,194.788 55.458 C 194.507 55.713,194.014 55.757,190.923 55.806 L 187.381 55.861 186.948 55.461 L 186.516 55.060 186.466 47.321 C 186.411 38.664,186.475 39.135,185.165 37.812 C 184.341 36.980,183.768 36.758,183.094 37.009 C 181.669 37.542,181.544 37.653,180.936 38.917 C 180.005 40.854,179.943 41.406,179.872 48.372 L 179.806 54.827 179.319 55.236 C 178.362 56.041,172.102 56.117,171.278 55.333 L 170.839 54.917 170.836 43.250 L 170.834 31.583 171.390 30.958 L 171.946 30.333 174.135 30.333 C 176.494 30.333,176.761 30.409,178.165 31.475 C 179.589 32.556,179.822 32.560,180.846 31.519 C 181.393 30.964,181.822 30.680,182.198 30.624 C 182.502 30.580,183.343 30.383,184.068 30.188 C 185.780 29.728,187.543 29.726,189.265 30.184 C 189.990 30.377,190.881 30.594,191.245 30.668 C 191.609 30.742,191.934 30.884,191.967 30.984 C 192.000 31.085,192.095 31.167,192.178 31.167 C 192.260 31.167,192.598 31.429,192.928 31.750 C 193.258 32.071,193.691 32.334,193.889 32.335 C 194.088 32.336,194.518 32.381,194.846 32.436 C 195.392 32.526,195.515 32.464,196.293 31.706 C 197.051 30.967,197.284 30.845,198.447 30.579 C 199.163 30.415,199.900 30.203,200.083 30.109 C 201.029 29.622,203.269 29.684,205.250 30.253 M231.000 29.827 C 231.504 29.900,232.142 30.039,232.417 30.137 C 232.692 30.235,233.476 30.437,234.160 30.587 C 235.652 30.913,235.908 31.038,236.679 31.816 C 237.006 32.146,237.550 32.662,237.887 32.963 C 238.224 33.263,238.500 33.619,238.500 33.754 C 238.500 33.889,238.718 34.468,238.986 35.041 C 240.120 37.476,240.063 36.922,240.131 46.250 L 240.193 54.751 239.772 55.146 C 238.484 56.356,233.347 56.022,232.927 54.701 C 232.863 54.499,232.741 54.333,232.655 54.333 C 232.570 54.333,232.500 54.244,232.500 54.136 C 232.500 53.569,231.804 53.166,231.351 53.471 C 231.112 53.632,230.617 53.911,230.250 54.090 C 229.883 54.270,229.433 54.570,229.250 54.757 C 228.268 55.760,227.105 56.024,223.698 56.021 C 220.668 56.017,219.663 55.792,218.761 54.916 C 218.431 54.596,218.087 54.333,217.997 54.333 C 217.907 54.333,217.833 54.272,217.833 54.198 C 217.833 54.124,217.700 53.917,217.536 53.740 C 217.373 53.562,217.065 53.081,216.852 52.670 C 216.640 52.260,216.295 51.722,216.087 51.474 C 215.133 50.340,215.381 45.261,216.432 44.417 C 216.547 44.325,216.822 43.913,217.044 43.500 C 217.319 42.991,217.770 42.535,218.445 42.083 C 218.994 41.717,219.573 41.285,219.734 41.124 C 220.279 40.577,220.260 40.582,224.617 39.924 C 225.553 39.782,226.799 39.667,227.386 39.667 C 229.884 39.667,230.124 39.538,230.418 38.047 C 230.553 37.364,230.097 36.680,229.500 36.671 C 229.271 36.668,228.814 36.590,228.484 36.498 C 227.626 36.260,223.999 36.689,222.927 37.156 C 220.874 38.051,219.093 36.255,219.097 33.294 C 219.099 31.334,219.439 31.025,222.000 30.656 C 224.922 30.235,225.381 30.157,225.561 30.045 C 226.015 29.764,229.574 29.621,231.000 29.827 M323.917 30.098 C 324.375 30.229,325.162 30.437,325.667 30.561 C 327.018 30.895,329.149 32.856,329.175 33.789 C 329.179 33.951,329.325 34.346,329.499 34.667 C 330.474 36.466,330.498 36.744,330.499 46.429 L 330.500 54.942 330.070 55.346 C 329.431 55.946,322.317 55.983,321.723 55.389 C 321.365 55.032,321.362 54.963,321.302 47.306 C 321.235 38.659,321.221 38.555,319.936 37.595 C 318.624 36.615,317.688 36.709,316.375 37.952 C 315.123 39.137,314.951 40.330,314.875 48.365 L 314.813 54.979 314.198 55.359 C 313.565 55.750,308.241 56.041,306.771 55.765 C 305.671 55.558,305.667 55.530,305.667 47.607 C 305.667 38.857,305.515 38.125,303.487 37.077 C 302.372 36.500,300.474 37.658,300.011 39.197 C 299.035 42.440,299.000 42.785,299.000 49.205 L 299.000 54.973 298.375 55.361 C 297.773 55.736,297.623 55.750,294.310 55.750 L 290.871 55.750 290.524 55.333 C 290.181 54.920,290.178 54.817,290.172 43.245 C 290.165 29.073,289.851 30.347,293.360 30.339 C 295.562 30.333,296.457 30.582,297.445 31.476 C 298.478 32.411,299.833 32.573,299.833 31.761 C 299.833 31.585,300.285 31.167,300.474 31.167 C 300.565 31.167,300.666 31.085,300.700 30.984 C 300.733 30.884,301.058 30.741,301.422 30.667 C 301.786 30.593,302.496 30.404,303.000 30.248 C 304.706 29.719,306.807 29.742,309.057 30.316 C 311.103 30.837,311.199 30.881,312.167 31.764 C 312.627 32.184,312.955 32.321,313.721 32.412 L 314.693 32.527 315.305 31.870 C 316.042 31.078,316.596 30.790,317.917 30.512 C 318.467 30.396,319.104 30.219,319.333 30.118 C 320.309 29.689,322.448 29.680,323.917 30.098 M350.333 30.019 C 350.654 30.103,351.479 30.286,352.167 30.424 C 353.970 30.788,354.838 31.148,355.432 31.778 C 355.720 32.084,356.007 32.333,356.068 32.333 C 356.130 32.333,356.271 32.409,356.382 32.502 C 356.493 32.594,356.772 32.811,357.003 32.983 C 357.234 33.156,357.600 33.661,357.817 34.107 C 358.034 34.552,358.450 35.292,358.742 35.750 C 360.038 37.790,360.222 44.496,359.008 45.453 C 358.815 45.605,357.072 45.657,352.117 45.661 L 345.484 45.667 345.075 46.108 C 344.462 46.770,344.534 47.386,345.292 47.941 C 345.635 48.193,346.149 48.624,346.434 48.899 C 347.371 49.805,349.504 50.041,352.750 49.599 C 354.396 49.375,354.689 49.286,355.833 48.666 C 357.390 47.822,358.022 48.566,358.057 51.284 C 358.112 55.470,357.058 56.040,349.250 56.044 C 344.592 56.047,341.667 55.579,341.667 54.830 C 341.667 54.740,341.590 54.667,341.497 54.667 C 341.403 54.667,341.030 54.479,340.667 54.250 C 340.304 54.021,339.899 53.833,339.767 53.833 C 339.636 53.833,339.316 53.596,339.056 53.305 C 338.796 53.014,338.200 52.358,337.732 51.847 C 337.019 51.069,336.803 50.672,336.409 49.417 C 336.150 48.592,335.852 47.804,335.748 47.667 C 335.069 46.768,334.758 40.896,335.317 39.500 C 336.083 37.583,336.281 37.025,336.569 35.961 C 336.706 35.457,337.049 34.879,337.517 34.364 C 337.920 33.921,338.437 33.319,338.666 33.027 C 338.895 32.735,339.212 32.455,339.371 32.405 C 339.529 32.355,339.907 32.074,340.211 31.782 C 341.018 31.004,342.823 30.333,344.108 30.333 C 344.336 30.333,344.684 30.247,344.882 30.141 C 345.694 29.706,348.874 29.635,350.333 30.019 M253.553 30.602 C 254.670 31.135,254.666 31.107,254.673 38.026 C 254.678 44.238,254.705 44.617,255.300 46.853 C 255.786 48.676,258.511 49.493,259.667 48.162 C 259.712 48.109,260.025 47.899,260.361 47.695 C 261.489 47.010,261.529 46.725,261.646 38.545 L 261.750 31.340 262.212 30.879 L 262.674 30.417 265.616 30.361 C 268.640 30.303,270.500 30.523,270.500 30.937 C 270.500 31.048,270.594 31.170,270.708 31.208 C 270.872 31.263,270.926 33.811,270.962 43.042 L 271.007 54.807 270.601 55.279 L 270.196 55.750 267.283 55.750 C 264.029 55.750,263.933 55.720,263.381 54.509 C 262.828 53.298,262.747 53.269,261.609 53.877 C 261.054 54.174,260.396 54.604,260.148 54.833 C 259.899 55.063,259.596 55.329,259.473 55.425 C 259.051 55.756,256.848 56.027,254.635 56.020 C 251.490 56.010,250.499 55.781,249.417 54.814 C 249.233 54.650,248.765 54.238,248.375 53.897 C 247.985 53.557,247.667 53.196,247.667 53.096 C 247.667 52.995,247.492 52.725,247.279 52.496 C 245.963 51.076,245.833 49.928,245.835 39.730 L 245.837 31.583 246.377 30.961 L 246.917 30.338 249.953 30.336 C 252.406 30.334,253.097 30.385,253.553 30.602 M346.583 36.546 C 344.920 37.512,345.000 37.410,345.000 38.568 C 345.000 39.384,345.061 39.655,345.264 39.732 C 345.617 39.868,349.390 39.838,350.333 39.693 L 351.083 39.578 351.035 38.580 C 350.949 36.819,348.243 35.583,346.583 36.546 M151.750 37.006 C 149.576 37.703,148.324 43.033,149.602 46.145 C 149.729 46.454,149.833 46.835,149.833 46.990 C 149.833 47.383,150.964 48.667,151.309 48.667 C 151.465 48.667,151.760 48.784,151.965 48.928 C 152.462 49.276,153.262 49.282,153.639 48.942 C 153.806 48.791,154.068 48.667,154.221 48.667 C 155.761 48.667,156.696 44.798,156.090 40.933 C 155.818 39.201,155.428 38.000,155.136 38.000 C 155.061 38.000,154.999 37.906,154.999 37.792 C 154.997 37.611,153.153 36.650,152.858 36.676 C 152.798 36.681,152.300 36.830,151.750 37.006 M227.029 44.957 C 226.065 45.439,225.160 46.429,225.127 47.036 C 225.011 49.122,225.309 49.583,226.894 49.769 C 227.888 49.886,229.243 49.430,229.441 48.913 C 229.493 48.777,229.622 48.667,229.727 48.667 C 230.624 48.667,231.209 45.578,230.448 44.862 C 229.865 44.315,228.219 44.361,227.029 44.957 M282.876 48.292 C 284.660 49.227,285.428 52.191,284.449 54.361 C 283.464 56.548,277.681 56.822,276.583 54.734 C 276.492 54.559,276.181 54.077,275.893 53.662 C 275.216 52.689,275.285 51.115,276.048 50.115 C 276.297 49.789,276.500 49.448,276.500 49.357 C 276.500 49.072,277.852 48.021,278.311 47.951 C 280.010 47.689,282.013 47.839,282.876 48.292 " stroke="none" fill="#ffffff" fill-rule="evenodd"></path></g></svg>