<svg id="svg" version="1.1" width="400" height="106.3231850117096" viewBox="0 0 400 106.3231850117096" xmlns="http://www.w3.org/2000/svg" xmlns:xlink="http://www.w3.org/1999/xlink" ><g id="svgg"><path id="path0" d="M133.833 37.090 C 129.352 37.788,125.454 40.770,124.043 44.583 C 123.941 44.858,123.699 45.496,123.505 46.000 C 123.147 46.931,123.075 47.215,122.601 49.583 C 122.298 51.091,122.218 57.658,122.486 58.885 C 122.570 59.269,122.729 60.033,122.839 60.583 C 124.145 67.116,128.208 71.083,134.333 71.806 C 136.669 72.081,139.424 71.822,141.083 71.172 C 143.072 70.392,144.141 69.709,145.466 68.372 C 146.984 66.840,147.299 66.767,147.011 68.015 C 146.908 68.463,146.840 72.223,146.837 77.629 L 146.833 86.509 149.375 86.463 L 151.917 86.417 151.959 62.042 C 151.982 48.635,151.945 37.663,151.876 37.659 C 151.806 37.654,150.887 37.642,149.833 37.631 L 147.917 37.611 147.802 38.264 C 147.738 38.623,147.595 39.479,147.483 40.167 C 147.151 42.214,147.195 42.206,145.537 40.518 C 142.648 37.578,138.503 36.364,133.833 37.090 M176.250 37.012 C 173.410 37.399,171.408 38.386,169.462 40.359 C 168.662 41.170,167.971 41.833,167.927 41.833 C 167.811 41.833,167.558 40.778,167.328 39.333 C 167.044 37.551,167.186 37.651,164.905 37.637 L 162.917 37.625 162.874 54.479 L 162.832 71.333 165.330 71.333 L 167.828 71.333 167.884 61.542 C 167.953 49.521,168.109 47.988,169.533 45.301 C 172.125 40.412,180.924 39.809,183.259 44.360 C 184.339 46.467,184.333 46.382,184.333 59.459 L 184.333 71.342 186.875 71.296 L 189.417 71.250 189.510 60.083 L 189.603 48.917 190.031 47.583 C 191.414 43.269,193.767 41.537,198.457 41.382 C 202.364 41.252,204.285 42.522,205.558 46.078 C 205.679 46.415,205.769 50.681,205.828 58.917 L 205.917 71.250 208.458 71.296 L 211.000 71.342 211.000 58.982 C 211.000 51.892,210.934 46.365,210.845 46.019 C 210.759 45.688,210.601 44.967,210.492 44.417 C 209.790 40.862,207.445 38.373,203.917 37.439 C 198.314 35.955,192.355 37.582,189.480 41.379 C 188.654 42.471,188.378 42.517,187.962 41.632 C 186.433 38.386,181.231 36.334,176.250 37.012 M325.682 37.014 C 322.713 37.398,319.900 38.871,318.322 40.867 C 317.938 41.353,317.540 41.750,317.437 41.750 C 317.233 41.750,316.872 40.545,316.839 39.750 C 316.828 39.475,316.724 38.890,316.608 38.449 L 316.396 37.649 314.407 37.637 L 312.417 37.625 312.374 54.479 L 312.332 71.333 314.833 71.333 L 317.333 71.333 317.336 61.792 C 317.340 49.676,317.419 48.842,318.893 45.420 C 321.177 40.114,330.947 39.822,332.964 45.000 C 333.825 47.208,333.833 47.352,333.833 59.760 L 333.833 71.333 336.316 71.333 C 338.425 71.333,338.813 71.294,338.899 71.070 C 338.954 70.925,339.000 66.004,339.000 60.135 C 339.000 48.727,338.992 48.862,339.854 46.500 C 342.052 40.482,351.649 39.215,354.375 44.583 C 355.321 46.447,355.333 46.637,355.333 59.473 L 355.333 71.342 357.875 71.296 L 360.417 71.250 360.469 60.333 C 360.521 49.192,360.387 45.371,359.898 44.188 C 359.771 43.879,359.667 43.532,359.667 43.416 C 359.667 43.218,359.073 41.904,358.574 41.000 C 355.507 35.435,342.777 35.661,338.916 41.350 C 338.071 42.594,337.898 42.615,337.333 41.542 C 336.525 40.006,334.952 38.684,332.917 37.830 C 330.924 36.995,328.202 36.688,325.682 37.014 M381.500 37.086 C 375.233 38.043,371.093 42.345,369.555 49.500 C 368.888 52.600,369.307 61.041,370.171 61.904 C 370.260 61.993,370.333 62.188,370.333 62.336 C 370.333 64.576,375.034 69.537,378.230 70.671 C 378.791 70.870,379.400 71.094,379.583 71.168 C 382.461 72.339,389.387 72.110,393.750 70.700 C 396.378 69.851,396.193 70.089,396.224 67.515 C 396.254 65.032,396.288 65.080,394.864 65.641 C 393.444 66.202,392.933 66.354,391.167 66.747 C 388.828 67.267,385.163 67.583,384.167 67.350 C 383.754 67.254,383.179 67.173,382.889 67.171 C 381.374 67.159,378.107 65.296,376.957 63.788 C 375.595 62.003,374.398 58.284,374.529 56.250 L 374.583 55.417 386.125 55.374 L 397.667 55.331 397.667 52.831 C 397.667 50.133,397.370 47.671,396.854 46.082 C 394.701 39.455,388.765 35.977,381.500 37.086 M231.583 37.103 C 230.140 37.253,226.785 38.055,225.750 38.497 C 222.522 39.874,222.672 39.646,223.562 41.838 C 224.321 43.708,224.464 43.845,225.236 43.448 C 229.833 41.082,235.675 40.619,238.464 42.398 C 240.234 43.527,241.172 45.978,241.164 49.449 C 241.160 51.135,241.378 51.036,237.306 51.197 C 231.607 51.422,230.035 51.603,227.167 52.367 C 221.889 53.773,218.995 57.198,219.003 62.027 C 219.011 66.914,221.783 70.658,226.000 71.474 C 229.208 72.095,229.963 72.128,232.348 71.753 C 236.067 71.168,237.573 70.399,239.939 67.874 C 241.045 66.694,241.500 66.578,241.500 67.474 C 241.500 67.740,241.612 68.277,241.750 68.667 C 241.887 69.056,242.000 69.535,242.001 69.729 C 242.001 69.924,242.081 70.367,242.177 70.714 L 242.352 71.344 244.218 71.297 L 246.083 71.250 246.083 58.583 C 246.083 45.981,246.027 44.491,245.501 43.250 C 244.677 41.304,244.421 40.891,243.433 39.902 C 241.179 37.648,236.636 36.575,231.583 37.103 M256.403 37.653 C 256.261 37.795,256.345 60.318,256.493 62.083 C 256.937 67.343,259.493 70.436,264.250 71.468 C 270.126 72.744,275.636 71.375,278.602 67.904 C 279.532 66.815,279.607 66.802,279.745 67.708 C 279.804 68.098,279.921 68.792,280.005 69.250 C 280.089 69.708,280.201 70.367,280.254 70.713 L 280.350 71.343 282.467 71.297 L 284.583 71.250 284.626 54.467 L 284.668 37.684 282.292 37.634 C 280.986 37.606,279.823 37.610,279.708 37.643 C 279.545 37.690,279.500 39.833,279.501 47.643 C 279.502 60.131,279.299 61.567,277.132 64.388 C 273.677 68.886,264.631 68.719,262.455 64.117 C 261.517 62.134,261.500 61.866,261.500 49.259 C 261.500 42.883,261.444 37.663,261.375 37.659 C 260.455 37.607,256.454 37.601,256.403 37.653 M140.398 41.738 C 144.964 43.229,146.833 47.017,146.833 54.777 C 146.833 63.601,143.749 67.667,137.055 67.667 C 130.876 67.667,127.673 63.200,127.673 54.583 C 127.673 50.753,127.810 49.847,128.803 47.083 C 130.513 42.323,135.354 40.092,140.398 41.738 M386.905 41.740 C 388.171 42.199,388.936 42.723,389.949 43.824 C 390.556 44.483,390.857 45.013,391.517 46.583 C 392.245 48.314,392.365 50.933,391.727 51.175 C 391.053 51.432,375.077 51.310,374.813 51.047 C 374.604 50.837,374.739 49.628,375.144 48.083 C 376.504 42.897,381.968 39.949,386.905 41.740 M240.910 57.417 C 240.892 63.957,237.316 67.647,230.980 67.663 C 226.628 67.673,224.381 65.605,224.531 61.725 C 224.673 58.074,226.925 56.073,231.750 55.310 C 232.884 55.131,239.236 54.697,240.250 54.729 L 240.917 54.750 240.910 57.417 M296.754 64.111 C 294.219 65.023,293.875 70.031,296.237 71.617 C 297.937 72.757,300.655 72.177,301.581 70.475 C 302.138 69.452,302.245 66.921,301.778 65.833 C 301.058 64.157,298.788 63.379,296.754 64.111 " stroke="none" fill="#000000" fill-rule="evenodd"></path><path id="path1" d="M46.897 15.740 C 46.847 15.872,46.840 16.116,46.883 16.282 C 46.934 16.477,46.968 16.419,46.981 16.119 L 47.000 15.655 50.901 15.702 C 53.046 15.729,54.767 15.694,54.724 15.625 C 54.564 15.367,46.998 15.478,46.897 15.740 M47.039 17.500 C 47.039 17.821,47.073 17.952,47.115 17.792 C 47.157 17.631,47.157 17.369,47.115 17.208 C 47.073 17.048,47.039 17.179,47.039 17.500 M54.545 17.833 C 54.545 18.246,54.578 18.415,54.618 18.208 C 54.657 18.002,54.657 17.665,54.618 17.458 C 54.578 17.252,54.545 17.421,54.545 17.833 M47.217 19.333 C 47.217 19.837,47.248 20.044,47.286 19.792 C 47.324 19.540,47.324 19.127,47.286 18.875 C 47.248 18.623,47.217 18.829,47.217 19.333 M54.385 20.083 C 54.386 20.633,54.417 20.838,54.454 20.539 C 54.491 20.239,54.490 19.789,54.452 19.539 C 54.414 19.288,54.384 19.533,54.385 20.083 M23.907 20.086 C 23.609 20.319,23.620 20.323,24.058 20.135 C 24.511 19.941,24.565 19.968,25.283 20.758 L 26.034 21.583 25.335 20.708 C 24.585 19.770,24.410 19.693,23.907 20.086 M21.292 21.428 C 20.856 21.654,20.500 21.877,20.500 21.923 C 20.500 21.968,20.875 21.816,21.333 21.583 C 21.792 21.351,22.167 21.125,22.167 21.081 C 22.167 20.970,22.182 20.964,21.292 21.428 M47.412 34.250 C 47.412 41.033,47.433 43.784,47.458 40.363 C 47.483 36.941,47.483 31.391,47.458 28.029 C 47.433 24.667,47.412 27.467,47.412 34.250 M82.931 22.728 C 82.983 22.863,82.941 23.149,82.837 23.362 C 82.657 23.732,82.660 23.735,82.907 23.426 C 83.204 23.056,83.241 22.732,83.002 22.585 C 82.909 22.527,82.878 22.590,82.931 22.728 M82.000 24.833 C 81.813 25.200,81.697 25.500,81.743 25.500 C 81.789 25.500,81.980 25.200,82.167 24.833 C 82.354 24.467,82.469 24.167,82.423 24.167 C 82.378 24.167,82.187 24.467,82.000 24.833 M73.583 25.667 C 73.441 25.942,73.362 26.167,73.408 26.167 C 73.454 26.167,73.608 25.942,73.750 25.667 C 73.892 25.392,73.971 25.167,73.925 25.167 C 73.879 25.167,73.726 25.392,73.583 25.667 M29.573 26.221 C 29.830 26.558,30.073 26.833,30.114 26.833 C 30.230 26.833,29.509 25.858,29.295 25.727 C 29.191 25.662,29.316 25.885,29.573 26.221 M81.083 26.500 C 80.941 26.775,80.862 27.000,80.908 27.000 C 80.954 27.000,81.108 26.775,81.250 26.500 C 81.392 26.225,81.471 26.000,81.425 26.000 C 81.379 26.000,81.226 26.225,81.083 26.500 M72.750 27.167 C 72.608 27.442,72.529 27.667,72.575 27.667 C 72.621 27.667,72.774 27.442,72.917 27.167 C 73.059 26.892,73.138 26.667,73.092 26.667 C 73.046 26.667,72.892 26.892,72.750 27.167 M22.667 28.167 C 22.957 28.533,23.232 28.833,23.278 28.833 C 23.324 28.833,23.124 28.533,22.833 28.167 C 22.543 27.800,22.268 27.500,22.222 27.500 C 22.176 27.500,22.376 27.800,22.667 28.167 M80.250 28.000 C 80.108 28.275,80.029 28.500,80.075 28.500 C 80.121 28.500,80.274 28.275,80.417 28.000 C 80.559 27.725,80.638 27.500,80.592 27.500 C 80.546 27.500,80.392 27.725,80.250 28.000 M71.564 29.208 C 70.990 30.182,70.952 30.265,71.245 29.917 C 71.583 29.513,71.875 29.000,71.766 29.000 C 71.722 29.000,71.631 29.094,71.564 29.208 M70.410 31.042 C 70.154 31.431,70.050 31.662,70.180 31.554 C 70.430 31.348,71.068 30.333,70.948 30.333 C 70.909 30.333,70.667 30.652,70.410 31.042 M25.000 31.333 C 25.196 31.608,25.394 31.833,25.439 31.833 C 25.485 31.833,25.362 31.608,25.167 31.333 C 24.971 31.058,24.773 30.833,24.727 30.833 C 24.681 30.833,24.804 31.058,25.000 31.333 M34.368 33.264 C 34.578 33.639,34.885 34.126,35.049 34.348 C 35.213 34.569,35.176 34.444,34.966 34.069 C 34.755 33.695,34.449 33.207,34.284 32.986 C 34.120 32.764,34.157 32.890,34.368 33.264 M67.428 35.208 C 66.994 35.781,66.876 35.987,67.165 35.667 C 67.769 34.997,68.389 34.167,68.286 34.167 C 68.247 34.167,67.861 34.635,67.428 35.208 M133.667 36.925 L 132.917 37.151 133.917 37.034 C 135.201 36.883,137.308 36.884,138.583 37.035 L 139.583 37.154 138.750 36.914 C 137.700 36.611,134.689 36.617,133.667 36.925 M175.667 36.920 L 174.917 37.140 175.917 37.028 C 177.212 36.884,179.503 36.886,180.667 37.032 L 181.583 37.148 180.750 36.911 C 179.706 36.613,176.691 36.619,175.667 36.920 M197.000 36.927 L 196.250 37.155 197.167 37.036 C 198.326 36.885,200.781 36.882,202.083 37.030 L 203.083 37.144 202.250 36.921 C 201.157 36.629,197.969 36.633,197.000 36.927 M232.250 36.851 C 231.700 36.930,231.143 37.015,231.011 37.039 C 230.880 37.063,232.343 37.083,234.261 37.083 C 237.545 37.083,237.676 37.072,236.500 36.885 C 235.059 36.657,233.675 36.646,232.250 36.851 M325.167 36.922 L 324.417 37.145 325.333 37.031 C 326.515 36.884,328.994 36.884,330.167 37.032 L 331.083 37.148 330.250 36.911 C 329.203 36.612,326.187 36.619,325.167 36.922 M346.500 36.922 L 345.750 37.145 346.667 37.031 C 347.850 36.883,350.123 36.885,351.500 37.034 L 352.583 37.151 351.667 36.916 C 350.516 36.621,347.503 36.624,346.500 36.922 M381.250 36.933 L 380.417 37.159 381.417 37.038 C 382.685 36.884,384.933 36.882,386.333 37.034 L 387.417 37.151 386.500 36.916 C 385.348 36.620,382.365 36.630,381.250 36.933 M36.750 37.333 C 36.892 37.608,37.046 37.833,37.092 37.833 C 37.138 37.833,37.059 37.608,36.917 37.333 C 36.774 37.058,36.621 36.833,36.575 36.833 C 36.529 36.833,36.608 37.058,36.750 37.333 M131.083 37.561 C 129.813 38.031,128.885 38.530,128.250 39.086 C 127.780 39.497,127.795 39.494,128.500 39.036 C 129.618 38.310,129.957 38.149,131.417 37.648 C 132.150 37.396,132.600 37.190,132.417 37.191 C 132.233 37.192,131.633 37.358,131.083 37.561 M140.333 37.417 C 141.097 37.711,141.562 37.706,140.917 37.411 C 140.642 37.285,140.267 37.184,140.083 37.187 C 139.867 37.190,139.955 37.271,140.333 37.417 M173.341 37.533 C 171.474 38.250,169.774 39.470,168.726 40.844 C 168.008 41.785,168.026 41.788,167.729 40.630 L 167.503 39.750 167.598 40.563 C 167.775 42.076,167.917 42.149,168.693 41.125 C 169.730 39.757,172.622 37.695,173.555 37.659 C 173.662 37.655,173.975 37.549,174.250 37.423 C 175.036 37.063,174.349 37.146,173.341 37.533 M183.245 37.746 C 184.068 38.059,184.761 38.294,184.787 38.269 C 184.905 38.151,182.448 37.165,182.052 37.172 C 181.886 37.175,182.423 37.434,183.245 37.746 M194.917 37.435 C 194.550 37.574,194.102 37.734,193.922 37.790 C 192.610 38.195,190.411 39.854,189.333 41.251 C 188.486 42.348,188.467 42.351,188.075 41.481 C 187.749 40.759,186.015 38.857,185.374 38.519 C 185.167 38.410,185.588 38.904,186.310 39.618 C 187.032 40.332,187.784 41.235,187.982 41.625 C 188.432 42.515,188.648 42.513,189.294 41.613 C 190.547 39.869,192.237 38.643,194.667 37.717 C 195.446 37.421,195.971 37.179,195.833 37.180 C 195.696 37.180,195.283 37.295,194.917 37.435 M203.917 37.423 C 204.192 37.549,204.567 37.649,204.750 37.646 C 204.966 37.643,204.879 37.562,204.500 37.417 C 203.736 37.123,203.272 37.127,203.917 37.423 M228.750 37.418 C 227.063 37.870,226.741 37.966,226.333 38.137 C 225.655 38.422,226.160 38.357,227.329 38.009 C 227.927 37.831,228.867 37.576,229.417 37.443 C 229.967 37.309,230.229 37.199,230.000 37.197 C 229.771 37.196,229.208 37.295,228.750 37.418 M239.083 37.490 C 239.633 37.654,240.374 37.911,240.729 38.061 C 241.472 38.375,241.554 38.389,241.427 38.184 C 241.314 38.000,238.756 37.162,238.365 37.179 C 238.210 37.186,238.533 37.326,239.083 37.490 M323.333 37.329 C 322.656 37.545,321.333 38.148,321.333 38.240 C 321.333 38.287,321.540 38.241,321.792 38.139 C 322.044 38.036,322.700 37.779,323.250 37.568 C 324.189 37.208,324.248 37.036,323.333 37.329 M331.333 37.225 C 331.333 37.272,331.872 37.480,332.530 37.688 C 334.593 38.339,336.557 39.931,337.386 41.625 C 337.833 42.537,337.984 42.518,338.813 41.442 C 339.557 40.478,340.773 39.388,341.740 38.817 C 342.074 38.620,342.310 38.421,342.265 38.376 C 342.007 38.118,339.430 40.349,338.367 41.750 C 338.010 42.222,337.977 42.232,337.786 41.938 C 336.616 40.137,336.301 39.760,335.302 38.956 C 334.249 38.110,331.333 36.838,331.333 37.225 M344.417 37.411 C 343.772 37.706,344.236 37.711,345.000 37.417 C 345.379 37.271,345.466 37.190,345.250 37.187 C 345.067 37.184,344.692 37.285,344.417 37.411 M353.833 37.561 C 356.913 38.607,358.648 40.364,359.748 43.551 C 359.976 44.210,360.116 44.487,360.060 44.167 C 359.487 40.879,355.648 37.060,353.038 37.180 C 352.880 37.187,353.238 37.359,353.833 37.561 M379.167 37.417 C 378.788 37.562,378.700 37.643,378.917 37.646 C 379.100 37.649,379.475 37.549,379.750 37.423 C 380.395 37.127,379.930 37.123,379.167 37.417 M388.167 37.405 C 388.488 37.535,388.863 37.645,389.000 37.649 C 389.438 37.662,388.828 37.385,388.167 37.271 L 387.583 37.170 388.167 37.405 M147.759 37.704 C 147.617 37.907,147.500 38.337,147.500 38.658 C 147.500 38.980,147.377 39.813,147.228 40.510 L 146.955 41.777 146.269 41.024 C 145.018 39.651,143.255 38.190,143.071 38.374 C 143.032 38.413,143.372 38.685,143.826 38.979 C 144.280 39.274,145.177 40.084,145.819 40.781 C 147.168 42.245,147.146 42.255,147.499 40.000 C 147.607 39.313,147.747 38.487,147.812 38.167 L 147.928 37.583 149.589 37.535 C 150.503 37.508,151.419 37.528,151.626 37.580 L 152.001 37.673 151.959 62.045 L 151.917 86.417 149.376 86.463 L 146.836 86.509 146.791 77.546 L 146.746 68.583 146.748 77.583 L 146.750 86.583 149.083 86.631 C 150.367 86.658,151.585 86.637,151.792 86.586 L 152.167 86.494 152.167 62.113 C 152.167 43.373,152.120 37.687,151.967 37.533 C 151.562 37.128,148.063 37.270,147.759 37.704 M162.778 37.444 C 162.717 37.506,162.685 45.174,162.707 54.486 L 162.748 71.417 162.832 54.500 L 162.917 37.583 164.819 37.536 C 167.005 37.482,167.006 37.482,167.284 38.799 L 167.484 39.750 167.399 38.846 C 167.255 37.314,167.287 37.333,164.939 37.333 C 163.811 37.333,162.839 37.383,162.778 37.444 M256.240 37.550 C 256.044 38.061,256.250 63.250,256.454 63.667 C 256.628 64.024,256.640 63.954,256.537 63.167 C 256.471 62.663,256.417 56.700,256.417 49.917 L 256.417 37.583 258.917 37.583 L 261.417 37.583 261.500 49.611 C 261.546 56.227,261.640 61.695,261.708 61.764 C 261.909 61.965,261.862 38.032,261.661 37.656 C 261.443 37.248,256.393 37.150,256.240 37.550 M279.419 37.542 C 279.380 37.656,279.317 42.400,279.279 48.083 C 279.231 55.155,279.148 58.653,279.016 59.167 C 278.910 59.579,278.743 60.292,278.645 60.750 C 278.155 63.038,276.348 65.564,274.690 66.278 C 274.382 66.411,274.173 66.562,274.224 66.613 C 274.638 67.027,277.408 64.377,278.066 62.939 C 279.318 60.203,279.368 59.670,279.482 48.000 L 279.583 37.583 281.750 37.535 C 282.942 37.509,284.086 37.529,284.293 37.580 L 284.670 37.674 284.627 54.504 C 284.603 63.760,284.640 71.333,284.708 71.333 C 284.992 71.333,284.854 37.543,284.570 37.434 C 284.030 37.228,279.493 37.322,279.419 37.542 M312.278 37.444 C 312.062 37.660,312.170 37.871,312.399 37.681 C 312.913 37.255,316.386 37.523,316.518 38.000 L 316.633 38.417 316.650 37.976 C 316.660 37.716,316.558 37.494,316.403 37.434 C 316.044 37.297,312.417 37.306,312.278 37.444 M73.833 38.000 C 73.638 38.275,73.515 38.500,73.561 38.500 C 73.606 38.500,73.804 38.275,74.000 38.000 C 74.196 37.725,74.319 37.500,74.273 37.500 C 74.227 37.500,74.029 37.725,73.833 38.000 M141.500 37.763 C 141.500 37.835,142.644 38.333,142.807 38.333 C 142.862 38.333,142.760 38.232,142.579 38.109 C 142.246 37.882,141.500 37.643,141.500 37.763 M205.250 37.834 C 205.307 37.925,205.453 38.000,205.574 38.000 C 205.857 38.000,207.414 39.050,208.139 39.730 C 209.285 40.804,210.337 43.176,210.814 45.760 C 210.940 46.444,211.002 50.744,211.005 59.093 C 211.009 67.623,211.063 71.326,211.182 71.122 C 211.450 70.662,211.294 47.044,211.014 45.750 C 210.076 41.404,208.345 38.883,205.575 37.830 C 205.292 37.723,205.182 37.724,205.250 37.834 M343.217 37.851 C 342.778 37.978,342.289 38.333,342.553 38.333 C 342.717 38.333,343.833 37.823,343.833 37.748 C 343.833 37.703,343.815 37.673,343.792 37.682 C 343.769 37.690,343.510 37.766,343.217 37.851 M377.883 37.851 C 377.445 37.978,376.956 38.333,377.220 38.333 C 377.384 38.333,378.500 37.823,378.500 37.748 C 378.500 37.703,378.481 37.673,378.458 37.682 C 378.435 37.690,378.177 37.766,377.883 37.851 M389.425 37.811 C 389.623 37.991,390.667 38.346,390.667 38.233 C 390.667 38.143,389.591 37.667,389.389 37.667 C 389.322 37.667,389.338 37.731,389.425 37.811 M312.247 54.500 C 312.247 63.621,312.267 67.352,312.292 62.792 C 312.316 58.231,312.316 50.769,312.292 46.208 C 312.267 41.648,312.247 45.379,312.247 54.500 M29.500 38.833 C 29.687 39.200,29.878 39.500,29.923 39.500 C 29.969 39.500,29.854 39.200,29.667 38.833 C 29.480 38.467,29.289 38.167,29.243 38.167 C 29.197 38.167,29.313 38.467,29.500 38.833 M225.250 38.494 C 223.849 39.081,223.298 39.353,223.367 39.423 C 223.412 39.467,224.004 39.245,224.682 38.929 C 225.756 38.430,226.180 38.104,225.250 38.494 M241.667 38.388 C 241.667 38.419,242.004 38.686,242.417 38.982 C 242.829 39.278,243.165 39.460,243.163 39.385 C 243.157 39.157,241.667 38.164,241.667 38.388 M320.292 38.783 C 319.948 39.019,319.667 39.280,319.667 39.364 C 319.667 39.491,320.472 38.979,321.075 38.468 C 321.446 38.153,320.872 38.384,320.292 38.783 M376.083 38.802 C 375.717 39.048,375.267 39.389,375.083 39.559 C 374.900 39.729,374.581 39.981,374.375 40.120 C 374.169 40.258,374.000 40.444,374.000 40.533 C 374.000 40.622,374.356 40.381,374.792 39.997 C 375.227 39.614,375.902 39.113,376.292 38.884 C 376.681 38.655,377.000 38.438,377.000 38.401 C 377.000 38.252,376.718 38.375,376.083 38.802 M390.833 38.389 C 390.833 38.419,391.190 38.675,391.625 38.957 C 393.890 40.425,395.634 42.782,396.895 46.083 C 397.035 46.450,397.153 46.650,397.158 46.528 C 397.194 45.613,395.407 42.340,394.059 40.851 C 393.023 39.705,390.833 38.034,390.833 38.389 M64.075 39.208 L 63.417 39.917 64.125 39.258 C 64.784 38.645,64.910 38.500,64.784 38.500 C 64.757 38.500,64.438 38.819,64.075 39.208 M316.776 39.195 C 317.052 41.627,317.335 42.184,317.899 41.400 C 318.090 41.134,318.510 40.609,318.832 40.233 C 319.153 39.857,318.984 39.999,318.456 40.550 C 317.327 41.726,317.372 41.744,317.095 40.012 C 316.863 38.563,316.640 37.992,316.776 39.195 M126.746 40.337 C 126.297 40.793,125.984 41.167,126.051 41.167 C 126.195 41.167,127.687 39.632,127.614 39.558 C 127.586 39.531,127.196 39.881,126.746 40.337 M222.752 39.826 C 222.695 40.006,222.762 40.362,222.901 40.618 C 223.198 41.166,223.251 41.034,222.975 40.429 C 222.828 40.106,222.833 39.952,222.996 39.755 C 223.126 39.599,223.139 39.500,223.032 39.500 C 222.935 39.500,222.809 39.647,222.752 39.826 M36.708 40.186 C 36.140 40.550,35.956 40.794,36.458 40.518 C 36.841 40.308,37.440 39.845,37.333 39.841 C 37.287 39.840,37.006 39.995,36.708 40.186 M244.311 40.829 C 244.575 41.194,244.961 41.909,245.168 42.419 C 245.374 42.928,245.576 43.313,245.615 43.274 C 245.800 43.089,244.248 40.167,243.964 40.167 C 243.891 40.167,244.047 40.465,244.311 40.829 M31.000 41.667 C 31.278 42.217,31.542 42.667,31.588 42.667 C 31.634 42.667,31.444 42.217,31.167 41.667 C 30.889 41.117,30.624 40.667,30.579 40.667 C 30.533 40.667,30.722 41.117,31.000 41.667 M373.158 41.391 C 371.903 42.858,370.846 44.553,370.596 45.500 C 370.535 45.729,370.747 45.417,371.065 44.806 C 371.895 43.215,372.434 42.397,373.205 41.561 C 373.577 41.157,373.852 40.798,373.816 40.762 C 373.780 40.727,373.484 41.010,373.158 41.391 M223.178 41.298 C 223.172 41.417,223.317 41.807,223.500 42.167 C 223.683 42.526,223.833 42.927,223.833 43.058 C 223.833 43.189,223.965 43.451,224.125 43.639 L 224.417 43.982 225.978 43.324 C 226.836 42.963,227.638 42.667,227.759 42.667 C 227.881 42.667,228.032 42.584,228.094 42.482 C 228.172 42.357,228.082 42.333,227.813 42.409 C 227.392 42.528,227.297 42.566,225.772 43.237 C 224.445 43.820,224.388 43.803,223.913 42.708 C 223.262 41.208,223.190 41.069,223.178 41.298 M125.274 42.013 C 125.012 42.384,124.830 42.719,124.871 42.760 C 124.911 42.800,125.186 42.495,125.482 42.083 C 125.778 41.671,125.960 41.335,125.885 41.337 C 125.811 41.339,125.536 41.643,125.274 42.013 M134.333 41.601 C 134.075 41.759,134.043 41.809,134.250 41.732 C 136.374 40.942,141.338 41.793,142.958 43.226 C 143.165 43.409,143.333 43.479,143.333 43.382 C 143.333 43.207,142.814 42.809,142.000 42.359 C 140.261 41.397,135.442 40.920,134.333 41.601 M174.667 41.598 C 174.346 41.730,174.271 41.791,174.500 41.734 C 176.935 41.124,180.260 41.646,181.718 42.866 C 182.159 43.234,182.551 43.505,182.589 43.467 C 182.777 43.278,181.002 42.076,180.026 41.732 C 178.689 41.260,175.673 41.185,174.667 41.598 M196.167 41.598 C 195.846 41.730,195.771 41.791,196.000 41.733 C 199.566 40.835,203.329 42.014,204.617 44.433 C 205.663 46.396,205.667 46.456,205.667 59.510 C 205.667 66.013,205.723 71.333,205.792 71.333 C 205.860 71.333,205.879 65.802,205.833 59.042 L 205.750 46.750 205.341 45.594 C 204.634 43.592,203.387 42.330,201.480 41.686 C 200.201 41.254,197.128 41.203,196.167 41.598 M230.917 41.602 C 230.456 41.763,230.404 41.805,230.750 41.739 C 236.478 40.637,239.893 42.346,240.760 46.750 L 240.990 47.917 240.903 46.871 C 240.688 44.293,239.289 42.483,236.867 41.649 C 235.721 41.255,231.991 41.225,230.917 41.602 M323.417 41.748 C 320.965 42.551,318.452 44.917,318.508 46.369 C 318.513 46.487,318.731 46.144,318.992 45.607 C 321.372 40.721,330.082 39.923,332.472 44.372 C 332.980 45.318,333.168 45.315,332.685 44.368 C 331.354 41.761,327.074 40.551,323.417 41.748 M345.961 41.428 C 345.908 41.480,345.430 41.637,344.898 41.776 C 343.589 42.118,342.893 42.496,341.858 43.426 C 341.122 44.088,340.135 45.500,340.409 45.500 C 340.454 45.500,340.600 45.290,340.733 45.034 C 342.088 42.412,347.035 40.772,350.667 41.741 C 350.926 41.810,350.872 41.754,350.523 41.592 C 349.969 41.337,346.188 41.201,345.961 41.428 M380.804 41.729 C 380.284 41.925,379.796 42.154,379.721 42.236 C 379.640 42.324,379.721 42.334,379.917 42.259 C 381.819 41.529,382.155 41.472,384.121 41.544 C 385.200 41.584,386.271 41.666,386.500 41.727 C 386.840 41.817,386.825 41.792,386.417 41.593 C 385.590 41.189,382.004 41.276,380.804 41.729 M132.564 42.325 C 131.192 43.113,129.593 45.024,128.998 46.589 C 128.696 47.383,128.988 46.988,129.507 45.903 C 130.166 44.521,131.744 42.887,133.000 42.285 C 133.504 42.043,133.804 41.843,133.667 41.841 C 133.529 41.838,133.033 42.056,132.564 42.325 M172.647 42.250 C 168.558 44.380,167.973 46.757,167.885 61.625 L 167.828 71.333 165.372 71.370 L 162.917 71.406 165.167 71.459 C 166.404 71.489,167.579 71.472,167.778 71.423 L 168.140 71.334 168.215 60.459 C 168.295 48.851,168.258 49.383,169.163 46.620 C 169.832 44.572,171.239 43.010,173.105 42.243 C 173.643 42.022,173.933 41.843,173.750 41.845 C 173.567 41.847,173.070 42.029,172.647 42.250 M194.500 42.083 C 193.981 42.380,194.229 42.380,195.000 42.083 C 195.382 41.936,195.468 41.856,195.250 41.852 C 195.067 41.848,194.729 41.952,194.500 42.083 M228.833 42.037 C 228.512 42.132,228.325 42.236,228.417 42.268 C 228.508 42.300,228.958 42.222,229.417 42.095 C 229.905 41.959,230.078 41.863,229.833 41.863 C 229.604 41.863,229.154 41.941,228.833 42.037 M351.632 42.100 C 352.185 42.342,353.748 43.799,354.115 44.417 C 354.224 44.600,354.318 44.663,354.324 44.557 C 354.356 43.917,352.001 41.804,351.304 41.847 C 351.182 41.854,351.330 41.968,351.632 42.100 M387.333 42.083 C 387.879 42.395,388.174 42.391,387.760 42.078 C 387.582 41.943,387.319 41.836,387.176 41.839 C 387.010 41.843,387.066 41.931,387.333 42.083 M192.980 43.032 C 191.049 44.558,189.622 47.483,189.692 49.768 C 189.706 50.249,189.740 50.378,189.774 50.083 C 190.175 46.603,191.322 44.384,193.583 42.713 C 193.858 42.510,194.034 42.342,193.973 42.339 C 193.913 42.336,193.466 42.648,192.980 43.032 M389.199 43.323 C 389.944 44.006,390.427 44.625,390.756 45.318 C 391.019 45.870,391.264 46.292,391.300 46.255 C 391.635 45.921,388.836 42.333,388.240 42.333 C 388.173 42.333,388.605 42.779,389.199 43.323 M124.287 43.708 C 123.918 44.344,123.506 45.376,123.704 45.167 C 123.844 45.020,124.831 43.000,124.763 43.000 C 124.728 43.000,124.513 43.319,124.287 43.708 M378.000 43.381 C 377.119 44.164,375.497 46.553,375.705 46.761 C 375.745 46.801,375.997 46.408,376.264 45.889 C 376.531 45.369,377.152 44.506,377.643 43.972 C 378.582 42.950,378.694 42.764,378.000 43.381 M245.698 43.833 C 245.699 44.435,246.123 46.019,246.144 45.500 C 246.153 45.271,246.056 44.708,245.928 44.250 C 245.793 43.765,245.697 43.591,245.698 43.833 M183.080 44.393 C 183.283 44.795,183.496 45.300,183.552 45.513 C 183.608 45.727,183.699 45.856,183.755 45.801 C 183.883 45.672,183.202 44.070,182.920 43.836 C 182.804 43.740,182.876 43.990,183.080 44.393 M144.360 44.644 C 144.575 44.907,144.845 45.263,144.961 45.436 C 145.077 45.609,145.059 45.525,144.922 45.250 C 144.619 44.641,144.255 44.167,144.092 44.167 C 144.025 44.167,144.146 44.382,144.360 44.644 M354.338 44.849 C 354.336 44.903,354.483 45.384,354.667 45.917 C 354.987 46.849,355.000 47.336,355.012 58.818 C 355.018 65.380,355.088 70.900,355.167 71.083 C 355.495 71.847,355.360 47.827,355.029 46.567 C 354.766 45.568,354.354 44.542,354.338 44.849 M360.302 46.250 C 360.365 47.075,360.417 53.056,360.417 59.542 C 360.417 66.027,360.473 71.333,360.542 71.333 C 360.788 71.333,360.669 47.024,360.417 45.833 L 360.187 44.750 360.302 46.250 M123.266 46.112 C 122.980 46.952,123.007 47.309,123.300 46.547 C 123.566 45.853,123.699 45.333,123.610 45.333 C 123.567 45.333,123.412 45.684,123.266 46.112 M333.080 45.667 C 333.126 45.896,333.253 46.421,333.362 46.833 C 333.502 47.362,333.590 51.108,333.660 59.500 L 333.759 71.417 333.796 60.063 C 333.834 48.521,333.744 46.474,333.159 45.518 C 333.032 45.309,333.014 45.342,333.080 45.667 M340.027 46.090 C 339.921 46.324,339.836 46.606,339.840 46.716 C 339.843 46.826,339.957 46.662,340.092 46.350 C 340.377 45.694,340.317 45.454,340.027 46.090 M145.249 46.083 C 146.535 49.335,146.861 52.884,146.426 58.917 L 146.354 59.917 146.563 58.750 C 147.250 54.904,146.474 47.131,145.281 45.917 C 145.174 45.807,145.163 45.865,145.249 46.083 M13.500 46.129 C 13.500 46.201,13.800 46.230,14.167 46.195 C 14.533 46.160,14.833 46.102,14.833 46.066 C 14.833 46.030,14.533 46.000,14.167 46.000 C 13.800 46.000,13.500 46.058,13.500 46.129 M89.125 46.118 C 89.331 46.157,89.669 46.157,89.875 46.118 C 90.081 46.078,89.912 46.045,89.500 46.045 C 89.087 46.045,88.919 46.078,89.125 46.118 M370.259 46.208 C 370.225 46.323,370.114 46.673,370.014 46.985 C 369.914 47.298,369.860 47.582,369.893 47.616 C 369.957 47.680,370.233 47.026,370.417 46.375 C 370.525 45.991,370.374 45.831,370.259 46.208 M15.458 46.284 C 15.665 46.324,16.002 46.324,16.208 46.284 C 16.415 46.245,16.246 46.212,15.833 46.212 C 15.421 46.212,15.252 46.245,15.458 46.284 M87.458 46.284 C 87.665 46.324,88.002 46.324,88.208 46.284 C 88.415 46.245,88.246 46.212,87.833 46.212 C 87.421 46.212,87.252 46.245,87.458 46.284 M183.942 46.667 C 183.999 46.987,184.094 52.688,184.152 59.333 L 184.259 71.417 184.293 59.583 C 184.322 49.601,184.289 47.620,184.082 46.917 C 183.946 46.451,183.884 46.341,183.942 46.667 M17.628 46.454 C 17.928 46.491,18.378 46.490,18.628 46.452 C 18.878 46.414,18.633 46.384,18.083 46.385 C 17.533 46.386,17.328 46.417,17.628 46.454 M54.476 46.543 C 54.545 46.612,60.710 46.649,68.176 46.626 L 81.750 46.583 68.050 46.500 C 60.515 46.454,54.407 46.473,54.476 46.543 M84.958 46.454 C 85.256 46.491,85.744 46.491,86.042 46.454 C 86.340 46.417,86.096 46.387,85.500 46.387 C 84.904 46.387,84.660 46.417,84.958 46.454 M28.196 46.625 C 31.650 46.650,37.350 46.650,40.863 46.625 C 44.376 46.600,41.550 46.579,34.583 46.579 C 27.617 46.579,24.742 46.600,28.196 46.625 M391.385 46.671 C 391.426 46.811,391.551 47.360,391.662 47.892 C 391.772 48.424,391.894 48.828,391.932 48.790 C 392.043 48.679,391.689 47.007,391.490 46.698 C 391.355 46.490,391.328 46.483,391.385 46.671 M318.206 47.167 C 318.106 47.487,317.983 48.012,317.933 48.333 C 317.878 48.686,317.971 48.522,318.168 47.917 C 318.348 47.367,318.471 46.842,318.442 46.750 C 318.412 46.658,318.306 46.846,318.206 47.167 M397.190 47.000 C 397.191 47.137,397.297 47.813,397.425 48.500 L 397.658 49.750 397.575 48.628 C 397.502 47.655,397.184 46.308,397.190 47.000 M339.607 47.184 C 339.570 47.312,339.440 47.717,339.318 48.083 C 339.072 48.824,338.804 71.334,339.042 71.333 C 339.110 71.333,339.168 66.477,339.169 60.542 C 339.170 50.405,339.190 49.670,339.496 48.425 C 339.675 47.696,339.788 47.066,339.748 47.026 C 339.708 46.985,339.644 47.057,339.607 47.184 M375.375 47.453 C 374.991 48.503,374.817 49.299,374.785 50.167 L 374.750 51.083 383.417 51.083 L 392.083 51.083 392.096 50.041 L 392.109 48.999 392.047 50.001 L 391.984 51.003 383.450 50.960 L 374.917 50.917 374.967 50.083 C 374.995 49.625,375.161 48.766,375.336 48.175 C 375.659 47.083,375.685 46.606,375.375 47.453 M122.685 48.099 C 122.564 48.658,122.502 49.258,122.547 49.432 C 122.599 49.636,122.635 49.565,122.647 49.233 C 122.658 48.949,122.748 48.484,122.847 48.199 C 122.946 47.915,123.000 47.547,122.966 47.383 C 122.932 47.218,122.806 47.540,122.685 48.099 M128.552 47.697 C 128.238 48.613,127.863 50.359,127.771 51.333 L 127.685 52.250 127.910 51.417 C 128.033 50.958,128.142 50.352,128.151 50.069 C 128.159 49.786,128.321 49.086,128.509 48.513 C 128.697 47.939,128.827 47.396,128.797 47.307 C 128.767 47.217,128.657 47.392,128.552 47.697 M246.246 59.583 C 246.246 66.092,246.266 68.778,246.292 65.554 C 246.317 62.329,246.317 57.004,246.292 53.721 C 246.266 50.437,246.246 53.075,246.246 59.583 M369.521 48.840 C 369.407 49.432,369.244 50.188,369.157 50.519 C 368.940 51.352,368.959 57.816,369.182 58.789 C 369.879 61.836,370.265 63.124,370.431 62.958 C 370.480 62.909,370.398 62.580,370.249 62.226 C 369.189 59.707,368.800 53.245,369.504 49.875 C 369.701 48.936,369.831 48.076,369.794 47.966 C 369.757 47.855,369.634 48.248,369.521 48.840 M241.000 49.323 C 241.000 50.995,241.323 50.868,236.676 51.027 C 228.391 51.312,224.242 52.468,221.399 55.283 C 220.523 56.150,219.545 57.600,219.718 57.774 C 219.769 57.824,219.969 57.555,220.162 57.175 C 221.388 54.772,224.986 52.612,228.917 51.919 C 229.283 51.855,229.958 51.735,230.417 51.653 C 230.875 51.572,233.415 51.400,236.061 51.272 C 239.751 51.093,240.907 50.986,241.017 50.811 C 241.168 50.573,241.229 48.000,241.083 48.000 C 241.037 48.000,241.000 48.596,241.000 49.323 M317.534 50.631 C 317.395 51.815,317.344 55.298,317.369 61.881 L 317.405 71.417 317.518 61.083 C 317.581 55.400,317.684 50.477,317.749 50.144 C 317.813 49.811,317.836 49.399,317.800 49.228 C 317.764 49.057,317.644 49.688,317.534 50.631 M122.272 50.208 C 122.134 50.722,122.162 58.514,122.303 58.869 C 122.366 59.026,122.417 57.057,122.417 54.494 C 122.417 51.931,122.407 49.833,122.394 49.833 C 122.382 49.833,122.327 50.002,122.272 50.208 M397.704 52.542 L 397.667 55.333 386.347 55.333 C 380.121 55.333,374.909 55.379,374.764 55.434 C 374.205 55.649,374.795 60.012,375.516 61.000 C 375.678 61.222,375.689 61.222,375.620 61.000 C 374.997 58.991,374.598 56.880,374.691 56.083 L 374.750 55.583 386.214 55.541 C 395.359 55.506,397.695 55.454,397.760 55.284 C 397.805 55.166,397.819 53.873,397.792 52.410 L 397.741 49.750 397.704 52.542 M189.578 61.000 C 189.578 66.729,189.599 69.073,189.625 66.208 C 189.650 63.344,189.650 58.656,189.625 55.792 C 189.599 52.927,189.578 55.271,189.578 61.000 M28.700 52.791 L 37.151 52.836 37.213 53.836 L 37.276 54.835 37.263 53.792 L 37.250 52.750 28.750 52.748 L 20.250 52.745 28.700 52.791 M44.276 52.792 C 44.233 52.860,46.772 52.917,49.917 52.917 C 53.062 52.917,55.600 52.860,55.558 52.792 C 55.515 52.723,52.977 52.667,49.917 52.667 C 46.857 52.667,44.318 52.723,44.276 52.792 M62.410 52.875 C 62.366 52.990,62.350 60.246,62.375 69.000 L 62.418 84.917 62.459 68.876 L 62.500 52.836 73.375 52.792 L 84.250 52.748 73.370 52.707 C 64.789 52.675,62.473 52.711,62.410 52.875 M17.044 52.953 C 17.297 52.991,17.672 52.990,17.877 52.951 C 18.082 52.911,17.875 52.880,17.417 52.881 C 16.958 52.882,16.791 52.915,17.044 52.953 M86.044 52.953 C 86.297 52.991,86.672 52.990,86.877 52.951 C 87.082 52.911,86.875 52.880,86.417 52.881 C 85.958 52.882,85.791 52.915,86.044 52.953 M14.958 53.118 C 15.165 53.157,15.502 53.157,15.708 53.118 C 15.915 53.078,15.746 53.045,15.333 53.045 C 14.921 53.045,14.752 53.078,14.958 53.118 M88.127 53.118 C 88.334 53.158,88.634 53.156,88.794 53.115 C 88.953 53.073,88.783 53.040,88.417 53.042 C 88.050 53.044,87.920 53.078,88.127 53.118 M89.667 53.167 L 89.250 53.300 89.708 53.317 C 89.960 53.326,90.167 53.258,90.167 53.167 C 90.167 53.075,90.148 53.007,90.125 53.017 C 90.102 53.026,89.896 53.093,89.667 53.167 M44.053 54.833 C 44.053 55.429,44.084 55.673,44.121 55.375 C 44.158 55.077,44.158 54.590,44.121 54.292 C 44.084 53.994,44.053 54.237,44.053 54.833 M238.667 54.835 L 237.583 54.954 239.000 54.966 C 239.779 54.972,240.522 54.982,240.651 54.989 C 240.960 55.004,240.778 59.503,240.410 60.915 C 239.805 63.236,237.851 65.659,236.019 66.358 C 235.800 66.441,235.665 66.554,235.719 66.608 C 235.881 66.770,237.234 65.900,238.211 65.006 C 240.118 63.264,240.875 61.128,240.899 57.426 L 240.917 54.750 240.333 54.733 C 240.012 54.724,239.262 54.770,238.667 54.835 M234.381 55.123 C 234.912 55.157,235.737 55.156,236.214 55.123 C 236.692 55.089,236.258 55.062,235.250 55.062 C 234.242 55.063,233.851 55.090,234.381 55.123 M231.667 55.344 C 230.683 55.487,229.025 55.919,228.872 56.073 C 228.709 56.236,229.050 56.177,230.250 55.833 C 230.891 55.650,231.716 55.495,232.083 55.488 C 232.450 55.482,232.900 55.412,233.083 55.333 C 233.518 55.146,232.998 55.150,231.667 55.344 M37.042 56.083 C 37.044 56.450,37.078 56.580,37.118 56.373 C 37.158 56.166,37.156 55.866,37.115 55.706 C 37.073 55.547,37.040 55.717,37.042 56.083 M227.652 56.581 C 223.017 58.995,223.466 65.843,228.356 67.329 C 230.279 67.913,233.995 67.647,235.293 66.833 C 235.533 66.682,235.511 66.671,235.167 66.767 C 234.938 66.831,234.375 66.988,233.917 67.116 C 231.642 67.749,228.669 67.522,227.084 66.592 C 223.441 64.457,223.932 58.522,227.907 56.654 C 228.618 56.319,228.834 56.156,228.542 56.174 C 228.473 56.179,228.072 56.362,227.652 56.581 M43.875 57.250 C 43.877 57.617,43.911 57.747,43.951 57.540 C 43.991 57.332,43.990 57.032,43.948 56.873 C 43.906 56.714,43.874 56.883,43.875 57.250 M127.668 57.181 C 127.673 58.202,128.586 61.970,128.781 61.775 C 128.830 61.725,128.746 61.324,128.592 60.884 C 128.439 60.444,128.203 59.412,128.067 58.591 C 127.841 57.221,127.665 56.599,127.668 57.181 M219.378 58.453 C 218.872 59.861,218.626 63.335,218.971 64.205 C 219.034 64.364,219.058 63.627,219.024 62.568 C 218.966 60.745,219.085 59.833,219.538 58.620 C 219.634 58.365,219.674 58.118,219.628 58.073 C 219.582 58.027,219.470 58.198,219.378 58.453 M43.709 59.583 C 43.711 59.950,43.745 60.080,43.785 59.873 C 43.824 59.666,43.823 59.366,43.781 59.206 C 43.739 59.047,43.707 59.217,43.709 59.583 M36.705 59.667 C 36.705 59.987,36.740 60.119,36.782 59.958 C 36.823 59.798,36.823 59.535,36.782 59.375 C 36.740 59.215,36.705 59.346,36.705 59.667 M122.524 59.750 C 122.514 60.025,122.617 60.625,122.753 61.083 C 122.976 61.838,122.990 61.854,122.900 61.250 C 122.675 59.738,122.543 59.210,122.524 59.750 M145.936 61.010 C 144.629 65.798,140.392 68.253,135.083 67.297 L 134.417 67.177 135.000 67.409 C 137.122 68.254,141.661 67.213,143.610 65.435 C 144.936 64.224,146.578 60.984,146.295 60.135 C 146.259 60.026,146.097 60.419,145.936 61.010 M36.539 60.833 C 36.539 61.154,36.573 61.285,36.615 61.125 C 36.657 60.965,36.657 60.702,36.615 60.542 C 36.573 60.381,36.539 60.512,36.539 60.833 M43.539 61.000 C 43.539 61.321,43.573 61.452,43.615 61.292 C 43.657 61.131,43.657 60.869,43.615 60.708 C 43.573 60.548,43.539 60.679,43.539 61.000 M375.667 61.423 C 375.667 61.601,376.388 62.930,376.852 63.607 C 377.410 64.422,379.102 65.794,380.178 66.305 C 381.362 66.868,381.377 66.723,380.196 66.133 C 378.702 65.387,377.049 63.801,376.344 62.439 C 375.814 61.414,375.667 61.193,375.667 61.423 M123.011 62.038 C 122.953 62.690,124.646 66.072,125.714 67.439 C 126.747 68.762,126.652 68.390,125.599 66.991 C 125.095 66.321,124.409 65.131,124.074 64.345 C 123.170 62.225,123.022 61.905,123.011 62.038 M128.833 62.061 C 128.833 62.272,129.314 63.333,129.410 63.333 C 129.462 63.333,129.389 63.056,129.247 62.717 C 128.985 62.091,128.833 61.850,128.833 62.061 M261.834 62.264 C 261.836 62.597,262.187 63.660,262.323 63.744 C 262.402 63.793,262.362 63.483,262.233 63.055 C 262.005 62.297,261.832 61.955,261.834 62.264 M370.503 63.213 C 370.497 63.462,371.466 65.254,371.830 65.667 L 372.196 66.083 371.826 65.445 C 371.623 65.093,371.242 64.418,370.981 63.945 C 370.720 63.471,370.505 63.142,370.503 63.213 M129.501 63.625 C 129.504 64.085,132.515 66.873,132.753 66.636 C 132.797 66.592,132.450 66.307,131.981 66.004 C 131.512 65.700,130.788 65.012,130.371 64.476 C 129.615 63.502,129.499 63.389,129.501 63.625 M297.917 63.588 C 297.825 63.621,297.430 63.731,297.039 63.831 C 295.802 64.149,294.629 65.511,294.686 66.562 C 294.704 66.897,294.709 66.898,294.781 66.583 C 295.407 63.818,299.031 62.824,301.143 64.839 C 302.256 65.900,302.462 69.401,301.488 70.718 C 301.295 70.979,301.175 71.230,301.221 71.276 C 301.266 71.322,301.511 71.006,301.765 70.573 C 302.397 69.495,302.454 66.680,301.866 65.551 C 301.203 64.276,299.011 63.186,297.917 63.588 M256.675 64.547 C 256.666 64.883,257.446 66.829,257.693 67.083 C 257.782 67.175,257.764 67.025,257.653 66.750 C 257.543 66.475,257.279 65.800,257.068 65.250 C 256.857 64.700,256.680 64.384,256.675 64.547 M219.231 65.191 C 219.312 65.840,220.191 67.753,220.599 68.167 C 220.735 68.304,220.607 67.975,220.314 67.435 C 220.022 66.894,219.641 66.032,219.469 65.518 C 219.215 64.762,219.170 64.699,219.231 65.191 M263.662 65.688 C 264.072 66.058,264.560 66.436,264.746 66.528 C 264.931 66.619,264.821 66.482,264.500 66.224 C 264.179 65.965,263.745 65.584,263.534 65.377 C 263.324 65.170,263.099 65.003,263.034 65.007 C 262.970 65.011,263.252 65.317,263.662 65.688 M395.750 65.129 C 395.127 65.260,395.103 65.489,395.723 65.389 L 396.333 65.290 396.333 67.458 C 396.333 69.518,396.315 69.639,395.958 69.888 C 395.752 70.031,395.672 70.153,395.780 70.158 C 396.361 70.184,396.500 69.674,396.500 67.509 C 396.500 65.266,396.413 64.991,395.750 65.129 M393.750 65.837 C 393.292 66.004,392.542 66.256,392.083 66.397 C 391.495 66.578,391.421 66.627,391.833 66.562 C 392.483 66.461,395.000 65.668,395.000 65.565 C 395.000 65.443,394.584 65.533,393.750 65.837 M372.346 66.417 C 372.712 66.975,374.053 68.340,374.583 68.693 C 374.878 68.889,374.775 68.748,374.333 68.349 C 373.921 67.977,373.256 67.315,372.856 66.878 C 372.455 66.441,372.226 66.233,372.346 66.417 M133.333 66.917 C 133.563 67.048,133.900 67.152,134.083 67.148 C 134.302 67.144,134.215 67.064,133.833 66.917 C 133.062 66.620,132.814 66.620,133.333 66.917 M265.417 66.889 C 265.600 67.036,265.900 67.159,266.083 67.163 C 266.267 67.167,266.785 67.282,267.235 67.418 C 268.243 67.724,270.671 67.724,271.583 67.417 L 272.250 67.193 271.500 67.305 C 269.626 67.584,267.083 67.349,265.417 66.743 L 265.083 66.622 265.417 66.889 M272.917 66.921 C 272.398 67.092,272.342 67.142,272.667 67.146 C 272.896 67.149,273.308 67.049,273.583 66.923 C 274.217 66.633,273.795 66.632,272.917 66.921 M381.833 66.917 C 382.154 67.040,382.679 67.141,383.000 67.140 C 383.464 67.139,383.378 67.092,382.583 66.913 C 381.322 66.629,381.089 66.630,381.833 66.917 M390.293 66.762 C 390.241 66.815,389.684 66.917,389.057 66.990 C 387.990 67.114,387.970 67.124,388.750 67.137 C 389.208 67.145,389.958 67.048,390.417 66.921 C 390.980 66.764,391.110 66.686,390.819 66.678 C 390.583 66.672,390.346 66.710,390.293 66.762 M239.667 68.139 C 238.979 68.850,238.023 69.685,237.542 69.994 C 237.061 70.303,236.703 70.592,236.747 70.636 C 236.900 70.789,238.257 69.743,239.627 68.417 C 241.205 66.888,241.207 66.887,241.356 67.667 C 241.722 69.586,242.019 70.907,242.102 70.989 C 242.251 71.135,242.000 69.503,241.745 68.667 C 241.619 68.254,241.494 67.692,241.466 67.418 C 241.386 66.608,240.995 66.764,239.667 68.139 M278.532 67.995 C 278.058 68.533,277.101 69.354,276.405 69.820 C 275.708 70.286,275.203 70.667,275.281 70.667 C 275.730 70.667,277.792 69.066,278.812 67.926 C 279.244 67.443,279.408 67.350,279.518 67.523 C 279.631 67.702,279.662 67.690,279.664 67.468 C 279.669 66.901,279.374 67.038,278.532 67.995 M145.417 68.404 C 144.140 69.733,143.417 70.238,141.952 70.824 C 141.422 71.037,141.020 71.242,141.059 71.282 C 141.409 71.631,144.208 69.921,145.581 68.519 C 146.701 67.374,146.833 67.313,146.833 67.944 C 146.833 68.504,146.922 68.410,147.055 67.708 C 147.222 66.831,146.724 67.042,145.417 68.404 M384.372 67.365 C 384.809 67.444,385.736 67.442,386.455 67.361 C 387.733 67.217,387.722 67.215,385.667 67.219 C 384.008 67.223,383.744 67.253,384.372 67.365 M258.086 67.792 C 258.680 68.728,260.898 70.667,261.376 70.667 C 261.473 70.667,261.026 70.297,260.382 69.845 C 259.739 69.393,258.933 68.643,258.592 68.178 C 257.932 67.279,257.600 67.026,258.086 67.792 M34.852 68.019 C 34.749 68.313,34.694 68.583,34.730 68.619 C 34.766 68.655,34.879 68.443,34.981 68.148 C 35.084 67.854,35.139 67.583,35.103 67.548 C 35.068 67.512,34.955 67.724,34.852 68.019 M294.545 68.167 C 294.545 68.579,294.578 68.748,294.618 68.542 C 294.657 68.335,294.657 67.998,294.618 67.792 C 294.578 67.585,294.545 67.754,294.545 68.167 M279.705 68.333 C 279.705 68.654,279.740 68.785,279.782 68.625 C 279.823 68.465,279.823 68.202,279.782 68.042 C 279.740 67.881,279.705 68.012,279.705 68.333 M126.667 68.447 C 126.667 68.545,126.805 68.729,126.975 68.855 C 127.144 68.980,127.752 69.440,128.326 69.875 C 128.900 70.310,129.449 70.667,129.546 70.667 C 129.643 70.667,129.278 70.359,128.736 69.983 C 128.194 69.607,127.506 69.067,127.208 68.784 C 126.910 68.500,126.667 68.349,126.667 68.447 M220.929 68.708 C 220.976 68.823,221.217 69.060,221.465 69.235 C 221.916 69.554,221.916 69.553,221.427 69.027 C 220.893 68.451,220.800 68.392,220.929 68.708 M279.941 70.000 C 279.996 70.596,280.096 71.144,280.163 71.218 C 280.322 71.392,280.164 69.687,279.981 69.250 C 279.898 69.053,279.882 69.360,279.941 70.000 M375.583 69.429 C 376.121 69.899,378.432 71.040,379.250 71.239 C 380.072 71.439,379.595 71.156,378.416 70.744 C 377.811 70.532,376.813 70.052,376.199 69.676 C 375.446 69.215,375.246 69.135,375.583 69.429 M294.674 69.521 C 294.616 71.661,298.408 73.249,300.378 71.911 C 301.214 71.342,301.166 71.258,300.292 71.758 C 298.315 72.888,295.650 71.970,294.915 69.907 C 294.787 69.546,294.678 69.372,294.674 69.521 M222.333 70.010 C 222.888 70.457,224.678 71.377,224.785 71.271 C 224.831 71.224,224.593 71.071,224.255 70.930 C 223.917 70.788,223.305 70.447,222.895 70.170 C 222.053 69.601,221.702 69.501,222.333 70.010 M394.333 70.506 C 393.921 70.678,393.257 70.902,392.858 71.004 C 392.459 71.105,392.175 71.231,392.227 71.283 C 392.330 71.386,394.933 70.590,395.333 70.332 C 395.770 70.052,395.175 70.155,394.333 70.506 M129.918 70.836 C 130.019 70.999,131.191 71.364,131.291 71.264 C 131.324 71.231,131.008 71.087,130.588 70.944 C 130.168 70.801,129.867 70.752,129.918 70.836 M236.167 70.787 C 236.029 70.839,235.738 70.948,235.519 71.029 C 235.300 71.110,235.160 71.216,235.209 71.264 C 235.310 71.365,236.500 70.899,236.500 70.759 C 236.500 70.708,236.481 70.673,236.458 70.680 C 236.435 70.687,236.304 70.735,236.167 70.787 M261.751 70.836 C 261.852 70.999,263.024 71.364,263.125 71.264 C 263.158 71.231,262.841 71.087,262.421 70.944 C 262.001 70.801,261.700 70.752,261.751 70.836 M274.198 70.947 C 273.803 71.087,273.507 71.229,273.541 71.263 C 273.645 71.367,274.815 70.997,274.920 70.827 C 274.975 70.739,274.996 70.673,274.968 70.680 C 274.940 70.687,274.593 70.807,274.198 70.947 M312.313 71.380 C 312.384 71.451,313.524 71.488,314.846 71.463 L 317.250 71.416 314.716 71.333 C 313.323 71.287,312.241 71.308,312.313 71.380 M132.000 71.569 C 132.321 71.700,132.846 71.805,133.167 71.801 L 133.750 71.795 133.167 71.666 C 132.846 71.595,132.321 71.490,132.000 71.433 L 131.417 71.329 132.000 71.569 M140.134 71.421 C 140.086 71.470,139.717 71.574,139.315 71.653 C 138.614 71.791,138.608 71.797,139.167 71.802 C 139.814 71.809,141.169 71.368,140.569 71.346 C 140.378 71.339,140.183 71.373,140.134 71.421 M185.716 71.457 C 186.431 71.489,187.556 71.488,188.216 71.457 C 188.876 71.425,188.292 71.400,186.917 71.400 C 185.542 71.400,185.001 71.426,185.716 71.457 M207.292 71.457 C 207.956 71.489,209.044 71.489,209.708 71.457 C 210.373 71.425,209.829 71.400,208.500 71.400 C 207.171 71.400,206.627 71.425,207.292 71.457 M225.667 71.569 C 225.987 71.700,226.512 71.805,226.833 71.801 L 227.417 71.795 226.833 71.666 C 226.512 71.595,225.987 71.490,225.667 71.433 L 225.083 71.329 225.667 71.569 M234.127 71.428 C 234.075 71.480,233.669 71.584,233.225 71.659 L 232.417 71.794 233.083 71.801 C 233.786 71.808,235.219 71.370,234.569 71.346 C 234.378 71.339,234.180 71.376,234.127 71.428 M243.381 71.457 C 243.912 71.490,244.737 71.490,245.214 71.456 C 245.692 71.422,245.258 71.395,244.250 71.396 C 243.242 71.396,242.851 71.424,243.381 71.457 M263.917 71.575 C 264.283 71.703,264.883 71.804,265.250 71.800 L 265.917 71.792 265.250 71.672 C 264.883 71.606,264.283 71.504,263.917 71.447 L 263.250 71.342 263.917 71.575 M272.000 71.590 C 271.220 71.770,271.170 71.802,271.667 71.805 C 271.987 71.806,272.512 71.707,272.833 71.583 C 273.550 71.307,273.218 71.310,272.000 71.590 M281.465 71.457 C 282.041 71.490,282.941 71.489,283.465 71.456 C 283.988 71.423,283.517 71.397,282.417 71.397 C 281.317 71.397,280.888 71.424,281.465 71.457 M335.125 71.457 C 335.790 71.489,336.877 71.489,337.542 71.457 C 338.206 71.425,337.662 71.400,336.333 71.400 C 335.004 71.400,334.460 71.425,335.125 71.457 M356.625 71.457 C 357.290 71.489,358.377 71.489,359.042 71.457 C 359.706 71.425,359.162 71.400,357.833 71.400 C 356.504 71.400,355.960 71.425,356.625 71.457 M380.500 71.570 C 380.821 71.701,381.421 71.804,381.833 71.800 L 382.583 71.792 381.917 71.672 C 381.550 71.606,380.950 71.502,380.583 71.442 L 379.917 71.332 380.500 71.570 M390.960 71.429 C 390.907 71.482,390.351 71.584,389.724 71.657 L 388.583 71.790 389.500 71.804 C 390.004 71.812,390.792 71.714,391.250 71.587 C 391.955 71.391,392.004 71.354,391.569 71.345 C 391.287 71.338,391.013 71.376,390.960 71.429 M84.729 72.078 C 84.677 72.212,84.674 72.419,84.721 72.536 C 84.768 72.654,84.813 72.581,84.820 72.375 C 84.835 71.949,84.882 71.932,85.386 72.176 C 85.738 72.346,85.739 72.343,85.426 72.093 C 85.023 71.769,84.849 71.765,84.729 72.078 M134.250 72.019 C 134.895 72.159,137.435 72.159,138.083 72.020 C 138.358 71.960,137.496 71.912,136.167 71.911 C 134.837 71.911,133.975 71.959,134.250 72.019 M227.926 72.022 C 228.573 72.161,231.478 72.163,231.968 72.025 C 232.180 71.965,231.247 71.917,229.894 71.917 C 228.542 71.917,227.656 71.964,227.926 72.022 M266.583 72.027 C 267.400 72.175,269.941 72.174,270.467 72.025 C 270.678 71.965,269.741 71.914,268.384 71.911 C 266.878 71.908,266.176 71.953,266.583 72.027 M383.093 72.022 C 383.780 72.169,387.114 72.172,387.917 72.026 C 388.302 71.956,387.323 71.907,385.593 71.911 C 383.948 71.914,382.823 71.964,383.093 72.022 M86.167 72.582 C 86.167 72.695,87.520 73.368,87.596 73.293 C 87.631 73.258,87.323 73.066,86.913 72.867 C 86.503 72.668,86.167 72.539,86.167 72.582 M84.550 74.500 C 84.550 75.004,84.581 75.210,84.619 74.958 C 84.658 74.706,84.658 74.294,84.619 74.042 C 84.581 73.790,84.550 73.996,84.550 74.500 M89.250 74.000 C 89.433 74.079,89.696 74.143,89.833 74.143 C 89.991 74.143,89.960 74.090,89.750 74.000 C 89.567 73.921,89.304 73.857,89.167 73.857 C 89.009 73.857,89.040 73.910,89.250 74.000 M39.201 75.422 C 38.909 76.015,38.705 76.500,38.749 76.500 C 38.861 76.500,39.869 74.480,39.794 74.405 C 39.760 74.372,39.494 74.829,39.201 75.422 M84.372 76.667 C 84.372 76.987,84.406 77.119,84.448 76.958 C 84.490 76.798,84.490 76.535,84.448 76.375 C 84.406 76.215,84.372 76.346,84.372 76.667 M28.162 78.958 L 27.083 80.083 28.208 79.005 C 28.827 78.412,29.333 77.905,29.333 77.880 C 29.333 77.757,29.164 77.913,28.162 78.958 M37.410 78.542 C 37.154 78.931,37.050 79.162,37.180 79.054 C 37.430 78.848,38.068 77.833,37.948 77.833 C 37.909 77.833,37.667 78.152,37.410 78.542 M90.872 78.667 C 90.872 78.987,90.906 79.119,90.948 78.958 C 90.990 78.798,90.990 78.535,90.948 78.375 C 90.906 78.215,90.872 78.346,90.872 78.667 M84.039 79.500 C 84.039 79.821,84.073 79.952,84.115 79.792 C 84.157 79.631,84.157 79.369,84.115 79.208 C 84.073 79.048,84.039 79.179,84.039 79.500 M24.034 82.238 C 23.260 82.786,23.151 82.942,23.804 82.568 C 24.109 82.393,24.437 82.156,24.533 82.042 C 24.780 81.747,24.664 81.793,24.034 82.238 M83.438 82.521 C 83.299 83.216,83.433 83.350,83.583 82.667 C 83.647 82.379,83.664 82.108,83.621 82.066 C 83.579 82.023,83.496 82.228,83.438 82.521 M33.247 83.708 L 31.750 85.250 33.292 83.753 C 34.140 82.930,34.833 82.237,34.833 82.212 C 34.833 82.091,34.636 82.276,33.247 83.708 M19.667 84.750 C 19.071 85.062,18.642 85.321,18.713 85.325 C 18.890 85.336,20.833 84.349,20.833 84.248 C 20.833 84.136,20.872 84.119,19.667 84.750 M82.000 85.358 C 81.679 85.640,81.568 85.794,81.752 85.700 C 82.056 85.546,82.811 84.824,82.651 84.840 C 82.614 84.844,82.321 85.077,82.000 85.358 M17.833 85.583 C 17.604 85.714,17.492 85.822,17.583 85.822 C 17.675 85.822,17.938 85.714,18.167 85.583 C 18.396 85.452,18.508 85.345,18.417 85.345 C 18.325 85.345,18.063 85.452,17.833 85.583 M55.718 87.250 C 55.719 87.800,55.750 88.005,55.787 87.705 C 55.825 87.406,55.824 86.956,55.786 86.705 C 55.748 86.455,55.717 86.700,55.718 87.250 M78.375 86.448 C 78.535 86.490,78.798 86.490,78.958 86.448 C 79.119 86.406,78.987 86.372,78.667 86.372 C 78.346 86.372,78.215 86.406,78.375 86.448 M68.625 86.625 C 70.206 86.652,72.794 86.652,74.375 86.625 C 75.956 86.597,74.662 86.575,71.500 86.575 C 68.337 86.575,67.044 86.597,68.625 86.625 M28.120 87.903 C 27.136 88.584,26.902 88.823,27.628 88.405 C 28.187 88.083,29.148 87.343,29.000 87.349 C 28.954 87.350,28.558 87.600,28.120 87.903 M11.500 89.083 C 11.811 89.404,12.103 89.667,12.149 89.667 C 12.195 89.667,11.978 89.404,11.667 89.083 C 11.356 88.763,11.064 88.500,11.018 88.500 C 10.972 88.500,11.189 88.763,11.500 89.083 M56.172 89.801 C 56.169 89.921,56.485 90.337,56.875 90.725 C 57.353 91.201,57.414 91.238,57.063 90.840 C 56.777 90.516,56.461 90.100,56.360 89.917 C 56.259 89.733,56.175 89.681,56.172 89.801 M86.917 90.296 C 86.550 90.638,86.063 91.052,85.833 91.216 C 85.431 91.504,85.436 91.504,85.961 91.220 C 86.435 90.963,87.864 89.660,87.659 89.671 C 87.617 89.673,87.283 89.954,86.917 90.296 M13.084 90.958 C 13.526 91.531,13.917 92.000,13.954 92.000 C 14.071 92.000,12.958 90.513,12.613 90.209 C 12.431 90.048,12.643 90.385,13.084 90.958 M19.833 92.417 C 19.604 92.548,19.492 92.655,19.583 92.655 C 19.675 92.655,19.938 92.548,20.167 92.417 C 20.396 92.286,20.508 92.178,20.417 92.178 C 20.325 92.178,20.063 92.286,19.833 92.417 M59.917 92.500 C 60.100 92.579,60.400 92.641,60.583 92.638 C 60.851 92.634,60.835 92.607,60.500 92.500 C 59.930 92.317,59.492 92.317,59.917 92.500 M62.877 92.953 C 63.131 92.991,63.506 92.990,63.711 92.951 C 63.916 92.911,63.708 92.880,63.250 92.881 C 62.792 92.882,62.624 92.915,62.877 92.953 M78.208 92.953 C 78.460 92.991,78.873 92.991,79.125 92.953 C 79.377 92.915,79.171 92.883,78.667 92.883 C 78.162 92.883,77.956 92.915,78.208 92.953 M67.625 93.125 C 69.390 93.152,72.277 93.152,74.042 93.125 C 75.806 93.098,74.362 93.076,70.833 93.076 C 67.304 93.076,65.860 93.098,67.625 93.125 " stroke="none" fill="#7d7d7d" fill-rule="evenodd"></path><path id="path2" d="M0.000 53.083 L 0.000 106.167 200.000 106.167 L 400.000 106.167 400.000 53.083 L 400.000 0.000 200.000 0.000 L 0.000 0.000 0.000 53.083 M103.667 52.833 L 103.667 104.000 52.417 104.000 L 1.167 104.000 1.167 52.833 L 1.167 1.667 52.417 1.667 L 103.667 1.667 103.667 52.833 M47.069 16.705 C 47.577 21.252,47.719 46.380,47.236 46.566 C 46.764 46.747,23.697 46.668,19.417 46.470 C 17.125 46.364,14.875 46.271,14.417 46.264 L 13.583 46.250 13.583 49.667 L 13.583 53.083 14.167 53.071 C 14.487 53.064,16.322 52.970,18.242 52.862 C 23.942 52.543,37.150 52.597,37.282 52.940 C 37.592 53.747,36.523 62.428,35.747 65.417 C 32.839 76.602,26.174 83.071,12.882 87.607 C 11.893 87.945,11.057 88.242,11.024 88.267 C 10.991 88.293,11.505 88.927,12.165 89.677 C 12.826 90.426,13.780 91.687,14.286 92.478 C 14.792 93.269,15.262 93.978,15.331 94.053 C 15.399 94.127,16.459 93.793,17.686 93.310 C 35.021 86.486,42.776 75.368,43.989 55.599 C 44.079 54.141,44.216 52.884,44.295 52.805 C 44.374 52.726,46.946 52.682,50.011 52.706 L 55.583 52.750 55.680 70.500 C 55.776 88.249,55.796 88.811,56.376 89.917 C 57.659 92.362,59.672 92.840,69.177 92.953 C 88.020 93.176,89.503 92.008,91.262 75.563 L 91.372 74.542 90.477 74.332 C 89.273 74.048,87.311 73.264,86.069 72.569 C 85.509 72.256,85.007 72.000,84.953 72.000 C 84.825 72.000,84.731 72.825,84.497 76.000 C 83.996 82.795,83.130 85.255,80.977 85.999 C 78.330 86.913,64.685 86.954,63.158 86.052 C 62.326 85.560,62.329 85.615,62.374 68.646 L 62.417 52.750 72.250 52.698 C 78.710 52.664,83.255 52.717,85.500 52.852 C 87.379 52.965,89.179 53.064,89.500 53.071 L 90.083 53.083 90.128 49.605 L 90.174 46.126 89.128 46.219 C 85.636 46.528,77.682 46.674,66.750 46.632 L 54.417 46.583 54.367 33.500 C 54.324 22.083,54.413 17.607,54.717 15.933 C 54.740 15.805,53.570 15.736,50.851 15.705 L 46.952 15.660 47.069 16.705 M74.964 23.210 C 71.582 29.912,68.199 34.908,63.959 39.462 C 63.509 39.945,63.172 40.432,63.209 40.545 C 63.272 40.739,68.611 43.992,68.874 43.998 C 69.200 44.004,73.825 38.152,75.853 35.167 C 78.127 31.819,83.000 23.424,83.000 22.854 C 83.000 22.695,77.142 19.670,76.833 19.670 C 76.787 19.670,75.946 21.263,74.964 23.210 M21.615 21.400 C 20.165 22.163,18.911 22.855,18.828 22.939 C 18.737 23.030,19.313 23.854,20.273 25.004 C 24.551 30.130,27.134 34.047,30.737 40.875 C 31.354 42.044,31.940 43.000,32.039 43.000 C 32.311 43.000,37.696 39.618,37.782 39.394 C 37.886 39.123,34.376 33.130,32.282 30.000 C 30.144 26.806,24.802 19.995,24.444 20.006 C 24.337 20.010,23.064 20.637,21.615 21.400 M139.000 36.929 C 142.240 37.621,144.280 38.769,146.268 41.017 L 146.952 41.792 147.226 40.517 C 147.377 39.816,147.500 38.980,147.500 38.658 C 147.500 37.486,147.775 37.333,149.893 37.333 C 151.128 37.333,151.835 37.401,151.967 37.533 C 152.120 37.687,152.167 43.373,152.167 62.113 L 152.167 86.494 151.792 86.586 C 151.585 86.637,150.367 86.658,149.083 86.631 L 146.750 86.583 146.750 77.042 C 146.750 71.794,146.711 67.500,146.664 67.500 C 146.617 67.500,146.129 67.959,145.581 68.519 C 140.786 73.418,131.446 73.374,126.575 68.430 C 123.444 65.252,122.262 61.435,122.262 54.500 C 122.262 49.127,122.811 46.224,124.310 43.667 C 124.552 43.254,124.862 42.710,125.000 42.458 C 126.048 40.532,128.924 38.268,131.250 37.539 C 134.169 36.623,136.650 36.428,139.000 36.929 M181.000 36.929 C 184.443 37.665,187.132 39.391,188.069 41.468 C 188.454 42.322,188.509 42.326,189.090 41.542 C 191.918 37.720,197.421 35.896,202.760 37.011 C 207.736 38.050,209.830 40.267,211.014 45.750 C 211.381 47.447,211.442 70.867,211.081 71.228 C 210.801 71.508,206.941 71.636,206.042 71.395 L 205.667 71.294 205.667 59.491 C 205.667 46.458,205.662 46.396,204.617 44.433 C 201.913 39.356,192.490 40.906,190.536 46.750 C 189.760 49.072,189.784 48.672,189.714 60.246 C 189.664 68.507,189.598 71.274,189.448 71.369 C 189.213 71.519,184.811 71.545,184.430 71.399 C 184.193 71.308,184.167 70.147,184.167 59.989 C 184.167 49.293,184.078 46.737,183.672 45.750 C 182.407 42.674,180.593 41.500,177.104 41.500 C 173.029 41.500,170.250 43.297,169.157 46.638 C 168.260 49.378,168.295 48.865,168.215 60.415 C 168.159 68.418,168.088 71.280,167.945 71.371 C 167.682 71.538,163.138 71.530,162.874 71.362 C 162.708 71.257,162.674 67.738,162.708 54.323 L 162.750 37.417 164.876 37.370 C 167.370 37.315,167.168 37.145,167.582 39.646 C 167.939 41.802,167.964 41.825,168.781 40.779 C 171.247 37.622,176.497 35.968,181.000 36.929 M237.179 37.002 C 242.227 37.787,244.608 39.663,245.848 43.835 C 246.314 45.402,246.587 71.070,246.140 71.353 C 246.017 71.431,245.153 71.496,244.220 71.497 C 242.302 71.500,242.081 71.392,241.909 70.370 C 241.852 70.029,241.699 69.313,241.569 68.778 C 241.440 68.244,241.333 67.667,241.333 67.496 C 241.333 66.885,241.016 67.015,240.057 68.018 C 237.345 70.856,235.248 71.770,230.680 72.108 C 227.578 72.337,223.814 71.331,222.167 69.833 C 221.846 69.541,221.469 69.216,221.329 69.109 C 219.884 68.016,218.747 64.557,218.882 61.667 C 219.223 54.392,224.129 51.458,236.676 51.027 C 241.293 50.869,241.000 50.976,241.000 49.448 C 240.999 45.171,239.562 42.625,236.662 41.764 C 234.852 41.227,229.951 41.635,228.083 42.480 C 227.900 42.562,227.000 42.934,226.083 43.305 L 224.417 43.980 224.125 43.638 C 223.965 43.450,223.833 43.194,223.833 43.069 C 223.833 42.944,223.692 42.521,223.519 42.129 C 222.452 39.709,222.446 39.757,223.871 39.107 C 228.315 37.077,232.949 36.344,237.179 37.002 M330.944 37.060 C 334.258 37.856,336.383 39.323,337.570 41.636 C 337.916 42.312,337.939 42.304,338.860 41.167 C 343.733 35.152,355.385 35.172,358.894 41.202 C 360.587 44.111,360.667 44.915,360.667 59.165 L 360.667 71.294 360.292 71.395 C 359.686 71.557,355.606 71.510,355.333 71.337 C 355.116 71.200,355.072 69.560,354.999 58.798 C 354.920 47.129,354.897 46.369,354.597 45.583 C 353.540 42.817,351.823 41.685,348.467 41.541 C 343.628 41.332,340.762 43.454,339.578 48.122 L 339.167 49.742 339.167 60.518 L 339.167 71.294 338.792 71.395 C 338.301 71.526,334.271 71.530,333.930 71.399 C 333.694 71.308,333.667 70.157,333.667 60.095 C 333.667 47.519,333.608 46.671,332.608 44.670 C 330.244 39.945,321.176 40.584,318.974 45.630 C 317.666 48.627,317.508 50.375,317.503 61.872 L 317.500 71.327 317.125 71.420 C 316.919 71.471,315.737 71.491,314.500 71.465 L 312.250 71.417 312.250 54.417 L 312.250 37.417 314.083 37.368 C 316.416 37.306,316.606 37.355,316.720 38.040 C 317.021 39.842,317.322 41.378,317.388 41.443 C 317.429 41.485,318.091 40.892,318.857 40.125 C 321.836 37.145,326.436 35.978,330.944 37.060 M387.008 37.007 C 394.381 38.601,397.999 43.990,397.801 53.083 L 397.750 55.417 386.250 55.500 L 374.750 55.583 374.691 56.083 C 374.282 59.574,377.023 64.571,380.199 66.126 C 383.596 67.789,390.266 67.440,395.250 65.338 C 396.433 64.839,396.501 64.956,396.497 67.492 C 396.495 69.857,396.493 69.860,395.583 70.243 C 390.944 72.196,384.387 72.683,379.898 71.408 C 373.953 69.720,370.643 65.791,369.164 58.667 C 368.931 57.543,369.034 51.004,369.306 49.667 C 369.506 48.684,370.089 46.631,370.323 46.083 C 373.384 38.921,379.775 35.444,387.008 37.007 M261.661 37.656 C 261.775 37.869,261.835 42.023,261.837 49.947 C 261.841 61.211,261.860 61.972,262.155 62.852 C 263.234 66.076,265.332 67.388,269.417 67.391 C 274.423 67.395,277.731 65.015,278.645 60.750 C 278.743 60.292,278.915 59.542,279.027 59.083 C 279.170 58.497,279.258 55.167,279.323 47.833 L 279.417 37.417 281.750 37.369 C 283.033 37.342,284.252 37.363,284.458 37.414 L 284.833 37.506 284.833 54.400 L 284.833 71.294 284.458 71.395 C 283.736 71.588,280.576 71.510,280.307 71.292 C 280.140 71.156,279.977 70.505,279.837 69.417 C 279.531 67.027,279.541 67.036,278.489 68.273 C 275.584 71.689,269.195 73.044,263.500 71.451 C 259.586 70.356,257.394 67.909,256.430 63.559 C 256.156 62.321,256.012 37.710,256.278 37.444 C 256.586 37.136,261.486 37.329,261.661 37.656 M133.982 41.896 C 128.142 43.958,125.712 54.720,129.274 62.750 C 131.895 68.658,142.010 69.130,144.979 63.483 C 147.187 59.281,147.222 50.163,145.047 45.720 C 143.368 42.292,138.058 40.457,133.982 41.896 M380.750 41.947 C 377.577 43.115,375.193 46.469,374.969 50.083 L 374.917 50.917 383.458 50.960 L 392.000 51.003 392.000 50.108 C 392.000 46.924,389.966 43.203,387.695 42.232 C 385.593 41.333,382.738 41.216,380.750 41.947 M236.750 55.115 C 227.471 55.633,224.752 57.174,224.751 61.917 C 224.749 65.816,227.064 67.713,231.500 67.448 C 237.574 67.084,240.480 63.967,240.772 57.503 C 240.904 54.564,241.394 54.855,236.750 55.115 M299.595 63.772 C 301.611 64.441,302.231 65.439,302.228 68.008 C 302.224 70.943,301.010 72.333,298.449 72.333 C 295.698 72.333,294.613 71.103,294.626 68.000 C 294.637 65.457,295.323 64.273,297.039 63.831 C 297.430 63.731,297.825 63.621,297.917 63.588 C 298.280 63.454,298.812 63.512,299.595 63.772 " stroke="none" fill="#ffffff" fill-rule="evenodd"></path><path id="path3" d="M1.268 1.930 C 1.136 2.275,1.136 103.392,1.268 103.736 C 1.360 103.976,6.031 104.000,52.518 104.000 L 103.667 104.000 103.667 52.833 L 103.667 1.667 52.518 1.667 C 6.031 1.667,1.360 1.691,1.268 1.930 M54.740 16.250 C 54.735 16.617,54.637 18.229,54.522 19.833 C 54.376 21.875,54.329 26.300,54.365 34.583 L 54.417 46.417 68.667 46.466 C 81.770 46.511,85.701 46.433,89.208 46.056 L 90.167 45.953 90.167 49.662 L 90.167 53.371 89.458 53.269 C 87.100 52.930,83.710 52.836,73.708 52.835 L 62.500 52.833 62.500 68.925 C 62.500 87.074,62.404 85.784,63.784 86.184 C 65.111 86.570,78.687 86.516,80.241 86.119 C 82.506 85.540,83.429 84.067,83.916 80.250 C 83.974 79.792,84.089 79.042,84.171 78.583 C 84.252 78.125,84.404 76.475,84.507 74.917 C 84.610 73.358,84.745 72.031,84.806 71.967 C 84.867 71.903,85.782 72.278,86.839 72.800 C 87.897 73.323,89.308 73.898,89.975 74.079 C 91.491 74.491,91.489 74.489,91.310 76.000 C 89.416 92.005,88.164 93.062,71.083 93.077 C 60.725 93.086,58.798 92.777,56.882 90.800 C 55.686 89.567,55.759 90.765,55.667 70.833 L 55.583 52.917 49.917 52.917 L 44.250 52.917 44.207 53.750 C 43.326 71.000,38.294 81.494,27.583 88.417 C 25.676 89.650,19.988 92.667,19.570 92.667 C 19.513 92.667,19.231 92.776,18.942 92.909 C 15.741 94.384,15.400 94.401,14.591 93.124 C 13.741 91.783,12.629 90.316,11.606 89.184 C 10.667 88.145,10.617 88.219,12.686 87.571 C 16.251 86.453,20.931 84.295,23.583 82.546 C 32.340 76.770,36.394 68.521,37.101 55.042 L 37.217 52.833 28.117 52.833 C 23.052 52.833,18.072 52.913,16.884 53.013 C 15.710 53.111,14.487 53.205,14.167 53.221 L 13.583 53.250 13.538 49.602 L 13.493 45.953 14.560 46.063 C 18.082 46.423,21.121 46.493,33.553 46.496 L 47.355 46.500 47.279 32.375 C 47.229 23.227,47.137 17.839,47.018 17.083 C 46.746 15.366,46.444 15.488,50.871 15.539 L 54.750 15.583 54.740 16.250 M80.093 21.118 C 81.712 21.917,83.072 22.660,83.114 22.770 C 83.293 23.235,77.686 32.802,75.116 36.417 C 72.687 39.834,69.237 44.000,68.837 44.000 C 68.413 44.000,62.999 40.790,63.001 40.539 C 63.001 40.472,63.723 39.592,64.605 38.583 C 69.081 33.467,72.044 28.958,75.303 22.304 C 76.835 19.178,76.384 19.290,80.093 21.118 M27.218 23.042 C 29.969 26.501,31.639 28.789,33.332 31.417 C 34.613 33.404,38.000 39.169,38.000 39.361 C 38.000 39.632,32.201 43.215,31.931 43.112 C 31.822 43.070,31.068 41.771,30.256 40.226 C 26.908 33.857,24.161 29.769,19.499 24.220 C 18.782 23.368,18.552 22.984,18.698 22.887 C 19.273 22.502,24.279 19.860,24.458 19.848 C 24.573 19.840,25.815 21.277,27.218 23.042 M149.213 37.623 C 149.652 37.657,150.327 37.657,150.713 37.622 C 151.100 37.587,150.742 37.559,149.917 37.559 C 149.092 37.560,148.775 37.588,149.213 37.623 M164.125 37.623 C 164.606 37.657,165.394 37.657,165.875 37.623 C 166.356 37.589,165.962 37.562,165.000 37.562 C 164.037 37.562,163.644 37.589,164.125 37.623 M257.792 37.623 C 258.365 37.656,259.302 37.656,259.875 37.623 C 260.448 37.591,259.979 37.564,258.833 37.564 C 257.688 37.564,257.219 37.591,257.792 37.623 M281.215 37.624 C 281.838 37.656,282.813 37.656,283.382 37.623 C 283.951 37.591,283.442 37.564,282.250 37.565 C 281.058 37.565,280.593 37.592,281.215 37.624 M313.625 37.623 C 314.106 37.657,314.894 37.657,315.375 37.623 C 315.856 37.589,315.462 37.562,314.500 37.562 C 313.537 37.562,313.144 37.589,313.625 37.623 M246.050 46.667 C 246.050 47.171,246.081 47.377,246.119 47.125 C 246.158 46.873,246.158 46.460,246.119 46.208 C 246.081 45.956,246.050 46.163,246.050 46.667 M236.208 51.282 C 236.369 51.323,236.631 51.323,236.792 51.282 C 236.952 51.240,236.821 51.205,236.500 51.205 C 236.179 51.205,236.048 51.240,236.208 51.282 M379.280 51.291 C 381.497 51.318,385.172 51.318,387.447 51.292 C 389.722 51.265,387.908 51.244,383.417 51.244 C 378.925 51.244,377.064 51.265,379.280 51.291 M236.794 54.951 C 237.001 54.991,237.301 54.990,237.460 54.948 C 237.620 54.906,237.450 54.874,237.083 54.875 C 236.717 54.877,236.586 54.911,236.794 54.951 M256.375 61.583 C 256.377 61.950,256.411 62.080,256.451 61.873 C 256.491 61.666,256.490 61.366,256.448 61.206 C 256.406 61.047,256.374 61.217,256.375 61.583 M396.230 67.500 C 396.230 68.554,396.257 68.985,396.290 68.458 C 396.323 67.931,396.323 67.069,396.290 66.542 C 396.257 66.015,396.230 66.446,396.230 67.500 " stroke="none" fill="#f23a31" fill-rule="evenodd"></path></g></svg>