<svg id="svg" version="1.1" width="400" height="283.35877862595424" viewBox="0 0 400 283.35877862595424" xmlns="http://www.w3.org/2000/svg" xmlns:xlink="http://www.w3.org/1999/xlink" ><g id="svgg"><path id="path0" d="M33.470 198.595 C 23.879 200.930,19.277 208.232,19.277 221.115 C 19.277 229.536,21.110 235.140,25.222 239.294 C 31.445 245.580,43.288 245.628,49.382 239.392 C 50.365 238.386,51.233 237.562,51.311 237.562 C 51.389 237.562,51.414 243.302,51.366 250.319 L 51.279 263.076 54.379 263.076 C 56.644 263.076,57.564 262.972,57.798 262.691 C 58.032 262.409,58.098 253.827,58.045 230.728 L 57.973 199.150 55.373 199.068 C 52.396 198.975,52.684 198.696,52.140 202.205 C 51.710 204.979,51.583 205.041,49.991 203.270 C 46.317 199.185,39.256 197.187,33.470 198.595 M88.448 198.571 C 84.702 199.426,82.434 200.713,80.218 203.239 L 78.844 204.805 78.543 204.014 C 78.378 203.579,78.240 202.944,78.237 202.604 C 78.234 202.263,78.066 201.347,77.864 200.567 L 77.497 199.150 74.889 199.150 L 72.282 199.150 72.282 221.120 L 72.282 243.090 75.475 243.090 L 78.668 243.090 78.831 228.916 C 79.029 211.647,79.305 210.056,82.667 206.789 C 85.955 203.593,93.695 203.083,97.042 205.842 C 100.048 208.320,100.332 210.278,100.344 228.571 L 100.354 243.250 103.544 243.170 L 106.733 243.090 106.882 228.490 L 107.032 213.891 107.847 211.535 C 109.667 206.272,112.886 204.111,118.902 204.111 C 123.575 204.111,126.110 205.687,127.563 209.497 L 128.266 211.339 128.358 227.295 L 128.450 243.250 131.624 243.170 L 134.798 243.090 134.798 226.223 C 134.798 207.673,134.835 208.125,133.016 204.597 C 128.809 196.438,114.339 195.840,107.374 203.536 C 105.593 205.504,105.378 205.573,104.866 204.335 C 103.045 199.940,94.932 197.092,88.448 198.571 M161.446 198.579 C 156.560 199.255,150.532 201.310,150.532 202.299 C 150.532 203.066,152.274 206.945,152.619 206.945 C 152.802 206.945,153.861 206.564,154.972 206.097 C 166.901 201.085,175.144 205.010,174.295 215.297 C 174.176 216.747,173.960 216.803,168.424 216.839 C 163.737 216.870,160.409 217.305,155.576 218.522 C 147.896 220.455,143.995 227.051,145.858 234.953 C 148.225 244.993,163.903 247.447,172.265 239.085 C 174.543 236.807,174.392 236.751,175.211 240.184 L 175.904 243.090 178.313 243.090 L 180.723 243.090 180.723 226.648 C 180.723 209.011,180.670 208.236,179.246 204.961 C 177.019 199.838,170.147 197.374,161.446 198.579 M282.670 198.746 C 279.449 199.578,277.618 200.608,275.507 202.779 C 273.471 204.874,273.439 204.876,273.159 202.977 C 273.056 202.275,272.837 201.095,272.673 200.354 L 272.374 199.008 269.709 199.008 L 267.045 199.008 267.045 221.120 L 267.045 243.232 270.305 243.232 L 273.565 243.232 273.567 230.829 C 273.570 213.294,274.010 210.552,277.371 207.074 C 281.000 203.318,289.067 202.904,292.326 206.306 C 295.029 209.126,295.110 209.757,295.110 227.894 L 295.110 243.232 298.348 243.232 L 301.585 243.232 301.700 228.703 C 301.827 212.693,301.872 212.262,303.736 209.080 C 307.475 202.700,318.721 202.126,321.798 208.159 C 323.007 210.528,323.014 210.626,323.167 227.073 L 323.317 243.090 326.520 243.170 L 329.724 243.251 329.629 226.019 C 329.518 205.906,329.500 205.780,326.219 202.220 C 320.509 196.025,305.145 197.438,301.363 204.506 C 300.801 205.555,300.430 205.433,299.413 203.862 C 296.378 199.179,289.333 197.026,282.670 198.746 M356.454 198.594 C 346.843 200.704,341.340 208.518,341.066 220.444 C 340.624 239.737,355.453 248.917,375.266 241.614 L 376.471 241.170 376.471 238.232 C 376.471 236.616,376.363 235.294,376.231 235.294 C 376.100 235.294,375.239 235.554,374.318 235.871 C 362.219 240.042,353.192 238.129,349.838 230.684 C 348.904 228.610,348.032 224.802,348.168 223.388 L 348.264 222.395 363.288 222.254 L 378.313 222.112 378.408 219.561 C 378.942 205.103,369.198 195.797,356.454 198.594 M194.014 199.417 C 193.687 200.269,194.106 231.991,194.463 233.451 C 196.199 240.544,201.051 243.851,209.780 243.890 C 215.498 243.915,219.283 242.543,222.469 239.291 C 224.558 237.158,224.441 237.116,224.861 240.141 C 225.303 243.323,225.239 243.268,228.321 243.171 L 230.900 243.090 230.900 221.120 L 230.900 199.150 227.640 199.150 L 224.380 199.150 224.213 213.182 C 224.111 221.664,223.926 227.663,223.743 228.349 C 222.540 232.857,220.747 235.453,217.859 236.866 C 211.969 239.748,204.476 238.431,202.248 234.122 C 201.028 231.763,200.998 231.311,200.995 214.984 C 200.993 200.993,200.945 199.334,200.544 199.180 C 199.546 198.797,194.177 198.992,194.014 199.417 M40.680 204.089 C 48.127 205.186,51.302 210.404,51.301 221.545 C 51.300 233.064,47.292 238.355,38.530 238.402 C 30.520 238.446,25.653 231.362,26.168 220.411 C 26.734 208.383,31.725 202.770,40.680 204.089 M364.791 204.734 C 368.468 206.110,371.084 210.471,371.084 215.226 L 371.084 216.867 359.878 216.867 C 347.105 216.867,348.134 217.116,348.691 214.164 C 350.194 206.198,357.409 201.972,364.791 204.734 M174.001 224.186 C 174.275 233.040,169.374 238.408,161.021 238.405 C 150.401 238.400,149.094 225.915,159.385 222.786 C 161.645 222.099,169.202 221.399,173.069 221.519 L 173.919 221.545 174.001 224.186 M247.059 233.651 C 242.969 235.077,243.028 242.752,247.139 244.109 C 250.910 245.353,253.579 243.169,253.579 238.838 C 253.579 234.485,250.863 232.325,247.059 233.651 " stroke="none" fill="#000000" fill-rule="evenodd"></path><path id="path1" d="M179.353 45.848 C 179.278 45.968,181.492 46.029,184.273 45.984 L 189.329 45.900 189.461 46.692 C 189.590 47.467,189.592 47.466,189.552 46.634 L 189.511 45.783 184.500 45.706 C 181.744 45.663,179.428 45.727,179.353 45.848 M179.513 47.909 C 179.513 48.455,179.571 48.678,179.643 48.405 C 179.714 48.133,179.714 47.686,179.643 47.413 C 179.571 47.140,179.513 47.364,179.513 47.909 M189.163 49.327 C 189.163 50.028,189.218 50.315,189.286 49.965 C 189.353 49.614,189.353 49.040,189.286 48.689 C 189.218 48.338,189.163 48.625,189.163 49.327 M179.826 51.595 C 179.826 52.764,179.876 53.242,179.937 52.658 C 179.998 52.073,179.998 51.116,179.937 50.532 C 179.876 49.947,179.826 50.425,179.826 51.595 M148.193 52.180 C 147.296 52.643,146.563 53.085,146.563 53.162 C 146.563 53.289,149.936 51.683,150.224 51.419 C 150.596 51.080,149.609 51.449,148.193 52.180 M188.936 68.887 C 188.936 78.476,188.971 82.399,189.015 77.605 C 189.058 72.810,189.058 64.965,189.015 60.170 C 188.971 55.376,188.936 59.298,188.936 68.887 M152.626 54.514 C 153.227 55.247,153.777 55.847,153.850 55.847 C 154.043 55.847,152.248 53.622,151.862 53.384 C 151.681 53.272,152.025 53.780,152.626 54.514 M215.793 55.716 C 215.139 57.035,214.665 58.115,214.740 58.115 C 214.929 58.115,217.211 53.545,217.085 53.419 C 217.029 53.363,216.448 54.396,215.793 55.716 M143.940 54.449 C 143.356 54.757,142.877 55.073,142.877 55.151 C 142.877 55.228,143.388 55.031,144.011 54.713 C 144.635 54.395,145.145 54.073,145.145 53.998 C 145.145 53.813,145.143 53.814,143.940 54.449 M144.117 57.630 C 144.876 58.520,145.558 59.249,145.631 59.249 C 145.822 59.249,143.460 56.457,143.064 56.214 C 142.884 56.103,143.357 56.740,144.117 57.630 M224.805 58.115 C 224.487 58.738,224.290 59.249,224.368 59.249 C 224.446 59.249,224.770 58.738,225.089 58.115 C 225.407 57.491,225.603 56.981,225.525 56.981 C 225.447 56.981,225.123 57.491,224.805 58.115 M156.645 59.603 C 157.530 60.811,158.311 61.800,158.379 61.800 C 158.556 61.800,156.859 59.467,155.867 58.346 C 155.409 57.829,155.759 58.395,156.645 59.603 M213.324 60.383 C 213.082 60.850,212.948 61.233,213.026 61.233 C 213.104 61.233,213.365 60.850,213.607 60.383 C 213.849 59.915,213.983 59.532,213.905 59.532 C 213.827 59.532,213.566 59.915,213.324 60.383 M223.529 60.383 C 223.288 60.850,223.153 61.233,223.231 61.233 C 223.309 61.233,223.571 60.850,223.813 60.383 C 224.055 59.915,224.189 59.532,224.111 59.532 C 224.033 59.532,223.771 59.915,223.529 60.383 M211.993 62.721 C 211.770 63.072,211.302 63.870,210.951 64.493 C 210.202 65.827,211.020 64.789,211.993 63.171 C 212.684 62.023,212.683 61.631,211.993 62.721 M160.351 64.918 C 161.077 66.010,161.723 66.903,161.788 66.903 C 161.938 66.903,161.728 66.550,160.394 64.564 C 159.791 63.668,159.238 62.934,159.165 62.934 C 159.092 62.934,159.625 63.827,160.351 64.918 M220.675 65.415 C 220.244 66.155,219.707 67.080,219.480 67.470 L 219.068 68.179 219.598 67.541 C 220.217 66.796,221.780 64.068,221.588 64.068 C 221.516 64.068,221.105 64.674,220.675 65.415 M151.979 68.108 C 153.797 70.877,154.245 71.469,153.644 70.305 C 153.139 69.325,150.543 65.485,150.386 65.485 C 150.316 65.485,151.033 66.665,151.979 68.108 M208.040 68.816 C 207.224 69.801,206.879 70.305,207.019 70.305 C 207.097 70.305,207.502 69.858,207.918 69.313 C 208.691 68.300,208.784 67.918,208.040 68.816 M204.953 72.785 C 203.969 73.994,203.429 74.750,203.754 74.465 C 204.402 73.897,207.055 70.588,206.863 70.588 C 206.797 70.588,205.938 71.577,204.953 72.785 M216.584 71.864 C 216.101 72.566,215.770 73.140,215.848 73.140 C 215.926 73.140,216.385 72.566,216.867 71.864 C 217.350 71.162,217.681 70.588,217.603 70.588 C 217.525 70.588,217.067 71.162,216.584 71.864 M155.209 73.423 C 155.451 73.891,155.713 74.274,155.791 74.274 C 155.869 74.274,155.734 73.891,155.493 73.423 C 155.251 72.955,154.989 72.573,154.911 72.573 C 154.833 72.573,154.967 72.955,155.209 73.423 M156.627 75.974 C 157.022 76.754,157.409 77.392,157.487 77.392 C 157.564 77.392,157.305 76.754,156.910 75.974 C 156.515 75.195,156.128 74.557,156.050 74.557 C 155.972 74.557,156.231 75.195,156.627 75.974 M201.717 76.583 C 200.291 78.169,200.249 78.411,201.291 79.033 L 201.984 79.446 201.290 78.871 C 200.506 78.223,200.529 78.168,202.381 76.187 C 202.928 75.602,203.297 75.124,203.202 75.124 C 203.107 75.124,202.439 75.781,201.717 76.583 M212.899 76.825 C 212.405 77.449,212.064 77.959,212.142 77.959 C 212.220 77.959,212.688 77.449,213.182 76.825 C 213.676 76.201,214.016 75.691,213.938 75.691 C 213.861 75.691,213.393 76.201,212.899 76.825 M163.359 79.409 C 162.393 80.028,162.080 80.443,162.934 79.974 C 163.585 79.617,164.603 78.829,164.422 78.823 C 164.344 78.821,163.866 79.084,163.359 79.409 M209.213 81.361 C 208.561 82.140,208.090 82.778,208.168 82.778 C 208.246 82.778,208.844 82.140,209.497 81.361 C 210.150 80.581,210.620 79.943,210.542 79.943 C 210.464 79.943,209.866 80.581,209.213 81.361 M160.962 80.877 C 159.915 81.501,159.911 81.501,159.458 80.936 C 159.016 80.382,159.012 80.384,159.314 81.006 C 159.689 81.780,162.155 81.206,162.155 80.345 C 162.155 80.173,162.116 80.191,160.962 80.877 M203.685 80.433 C 203.841 80.581,204.479 80.990,205.103 81.340 C 205.726 81.690,205.982 81.764,205.670 81.505 C 205.036 80.979,203.240 80.008,203.685 80.433 M137.424 85.814 C 137.776 85.881,138.286 85.879,138.558 85.808 C 138.829 85.737,138.540 85.681,137.916 85.685 C 137.293 85.688,137.071 85.746,137.424 85.814 M233.242 85.814 C 233.595 85.881,234.105 85.879,234.376 85.808 C 234.647 85.737,234.359 85.681,233.735 85.685 C 233.111 85.688,232.890 85.746,233.242 85.814 M235.641 90.058 C 235.579 94.567,235.567 94.647,234.940 94.768 L 234.302 94.891 234.949 94.930 C 235.853 94.983,235.887 94.774,235.790 89.853 L 235.703 85.471 235.641 90.058 M140.822 86.102 C 141.329 86.164,142.158 86.164,142.665 86.102 C 143.172 86.039,142.757 85.987,141.743 85.987 C 140.730 85.987,140.315 86.039,140.822 86.102 M228.697 86.101 C 229.200 86.164,230.093 86.165,230.681 86.103 C 231.269 86.042,230.858 85.991,229.766 85.990 C 228.675 85.988,228.193 86.039,228.697 86.101 M155.867 86.392 C 160.283 86.436,167.427 86.436,171.742 86.392 C 176.058 86.348,172.445 86.312,163.714 86.312 C 154.982 86.313,151.451 86.349,155.867 86.392 M197.803 86.392 C 202.519 86.436,210.237 86.436,214.954 86.392 C 219.670 86.349,215.811 86.313,206.378 86.313 C 196.945 86.313,193.086 86.349,197.803 86.392 M154.554 94.329 L 166.656 94.407 166.774 95.399 L 166.891 96.390 166.862 95.325 L 166.832 94.259 154.642 94.255 L 142.452 94.250 154.554 94.329 M175.596 94.504 C 175.514 94.716,175.494 95.641,175.551 96.559 L 175.655 98.228 175.708 96.319 L 175.762 94.410 183.345 94.330 L 190.928 94.250 183.336 94.184 C 177.146 94.130,175.717 94.189,175.596 94.504 M199.422 94.472 C 199.347 94.667,199.320 104.203,199.362 115.663 L 199.437 136.499 199.506 115.453 L 199.575 94.406 214.387 94.330 L 229.199 94.254 214.378 94.186 C 202.732 94.132,199.528 94.194,199.422 94.472 M135.790 94.724 C 135.790 94.858,136.109 94.968,136.499 94.968 C 136.889 94.968,137.208 94.919,137.208 94.859 C 137.208 94.800,136.889 94.690,136.499 94.615 C 136.109 94.541,135.790 94.590,135.790 94.724 M138.979 94.597 C 139.252 94.668,139.699 94.668,139.972 94.597 C 140.245 94.525,140.021 94.467,139.476 94.467 C 138.930 94.467,138.707 94.525,138.979 94.597 M231.825 94.602 C 232.177 94.669,232.688 94.667,232.959 94.596 C 233.230 94.525,232.941 94.469,232.318 94.473 C 231.694 94.476,231.472 94.534,231.825 94.602 M166.478 98.795 C 166.481 99.419,166.539 99.641,166.607 99.288 C 166.675 98.935,166.673 98.425,166.602 98.154 C 166.531 97.883,166.475 98.172,166.478 98.795 M175.276 100.496 C 175.278 101.276,175.333 101.561,175.398 101.130 C 175.463 100.699,175.462 100.061,175.394 99.713 C 175.327 99.364,175.274 99.717,175.276 100.496 M174.977 103.756 C 174.977 104.302,175.036 104.525,175.107 104.252 C 175.178 103.979,175.178 103.533,175.107 103.260 C 175.036 102.987,174.977 103.210,174.977 103.756 M164.584 111.005 C 164.480 111.421,164.449 111.815,164.516 111.882 C 164.583 111.949,164.723 111.664,164.827 111.248 C 164.932 110.833,164.962 110.438,164.895 110.371 C 164.829 110.305,164.689 110.590,164.584 111.005 M164.017 112.990 C 163.913 113.405,163.883 113.800,163.949 113.867 C 164.016 113.933,164.156 113.648,164.260 113.233 C 164.365 112.817,164.395 112.423,164.328 112.356 C 164.262 112.289,164.122 112.574,164.017 112.990 M172.522 115.258 C 172.418 115.673,172.387 116.068,172.454 116.135 C 172.521 116.201,172.661 115.916,172.765 115.501 C 172.869 115.085,172.900 114.691,172.833 114.624 C 172.766 114.557,172.626 114.842,172.522 115.258 M171.258 119.096 C 171.083 119.597,170.990 120.057,171.050 120.117 C 171.111 120.178,171.303 119.817,171.478 119.316 C 171.653 118.815,171.746 118.356,171.685 118.295 C 171.625 118.235,171.432 118.595,171.258 119.096 M228.606 119.738 C 228.524 119.953,228.505 120.750,228.564 121.510 L 228.672 122.892 228.723 121.285 C 228.754 120.307,228.913 119.623,229.128 119.536 C 229.406 119.424,229.404 119.388,229.119 119.370 C 228.920 119.358,228.689 119.524,228.606 119.738 M229.624 119.772 C 229.624 119.962,232.494 121.392,232.621 121.265 C 232.679 121.207,232.029 120.817,231.176 120.398 C 230.322 119.980,229.624 119.698,229.624 119.772 M160.703 120.836 C 160.517 121.187,160.180 121.793,159.954 122.183 C 159.560 122.863,159.563 122.869,160.020 122.325 C 160.585 121.653,161.378 120.198,161.180 120.198 C 161.103 120.198,160.889 120.485,160.703 120.836 M158.753 123.884 C 158.420 124.352,158.211 124.734,158.289 124.734 C 158.367 124.734,158.703 124.352,159.036 123.884 C 159.369 123.416,159.578 123.033,159.500 123.033 C 159.422 123.033,159.086 123.416,158.753 123.884 M228.284 125.018 C 228.284 125.719,228.339 126.006,228.407 125.656 C 228.475 125.305,228.475 124.731,228.407 124.380 C 228.339 124.029,228.284 124.316,228.284 125.018 M154.926 128.356 C 153.834 129.408,152.367 130.754,151.665 131.349 C 150.791 132.090,150.689 132.232,151.341 131.801 C 152.291 131.174,157.320 126.462,157.052 126.451 C 156.974 126.447,156.017 127.305,154.926 128.356 M227.989 127.853 C 227.989 128.398,228.048 128.622,228.119 128.349 C 228.190 128.076,228.190 127.629,228.119 127.356 C 228.048 127.084,227.989 127.307,227.989 127.853 M227.706 129.837 C 227.706 130.383,227.764 130.606,227.835 130.333 C 227.907 130.060,227.907 129.614,227.835 129.341 C 227.764 129.068,227.706 129.291,227.706 129.837 M164.539 131.184 C 163.941 131.924,162.618 133.432,161.599 134.535 L 159.745 136.540 161.871 134.393 C 163.894 132.351,166.038 129.837,165.756 129.837 C 165.684 129.837,165.136 130.443,164.539 131.184 M146.208 134.818 C 145.149 135.393,145.213 135.633,146.279 135.082 C 146.747 134.840,147.130 134.581,147.130 134.507 C 147.130 134.325,147.099 134.335,146.208 134.818 M235.188 135.542 C 234.951 136.724,235.181 136.953,235.436 135.790 C 235.543 135.300,235.572 134.840,235.500 134.768 C 235.428 134.696,235.287 135.044,235.188 135.542 M190.877 139.192 C 190.877 140.206,190.929 140.620,190.992 140.113 C 191.055 139.607,191.055 138.777,190.992 138.271 C 190.929 137.764,190.877 138.179,190.877 139.192 M156.485 138.943 C 155.497 139.809,155.496 139.810,156.405 139.206 C 156.907 138.872,157.393 138.477,157.485 138.328 C 157.759 137.886,157.532 138.025,156.485 138.943 M207.300 138.554 C 209.600 138.601,213.363 138.601,215.663 138.554 C 217.962 138.506,216.081 138.467,211.481 138.467 C 206.882 138.467,205.000 138.506,207.300 138.554 M133.957 142.599 C 134.576 143.303,135.441 144.324,135.879 144.867 C 136.557 145.705,136.542 145.655,135.782 144.537 C 135.289 143.813,134.424 142.792,133.860 142.269 L 132.833 141.318 133.957 142.599 M231.042 143.503 C 230.184 144.302,229.738 144.818,230.050 144.648 C 230.595 144.352,232.993 142.016,232.729 142.038 C 232.659 142.044,231.899 142.703,231.042 143.503 M150.461 142.756 C 149.401 143.331,149.465 143.570,150.532 143.019 C 150.999 142.777,151.382 142.519,151.382 142.445 C 151.382 142.262,151.352 142.273,150.461 142.756 M192.345 143.967 C 192.654 144.332,193.163 144.762,193.477 144.923 C 194.079 145.231,193.991 145.136,192.631 144.007 C 191.813 143.327,191.803 143.326,192.345 143.967 M136.888 146.421 C 137.041 146.733,137.374 147.243,137.628 147.555 L 138.089 148.122 137.811 147.555 C 137.658 147.243,137.325 146.733,137.071 146.421 L 136.609 145.854 136.888 146.421 M142.310 146.704 C 141.921 146.927,141.729 147.110,141.885 147.110 C 142.041 147.110,142.488 146.927,142.877 146.704 C 143.267 146.482,143.459 146.299,143.303 146.299 C 143.147 146.299,142.700 146.482,142.310 146.704 M200.213 146.766 C 200.641 146.831,201.343 146.831,201.772 146.766 C 202.201 146.701,201.850 146.648,200.992 146.648 C 200.135 146.648,199.784 146.701,200.213 146.766 M219.348 146.768 C 219.855 146.831,220.684 146.831,221.191 146.768 C 221.697 146.705,221.283 146.653,220.269 146.653 C 219.256 146.653,218.841 146.705,219.348 146.768 M209.993 147.056 C 210.967 147.111,212.562 147.111,213.536 147.056 C 214.511 147.001,213.714 146.955,211.765 146.955 C 209.816 146.955,209.018 147.001,209.993 147.056 M140.184 147.565 C 139.475 147.906,139.452 147.946,140.043 147.801 C 140.846 147.605,141.749 147.145,141.318 147.151 C 141.162 147.153,140.652 147.340,140.184 147.565 M34.073 198.115 C 33.713 198.216,35.283 198.299,37.562 198.299 C 39.841 198.299,41.411 198.216,41.051 198.115 C 40.691 198.013,39.121 197.930,37.562 197.930 C 36.003 197.930,34.433 198.013,34.073 198.115 M88.786 198.115 C 88.426 198.216,89.996 198.299,92.275 198.299 C 94.554 198.299,96.124 198.216,95.764 198.115 C 95.404 198.013,93.834 197.930,92.275 197.930 C 90.716 197.930,89.146 198.013,88.786 198.115 M116.513 198.133 C 116.123 198.245,117.271 198.289,119.064 198.230 C 123.354 198.091,123.930 197.941,120.198 197.935 C 118.561 197.932,116.903 198.022,116.513 198.133 M163.029 197.977 C 163.094 198.034,164.614 198.143,166.407 198.220 C 168.402 198.305,169.227 198.272,168.533 198.133 C 167.411 197.909,162.801 197.778,163.029 197.977 M283.487 198.133 C 283.097 198.245,284.245 198.289,286.038 198.230 C 290.328 198.091,290.904 197.941,287.172 197.935 C 285.535 197.932,283.877 198.022,283.487 198.133 M312.403 198.032 C 313.304 198.228,319.310 198.325,318.639 198.133 C 318.249 198.022,316.591 197.932,314.954 197.935 C 313.317 197.938,312.169 197.981,312.403 198.032 M356.782 198.120 C 356.322 198.218,357.892 198.299,360.269 198.299 C 362.647 198.299,364.299 198.216,363.941 198.115 C 363.110 197.880,357.886 197.884,356.782 198.120 M161.375 198.353 C 161.648 198.424,162.094 198.424,162.367 198.353 C 162.640 198.281,162.417 198.223,161.871 198.223 C 161.325 198.223,161.102 198.281,161.375 198.353 M30.628 199.032 C 29.776 199.334,28.964 199.697,28.822 199.838 C 28.681 199.980,29.377 199.805,30.370 199.449 C 33.246 198.419,33.091 198.486,32.601 198.484 C 32.367 198.483,31.479 198.729,30.628 199.032 M43.684 199.137 C 44.713 199.497,45.861 199.950,46.236 200.143 C 46.658 200.361,46.805 200.375,46.621 200.178 C 46.242 199.773,42.838 198.434,42.257 198.462 C 42.013 198.474,42.656 198.777,43.684 199.137 M85.500 199.142 C 84.580 199.520,83.687 199.978,83.516 200.160 C 83.344 200.341,83.643 200.268,84.181 199.996 C 84.719 199.724,85.803 199.273,86.591 198.992 C 87.378 198.712,87.831 198.476,87.597 198.468 C 87.364 198.461,86.420 198.764,85.500 199.142 M98.458 199.134 C 99.520 199.509,100.732 200.039,101.151 200.312 C 101.773 200.716,101.846 200.725,101.545 200.357 C 101.131 199.852,97.782 198.438,97.020 198.447 C 96.749 198.450,97.396 198.759,98.458 199.134 M112.978 199.167 C 112.047 199.554,111.154 200.011,110.993 200.182 C 110.833 200.354,111.021 200.329,111.410 200.126 C 111.800 199.924,112.948 199.464,113.962 199.105 C 114.975 198.746,115.549 198.455,115.237 198.459 C 114.926 198.462,113.909 198.781,112.978 199.167 M126.213 198.989 C 127.104 199.274,128.316 199.781,128.906 200.115 C 129.866 200.658,129.910 200.663,129.329 200.164 C 128.609 199.546,125.837 198.432,125.078 198.456 C 124.811 198.464,125.322 198.704,126.213 198.989 M158.611 198.639 C 157.170 198.976,155.034 199.636,155.117 199.719 C 155.168 199.769,156.421 199.511,157.902 199.144 C 159.383 198.778,160.276 198.485,159.887 198.492 C 159.497 198.500,158.923 198.566,158.611 198.639 M170.517 198.648 C 170.829 198.725,171.835 199.022,172.754 199.306 C 173.672 199.590,174.309 199.715,174.171 199.583 C 173.847 199.274,170.977 198.431,170.395 198.474 C 170.108 198.495,170.152 198.557,170.517 198.648 M280.255 199.142 C 279.336 199.520,278.443 199.979,278.271 200.162 C 278.038 200.411,278.125 200.409,278.616 200.156 C 278.977 199.970,280.061 199.514,281.025 199.143 C 281.989 198.772,282.587 198.465,282.353 198.461 C 282.119 198.457,281.175 198.764,280.255 199.142 M293.125 199.105 C 294.139 199.464,295.271 199.921,295.640 200.120 C 296.010 200.319,296.234 200.356,296.139 200.201 C 295.917 199.842,292.427 198.439,291.776 198.447 C 291.505 198.450,292.112 198.746,293.125 199.105 M308.575 198.887 C 307.147 199.398,306.133 199.920,306.280 200.067 C 306.343 200.130,306.630 200.042,306.918 199.871 C 307.206 199.701,308.143 199.318,309.001 199.022 C 309.858 198.725,310.369 198.482,310.135 198.482 C 309.901 198.481,309.199 198.663,308.575 198.887 M321.168 199.049 C 322.169 199.366,323.317 199.820,323.719 200.059 L 324.451 200.493 323.772 199.931 C 323.098 199.373,320.514 198.426,319.748 198.457 C 319.528 198.466,320.167 198.732,321.168 199.049 M353.650 198.973 C 352.047 199.552,350.390 200.369,350.390 200.582 C 350.390 200.659,350.801 200.511,351.303 200.251 C 351.806 199.991,353.050 199.487,354.067 199.131 C 355.085 198.774,355.726 198.478,355.493 198.472 C 355.259 198.466,354.429 198.692,353.650 198.973 M366.919 199.133 C 367.980 199.517,369.320 200.105,369.896 200.440 C 370.919 201.035,370.927 201.035,370.234 200.456 C 369.494 199.839,367.140 198.851,365.781 198.588 C 365.345 198.504,365.858 198.749,366.919 199.133 M52.502 199.064 C 52.315 199.252,52.174 199.666,52.190 199.986 C 52.214 200.473,52.250 200.452,52.415 199.858 C 52.608 199.166,52.675 199.150,55.293 199.150 L 57.973 199.150 57.973 231.086 C 57.973 248.650,58.069 262.963,58.186 262.890 C 58.571 262.652,58.445 199.451,58.058 199.064 C 57.846 198.853,56.798 198.724,55.280 198.724 C 53.762 198.724,52.714 198.853,52.502 199.064 M71.894 199.173 C 71.629 199.864,71.707 200.056,72.028 199.504 C 72.271 199.088,72.742 199.008,74.946 199.008 L 77.575 199.008 77.891 200.071 L 78.207 201.134 78.050 200.142 C 77.820 198.697,77.883 198.724,74.854 198.724 C 72.574 198.724,72.035 198.806,71.894 199.173 M197.307 198.994 L 200.850 199.150 200.996 215.025 L 201.141 230.900 201.208 215.152 C 201.259 203.206,201.194 199.323,200.936 199.064 C 200.702 198.831,199.527 198.742,197.179 198.782 L 193.763 198.839 197.307 198.994 M224.104 199.070 C 224.037 199.270,223.919 205.556,223.843 213.040 C 223.767 220.524,223.639 227.158,223.559 227.782 L 223.414 228.916 223.709 227.782 C 223.884 227.111,224.064 220.999,224.149 212.819 L 224.292 198.990 227.596 199.070 L 230.900 199.150 230.900 221.191 C 230.900 233.313,230.997 243.232,231.114 243.232 C 231.232 243.232,231.296 233.249,231.256 221.049 L 231.184 198.866 227.705 198.786 C 225.074 198.726,224.197 198.795,224.104 199.070 M266.947 198.937 C 266.874 199.054,268.130 199.150,269.738 199.150 C 271.345 199.150,272.601 199.054,272.529 198.937 C 272.457 198.820,271.201 198.724,269.738 198.724 C 268.275 198.724,267.019 198.820,266.947 198.937 M266.896 221.403 C 266.896 233.487,266.931 238.430,266.974 232.388 C 267.016 226.347,267.016 216.460,266.974 210.418 C 266.931 204.376,266.896 209.320,266.896 221.403 M103.298 202.108 C 104.040 202.956,104.833 204.009,105.059 204.447 C 105.486 205.272,105.864 205.449,106.164 204.964 C 106.259 204.810,106.169 204.748,105.964 204.827 C 105.745 204.911,105.377 204.572,105.072 204.006 C 104.786 203.475,103.966 202.484,103.250 201.804 L 101.949 200.567 103.298 202.108 M131.165 201.862 C 131.818 202.553,132.677 203.692,133.075 204.394 C 133.473 205.096,133.801 205.536,133.802 205.373 C 133.809 204.792,131.947 202.178,130.971 201.398 C 130.051 200.663,130.065 200.697,131.165 201.862 M49.460 202.641 C 50.390 203.605,51.200 204.394,51.259 204.394 C 51.473 204.394,49.733 202.530,48.761 201.718 C 48.215 201.262,48.529 201.677,49.460 202.641 M81.207 201.779 C 80.733 202.204,80.099 202.870,79.798 203.260 C 79.498 203.650,79.918 203.336,80.732 202.562 C 82.073 201.287,82.352 200.977,82.140 201.000 C 82.101 201.004,81.681 201.355,81.207 201.779 M108.258 202.150 L 107.016 203.308 108.363 202.258 C 109.593 201.298,109.893 200.992,109.604 200.992 C 109.546 200.992,108.940 201.513,108.258 202.150 M150.776 201.576 L 150.106 202.160 150.957 201.662 C 152.076 201.006,152.093 200.992,151.744 200.992 C 151.580 200.992,151.144 201.255,150.776 201.576 M303.167 202.064 C 302.531 202.644,301.832 203.373,301.615 203.685 C 301.397 203.997,301.949 203.552,302.842 202.695 C 304.327 201.270,304.596 200.977,304.394 201.001 C 304.355 201.005,303.803 201.484,303.167 202.064 M372.777 202.791 C 373.786 203.829,374.651 204.678,374.699 204.678 C 374.995 204.678,373.377 202.885,372.266 201.981 C 371.135 201.062,371.210 201.180,372.777 202.791 M25.078 202.764 L 23.671 204.252 25.159 202.846 C 25.978 202.072,26.648 201.402,26.648 201.357 C 26.648 201.146,26.385 201.381,25.078 202.764 M275.527 202.339 C 274.207 203.758,273.450 204.678,273.600 204.678 C 273.667 204.678,274.396 203.912,275.219 202.977 C 276.874 201.097,277.081 200.666,275.527 202.339 M326.572 202.410 C 327.875 204.148,328.177 204.430,327.539 203.314 C 327.243 202.798,326.690 202.096,326.309 201.755 C 325.799 201.298,325.868 201.470,326.572 202.410 M347.263 203.189 L 345.429 205.103 347.342 203.268 C 348.395 202.259,349.256 201.398,349.256 201.355 C 349.256 201.146,348.967 201.412,347.263 203.189 M297.958 201.701 C 297.964 201.857,298.426 202.495,298.985 203.118 C 299.544 203.742,299.859 203.997,299.686 203.685 C 299.208 202.827,297.946 201.378,297.958 201.701 M178.356 203.260 C 178.748 203.806,179.342 204.890,179.675 205.670 C 180.007 206.449,180.283 206.931,180.288 206.741 C 180.305 206.122,178.854 203.323,178.239 202.788 C 177.743 202.356,177.762 202.436,178.356 203.260 M115.521 204.394 C 114.799 204.704,115.544 204.704,116.513 204.394 C 117.083 204.212,117.111 204.165,116.655 204.159 C 116.343 204.154,115.833 204.260,115.521 204.394 M167.541 204.394 C 168.510 204.704,169.255 204.704,168.533 204.394 C 168.221 204.260,167.711 204.154,167.399 204.159 C 166.943 204.165,166.971 204.212,167.541 204.394 M112.970 205.213 C 112.346 205.501,111.517 206.104,111.127 206.554 L 110.418 207.371 111.177 206.703 C 111.594 206.336,112.551 205.734,113.303 205.365 C 114.910 204.578,114.626 204.449,112.970 205.213 M123.884 205.275 C 124.429 205.603,125.184 206.145,125.560 206.479 C 125.935 206.814,126.146 206.919,126.027 206.714 C 125.742 206.221,123.601 204.677,123.203 204.679 C 123.032 204.679,123.338 204.948,123.884 205.275 M290.747 205.416 C 291.354 205.822,292.165 206.428,292.550 206.763 C 293.121 207.258,293.173 207.270,292.833 206.827 C 292.326 206.166,290.313 204.678,289.925 204.678 C 289.771 204.678,290.141 205.010,290.747 205.416 M318.639 205.274 C 319.185 205.602,320.009 206.207,320.471 206.620 C 320.933 207.033,321.124 207.126,320.896 206.827 C 320.372 206.140,318.372 204.677,317.959 204.679 C 317.787 204.679,318.094 204.947,318.639 205.274 M44.649 205.429 C 45.117 205.674,46.201 206.530,47.059 207.331 L 48.618 208.788 47.200 207.278 C 45.902 205.894,44.594 204.944,44.025 204.972 C 43.901 204.979,44.181 205.184,44.649 205.429 M95.565 205.032 C 95.633 205.071,96.372 205.741,97.207 206.520 C 98.206 207.453,98.560 207.677,98.243 207.176 C 97.768 206.424,96.053 204.961,95.648 204.961 C 95.534 204.961,95.496 204.993,95.565 205.032 M30.946 206.850 L 29.341 208.455 31.042 206.937 C 31.977 206.103,32.796 205.380,32.861 205.332 C 32.926 205.284,32.883 205.245,32.765 205.245 C 32.647 205.245,31.829 205.967,30.946 206.850 M155.124 206.137 C 153.986 206.618,153.101 207.058,153.158 207.115 C 153.254 207.211,157.333 205.590,157.595 205.352 C 157.924 205.052,156.983 205.352,155.124 206.137 M171.147 205.993 C 172.147 206.881,173.475 209.333,173.527 210.388 C 173.552 210.896,173.592 210.933,173.693 210.543 C 173.984 209.417,172.153 206.158,170.860 205.501 C 170.450 205.292,170.550 205.463,171.147 205.993 M278.498 206.048 C 277.889 206.489,277.201 207.095,276.967 207.394 C 276.733 207.693,276.991 207.555,277.540 207.087 C 278.090 206.619,278.855 206.020,279.241 205.755 C 279.627 205.491,279.867 205.268,279.773 205.259 C 279.680 205.251,279.106 205.606,278.498 206.048 M22.000 206.733 C 21.281 207.964,20.616 209.522,20.757 209.643 C 20.801 209.680,21.299 208.769,21.864 207.619 C 23.009 205.288,23.068 204.902,22.000 206.733 M82.803 206.808 C 81.455 208.069,80.167 210.391,79.818 212.190 C 79.727 212.658,79.891 212.401,80.183 211.620 C 81.130 209.082,81.883 207.878,83.265 206.694 C 84.011 206.055,84.520 205.531,84.396 205.530 C 84.272 205.529,83.555 206.104,82.803 206.808 M305.663 206.875 L 304.270 208.221 305.572 207.114 C 307.398 205.563,307.434 205.528,307.235 205.528 C 307.136 205.528,306.429 206.134,305.663 206.875 M352.566 206.988 L 351.099 208.448 352.516 207.228 C 354.525 205.498,354.494 205.528,354.252 205.528 C 354.132 205.528,353.373 206.185,352.566 206.988 M367.675 207.087 C 368.518 208.023,369.265 208.852,369.334 208.930 C 369.404 209.008,369.325 208.816,369.160 208.505 C 368.995 208.193,368.248 207.364,367.501 206.662 L 366.141 205.386 367.675 207.087 M151.665 206.293 C 151.665 206.673,152.445 207.678,152.610 207.512 C 152.687 207.434,152.506 207.069,152.208 206.701 C 151.910 206.333,151.665 206.149,151.665 206.293 M180.354 207.654 C 180.354 207.966,180.456 208.540,180.581 208.930 C 180.761 209.491,180.808 209.521,180.808 209.072 C 180.808 208.760,180.706 208.186,180.581 207.796 C 180.401 207.235,180.354 207.205,180.354 207.654 M329.257 207.796 C 329.834 210.615,330.002 215.896,329.924 228.818 C 329.876 236.716,329.933 243.119,330.050 243.046 C 330.782 242.593,330.159 209.436,329.385 207.700 C 329.132 207.131,329.123 207.137,329.257 207.796 M109.623 208.018 C 109.015 208.690,107.844 211.374,107.617 212.615 C 107.517 213.164,107.732 212.784,108.097 211.765 C 108.850 209.665,109.312 208.719,109.932 208.009 C 110.501 207.355,110.215 207.364,109.623 208.018 M376.650 208.221 C 376.753 208.533,377.139 209.745,377.508 210.914 C 378.040 212.600,378.141 212.776,377.997 211.765 C 377.896 211.063,377.510 209.851,377.138 209.072 C 376.766 208.292,376.546 207.909,376.650 208.221 M342.797 209.701 C 342.477 210.446,342.136 211.439,342.040 211.906 C 341.905 212.562,341.969 212.497,342.321 211.623 C 342.572 210.999,342.965 210.059,343.194 209.533 C 343.423 209.007,343.559 208.524,343.495 208.461 C 343.432 208.397,343.118 208.955,342.797 209.701 M28.742 209.364 C 28.483 209.759,28.323 210.133,28.386 210.196 C 28.450 210.259,28.716 209.936,28.979 209.479 C 29.564 208.459,29.390 208.375,28.742 209.364 M48.800 209.568 C 48.990 209.918,49.442 211.035,49.805 212.048 C 50.196 213.140,50.396 213.486,50.296 212.899 C 50.110 211.818,48.894 208.930,48.624 208.930 C 48.532 208.930,48.611 209.217,48.800 209.568 M369.544 209.639 C 370.262 211.673,370.801 214.072,370.801 215.231 L 370.801 216.584 359.764 216.584 L 348.727 216.584 348.596 215.804 C 348.472 215.064,348.467 215.067,348.506 215.875 L 348.547 216.726 359.745 216.726 L 370.943 216.726 371.032 215.472 C 371.133 214.067,370.422 210.860,369.771 209.780 C 369.498 209.327,369.416 209.276,369.544 209.639 M350.008 210.276 C 349.790 210.705,349.527 211.375,349.423 211.765 C 349.239 212.461,350.047 211.082,350.471 209.978 C 350.764 209.213,350.443 209.420,350.008 210.276 M274.850 211.454 C 273.784 214.662,273.581 217.917,273.634 230.900 L 273.686 243.373 273.860 229.908 C 274.033 216.586,274.203 214.091,275.117 211.502 C 275.358 210.818,275.503 210.207,275.439 210.143 C 275.376 210.079,275.110 210.669,274.850 211.454 M294.309 210.489 C 294.300 210.801,294.398 211.566,294.527 212.190 C 294.724 213.143,294.761 213.188,294.760 212.473 C 294.759 211.480,294.336 209.617,294.309 210.489 M322.546 226.280 C 322.595 236.113,322.734 242.642,322.902 242.919 C 323.277 243.538,323.120 211.564,322.743 210.718 C 322.560 210.307,322.493 215.583,322.546 226.280 M135.021 211.623 C 135.023 212.403,135.078 212.688,135.143 212.257 C 135.208 211.826,135.207 211.188,135.139 210.839 C 135.072 210.491,135.019 210.843,135.021 211.623 M99.703 212.048 C 99.792 212.906,99.911 213.661,99.968 213.725 C 100.166 213.953,100.012 211.900,99.778 211.198 C 99.625 210.740,99.599 211.042,99.703 212.048 M302.444 212.234 C 302.041 213.450,301.596 243.287,301.984 243.046 C 302.101 242.974,302.199 236.576,302.201 228.828 C 302.205 217.714,302.290 214.383,302.605 213.043 C 303.065 211.088,302.975 210.634,302.444 212.234 M127.917 227.127 C 127.882 235.810,127.948 242.974,128.065 243.046 C 128.258 243.166,128.255 231.632,128.058 217.009 C 128.016 213.891,127.953 218.444,127.917 227.127 M180.997 227.923 C 180.997 236.421,181.033 239.897,181.077 235.648 C 181.121 231.400,181.121 224.447,181.077 220.198 C 181.033 215.950,180.997 219.426,180.997 227.923 M348.851 213.344 C 348.747 213.760,348.716 214.154,348.783 214.221 C 348.850 214.288,348.990 214.003,349.094 213.587 C 349.198 213.172,349.229 212.777,349.162 212.710 C 349.095 212.643,348.955 212.929,348.851 213.344 M378.404 217.645 L 378.535 222.249 363.612 222.326 L 348.689 222.403 363.643 222.399 L 378.597 222.395 378.676 219.277 C 378.719 217.562,378.647 215.457,378.514 214.600 C 378.352 213.548,378.316 214.539,378.404 217.645 M294.958 228.349 C 294.958 236.612,294.995 239.952,295.039 235.770 C 295.083 231.589,295.083 224.827,295.039 220.745 C 294.994 216.664,294.958 220.085,294.958 228.349 M107.230 214.741 C 107.233 215.365,107.291 215.587,107.359 215.234 C 107.426 214.881,107.424 214.371,107.353 214.100 C 107.282 213.829,107.226 214.118,107.230 214.741 M50.526 214.883 C 50.526 215.429,50.585 215.652,50.656 215.379 C 50.727 215.106,50.727 214.660,50.656 214.387 C 50.585 214.114,50.526 214.337,50.526 214.883 M341.384 214.883 C 341.384 215.429,341.442 215.652,341.514 215.379 C 341.585 215.106,341.585 214.660,341.514 214.387 C 341.442 214.114,341.384 214.337,341.384 214.883 M78.995 216.791 C 78.895 217.846,78.839 224.259,78.869 231.042 L 78.925 243.373 79.081 229.199 C 79.166 221.403,79.223 214.990,79.206 214.948 C 79.189 214.906,79.094 215.735,78.995 216.791 M26.714 216.017 C 26.714 216.563,26.772 216.786,26.843 216.513 C 26.914 216.240,26.914 215.794,26.843 215.521 C 26.772 215.248,26.714 215.471,26.714 216.017 M19.111 221.262 C 19.111 224.068,19.153 225.178,19.205 223.728 C 19.257 222.278,19.256 219.981,19.204 218.625 C 19.153 217.269,19.110 218.455,19.111 221.262 M166.489 216.794 C 167.548 216.849,169.207 216.849,170.175 216.794 C 171.143 216.738,170.276 216.694,168.249 216.694 C 166.223 216.695,165.431 216.740,166.489 216.794 M159.819 217.351 C 160.172 217.419,160.682 217.417,160.953 217.346 C 161.224 217.275,160.936 217.219,160.312 217.222 C 159.688 217.226,159.466 217.284,159.819 217.351 M154.837 218.412 C 153.852 218.778,152.959 219.174,152.852 219.293 C 152.745 219.412,152.913 219.409,153.225 219.286 C 153.536 219.164,154.685 218.766,155.776 218.403 C 156.867 218.040,157.505 217.744,157.193 217.745 C 156.882 217.747,155.821 218.047,154.837 218.412 M51.135 221.403 C 51.135 223.196,51.181 223.930,51.237 223.033 C 51.293 222.137,51.293 220.670,51.237 219.773 C 51.181 218.877,51.135 219.610,51.135 221.403 M151.595 219.864 C 150.535 220.439,150.599 220.679,151.665 220.128 C 152.133 219.886,152.516 219.627,152.516 219.553 C 152.516 219.371,152.485 219.381,151.595 219.864 M148.518 222.183 C 147.568 223.199,146.409 224.688,147.029 224.096 C 147.704 223.451,149.744 221.120,149.633 221.120 C 149.567 221.120,149.065 221.598,148.518 222.183 M168.816 221.706 C 164.229 221.937,160.948 222.345,159.860 222.821 L 159.178 223.120 159.887 222.963 C 161.817 222.535,167.202 222.001,170.234 221.938 L 173.636 221.867 173.797 223.974 L 173.959 226.081 174.010 223.914 C 174.055 221.992,173.670 220.929,173.116 221.448 C 173.090 221.472,171.155 221.589,168.816 221.706 M348.199 223.671 C 348.199 224.373,348.254 224.660,348.322 224.309 C 348.390 223.958,348.390 223.384,348.322 223.033 C 348.254 222.682,348.199 222.970,348.199 223.671 M155.001 225.114 L 154.075 225.990 155.138 225.222 C 155.723 224.800,156.201 224.406,156.201 224.346 C 156.201 224.082,155.862 224.299,155.001 225.114 M26.563 225.939 C 26.652 226.797,26.771 227.551,26.828 227.616 C 27.027 227.843,26.873 225.791,26.638 225.089 C 26.486 224.631,26.459 224.933,26.563 225.939 M50.499 227.640 C 50.474 228.030,50.387 228.668,50.307 229.057 L 50.161 229.766 50.466 229.068 C 50.633 228.685,50.720 228.047,50.658 227.651 L 50.546 226.931 50.499 227.640 M348.729 227.356 C 348.729 227.590,348.838 228.037,348.972 228.349 C 349.126 228.706,349.216 228.758,349.216 228.490 C 349.216 228.257,349.106 227.810,348.972 227.498 C 348.819 227.141,348.729 227.088,348.729 227.356 M145.324 227.994 C 145.102 228.823,145.148 233.542,145.386 234.391 C 145.488 234.752,145.571 233.317,145.571 231.202 C 145.571 227.024,145.574 227.063,145.324 227.994 M222.849 230.078 C 222.686 230.669,222.604 231.203,222.666 231.265 C 222.728 231.327,222.913 230.895,223.076 230.305 C 223.239 229.714,223.321 229.180,223.259 229.118 C 223.197 229.055,223.012 229.487,222.849 230.078 M349.280 229.199 C 349.280 229.355,349.524 229.929,349.823 230.475 C 350.122 231.021,350.366 231.339,350.366 231.184 C 350.366 231.028,350.122 230.454,349.823 229.908 C 349.524 229.362,349.280 229.043,349.280 229.199 M341.895 229.960 C 341.883 230.531,343.329 233.945,343.507 233.766 C 343.576 233.698,343.475 233.348,343.283 232.990 C 343.091 232.631,342.703 231.695,342.420 230.910 C 342.137 230.125,341.901 229.697,341.895 229.960 M49.349 231.670 C 48.951 232.698,48.126 234.031,47.376 234.861 L 46.087 236.286 47.402 235.044 C 48.635 233.878,50.343 230.829,50.126 230.179 C 50.075 230.028,49.726 230.699,49.349 231.670 M193.986 231.184 C 193.988 231.963,194.043 232.248,194.108 231.818 C 194.174 231.387,194.172 230.749,194.105 230.400 C 194.037 230.051,193.984 230.404,193.986 231.184 M172.235 231.937 C 171.464 233.496,170.121 234.993,168.391 236.224 C 167.696 236.718,167.695 236.722,168.361 236.404 C 170.067 235.592,173.492 231.381,173.162 230.503 C 173.111 230.366,172.694 231.011,172.235 231.937 M20.865 233.026 C 21.146 234.093,22.256 236.201,22.957 236.998 L 23.579 237.704 22.973 236.789 C 22.640 236.287,21.987 235.075,21.523 234.096 C 21.058 233.118,20.762 232.636,20.865 233.026 M28.853 233.175 C 29.017 233.491,29.679 234.320,30.325 235.018 C 31.471 236.256,31.468 236.246,30.170 234.585 C 28.583 232.554,28.466 232.429,28.853 233.175 M220.761 234.199 C 220.174 234.957,219.751 235.578,219.821 235.578 C 220.026 235.578,222.061 233.021,221.939 232.916 C 221.878 232.863,221.348 233.441,220.761 234.199 M247.059 233.299 C 246.726 233.436,247.253 233.470,248.335 233.382 C 249.348 233.300,250.230 233.186,250.295 233.130 C 250.534 232.921,247.607 233.074,247.059 233.299 M351.807 233.710 C 352.514 234.497,354.642 236.285,354.642 236.090 C 354.642 236.033,353.845 235.297,352.870 234.453 C 351.896 233.609,351.417 233.275,351.807 233.710 M251.629 234.015 C 252.288 234.410,252.953 235.092,253.155 235.581 C 253.352 236.057,253.570 236.390,253.638 236.322 C 254.137 235.823,251.718 233.308,250.744 233.313 C 250.588 233.314,250.986 233.630,251.629 234.015 M245.559 234.037 C 243.802 235.268,243.148 239.711,244.371 242.109 C 245.135 243.606,245.331 243.546,244.642 242.027 C 243.479 239.467,244.010 235.687,245.737 234.232 C 246.605 233.501,246.496 233.381,245.559 234.037 M202.693 234.816 C 202.693 234.865,203.108 235.279,203.614 235.737 L 204.536 236.570 203.703 235.648 C 202.927 234.790,202.693 234.597,202.693 234.816 M376.530 238.022 L 376.471 241.175 375.124 241.769 C 373.584 242.448,373.879 242.606,375.456 241.947 C 376.780 241.394,376.793 241.352,376.683 237.826 L 376.590 234.869 376.530 238.022 M154.194 235.964 C 154.571 236.429,155.634 237.132,155.634 236.917 C 155.634 236.862,155.220 236.515,154.713 236.144 C 154.143 235.726,153.945 235.658,154.194 235.964 M345.819 237.518 C 346.294 238.118,346.908 238.788,347.182 239.007 C 347.456 239.226,347.122 238.735,346.440 237.916 C 345.008 236.200,344.534 235.896,345.819 237.518 M195.322 236.843 C 195.322 237.178,195.956 238.249,196.640 239.072 C 197.596 240.221,197.463 239.835,196.315 238.129 C 195.769 237.318,195.322 236.740,195.322 236.843 M253.816 238.696 C 253.816 239.865,253.866 240.344,253.927 239.759 C 253.988 239.174,253.988 238.218,253.927 237.633 C 253.866 237.048,253.816 237.527,253.816 238.696 M35.294 237.832 C 35.838 238.079,37.357 238.240,37.113 238.025 C 37.048 237.968,36.485 237.843,35.861 237.748 C 35.071 237.628,34.899 237.653,35.294 237.832 M40.539 237.845 C 39.577 238.048,39.573 238.055,40.397 238.063 C 40.865 238.068,41.566 237.970,41.956 237.845 C 42.886 237.548,41.953 237.548,40.539 237.845 M157.619 237.873 C 158.849 238.396,162.167 238.470,163.855 238.011 C 165.281 237.625,165.305 237.605,164.139 237.788 C 162.481 238.047,159.480 238.043,158.044 237.779 C 157.104 237.607,157.031 237.623,157.619 237.873 M207.512 237.832 C 208.221 238.072,209.980 238.223,209.757 238.024 C 209.692 237.966,209.001 237.844,208.221 237.754 C 207.265 237.644,207.034 237.669,207.512 237.832 M213.182 237.845 C 212.221 238.048,212.216 238.055,213.040 238.063 C 213.508 238.068,214.210 237.970,214.600 237.845 C 215.529 237.548,214.596 237.548,213.182 237.845 M360.638 237.905 C 361.363 238.030,363.021 238.023,364.323 237.890 C 366.675 237.648,366.666 237.647,363.005 237.662 C 360.206 237.673,359.637 237.732,360.638 237.905 M23.529 237.934 C 23.529 237.983,23.944 238.398,24.451 238.856 L 25.372 239.688 24.539 238.767 C 23.763 237.908,23.529 237.715,23.529 237.934 M171.691 239.699 C 170.622 240.705,168.963 241.918,168.006 242.394 C 167.048 242.871,166.584 243.177,166.974 243.075 C 168.478 242.681,174.793 237.847,173.777 237.867 C 173.700 237.869,172.761 238.693,171.691 239.699 M222.573 239.347 L 221.333 240.822 222.659 239.476 C 224.265 237.845,224.132 237.849,224.369 239.431 C 224.476 240.147,224.619 240.678,224.686 240.611 C 224.938 240.358,224.430 237.846,224.129 237.858 C 223.955 237.865,223.255 238.535,222.573 239.347 M37.920 238.329 C 38.272 238.397,38.783 238.395,39.054 238.324 C 39.325 238.253,39.036 238.197,38.412 238.200 C 37.789 238.204,37.567 238.262,37.920 238.329 M210.563 238.329 C 210.916 238.397,211.426 238.395,211.697 238.324 C 211.968 238.253,211.680 238.197,211.056 238.200 C 210.432 238.204,210.211 238.262,210.563 238.329 M48.932 239.980 C 48.013 240.828,46.642 241.801,45.886 242.143 C 45.130 242.484,44.561 242.813,44.620 242.872 C 44.925 243.177,47.537 241.561,49.104 240.099 C 50.084 239.185,50.822 238.438,50.744 238.438 C 50.666 238.438,49.851 239.132,48.932 239.980 M147.532 239.331 C 148.265 240.448,151.665 243.089,151.665 242.540 C 151.665 242.461,151.289 242.201,150.828 241.963 C 150.367 241.724,149.327 240.866,148.515 240.055 C 147.704 239.243,147.262 238.918,147.532 239.331 M174.814 239.972 C 174.909 240.595,175.033 241.159,175.091 241.224 C 175.305 241.467,175.145 239.949,174.898 239.405 C 174.719 239.010,174.694 239.181,174.814 239.972 M51.157 251.169 C 51.157 257.796,51.195 260.507,51.240 257.193 C 51.285 253.880,51.285 248.459,51.240 245.145 C 51.195 241.832,51.157 244.543,51.157 251.169 M26.506 240.817 C 27.673 241.897,29.463 242.953,30.109 242.942 C 30.310 242.939,29.926 242.687,29.256 242.383 C 28.586 242.079,27.438 241.366,26.705 240.799 L 25.372 239.767 26.506 240.817 M349.342 240.614 C 349.911 241.249,353.215 242.957,353.826 242.933 C 354.041 242.924,353.586 242.662,352.816 242.349 C 352.045 242.037,350.833 241.390,350.123 240.912 C 349.299 240.359,349.016 240.251,349.342 240.614 M198.711 241.090 C 198.930 241.353,199.500 241.767,199.979 242.011 C 201.060 242.560,200.887 242.358,199.433 241.371 C 198.818 240.953,198.493 240.827,198.711 241.090 M220.411 241.148 C 220.099 241.395,219.079 241.969,218.143 242.423 C 217.208 242.876,216.761 243.164,217.151 243.061 C 218.225 242.779,220.399 241.632,220.818 241.128 C 221.286 240.563,221.139 240.571,220.411 241.148 M224.871 241.814 C 224.871 242.360,224.929 242.583,225.001 242.310 C 225.072 242.038,225.072 241.591,225.001 241.318 C 224.929 241.045,224.871 241.269,224.871 241.814 M253.079 242.170 L 252.579 243.090 253.150 242.421 C 253.636 241.851,253.895 241.243,253.650 241.249 C 253.611 241.250,253.354 241.665,253.079 242.170 M72.256 243.313 C 72.379 243.435,73.872 243.498,75.573 243.453 L 78.668 243.371 75.350 243.230 C 73.525 243.153,72.132 243.190,72.256 243.313 M102.137 243.442 C 103.039 243.498,104.442 243.497,105.255 243.440 C 106.068 243.383,105.330 243.337,103.614 243.338 C 101.899 243.338,101.234 243.385,102.137 243.442 M130.202 243.442 C 131.104 243.498,132.507 243.497,133.320 243.440 C 134.133 243.383,133.395 243.337,131.680 243.338 C 129.965 243.338,129.299 243.385,130.202 243.442 M177.108 243.439 C 177.771 243.499,178.855 243.499,179.518 243.439 C 180.181 243.380,179.639 243.331,178.313 243.331 C 176.988 243.331,176.446 243.380,177.108 243.439 M226.869 243.440 C 227.614 243.499,228.762 243.498,229.420 243.439 C 230.078 243.379,229.468 243.332,228.065 243.332 C 226.662 243.333,226.124 243.382,226.869 243.440 M268.827 243.442 C 269.729 243.498,271.132 243.497,271.945 243.440 C 272.758 243.383,272.020 243.337,270.305 243.338 C 268.590 243.338,267.925 243.385,268.827 243.442 M296.892 243.442 C 297.794 243.498,299.197 243.497,300.010 243.440 C 300.823 243.383,300.085 243.337,298.370 243.338 C 296.655 243.338,295.990 243.385,296.892 243.442 M324.957 243.442 C 325.859 243.498,327.263 243.497,328.076 243.440 C 328.888 243.383,328.150 243.337,326.435 243.338 C 324.720 243.338,324.055 243.385,324.957 243.442 M355.776 243.515 C 356.745 243.826,357.491 243.826,356.768 243.515 C 356.456 243.381,355.946 243.275,355.634 243.280 C 355.179 243.287,355.206 243.333,355.776 243.515 M365.485 243.994 C 365.758 244.065,366.205 244.065,366.478 243.994 C 366.751 243.923,366.527 243.864,365.982 243.864 C 365.436 243.864,365.213 243.923,365.485 243.994 M36.499 244.287 C 37.006 244.350,37.835 244.350,38.342 244.287 C 38.848 244.224,38.434 244.173,37.420 244.173 C 36.407 244.173,35.992 244.224,36.499 244.287 M158.675 244.287 C 159.179 244.349,160.072 244.350,160.660 244.289 C 161.248 244.228,160.836 244.176,159.745 244.175 C 158.653 244.174,158.172 244.224,158.675 244.287 M209.142 244.287 C 209.649 244.350,210.478 244.350,210.985 244.287 C 211.492 244.224,211.077 244.173,210.064 244.173 C 209.050 244.173,208.636 244.224,209.142 244.287 M361.382 244.290 C 362.049 244.350,363.070 244.349,363.650 244.288 C 364.231 244.227,363.685 244.178,362.438 244.179 C 361.191 244.180,360.716 244.230,361.382 244.290 " stroke="none" fill="#ababab" fill-rule="evenodd"></path><path id="path2" d="M0.000 141.743 L 0.000 283.487 200.000 283.487 L 400.000 283.487 400.000 141.743 L 400.000 0.000 200.000 0.000 L 0.000 0.000 0.000 141.743 M253.437 94.401 L 253.437 161.304 186.534 161.304 L 119.631 161.304 119.631 94.401 L 119.631 27.498 186.534 27.498 L 253.437 27.498 253.437 94.401 M179.598 46.704 C 179.717 47.133,179.867 56.186,179.931 66.823 L 180.046 86.161 179.288 86.352 C 178.234 86.616,140.955 86.229,138.342 85.926 C 135.664 85.616,135.775 85.414,135.861 90.432 L 135.932 94.543 137.491 94.479 C 144.046 94.211,166.503 94.101,166.738 94.336 C 167.062 94.660,166.368 102.900,165.658 107.158 C 162.928 123.524,153.070 133.952,134.585 140.027 C 132.334 140.767,132.343 140.742,133.824 142.182 C 134.676 143.011,137.699 147.140,138.237 148.210 C 138.261 148.258,139.921 147.644,141.926 146.845 C 163.941 138.073,173.978 123.377,175.420 97.803 L 175.620 94.259 183.203 94.184 C 189.175 94.124,190.785 94.185,190.781 94.467 C 190.629 103.717,191.043 140.985,191.305 141.782 C 192.695 145.991,195.588 146.710,211.056 146.691 C 225.994 146.672,228.630 146.185,231.735 142.865 C 234.328 140.093,236.344 132.955,237.049 124.048 L 237.137 122.936 234.553 122.038 C 233.133 121.545,231.362 120.801,230.620 120.386 C 229.877 119.971,229.180 119.631,229.070 119.631 C 228.961 119.631,228.715 121.569,228.523 123.936 C 227.693 134.212,226.678 136.899,223.224 137.965 C 220.698 138.745,202.193 138.752,200.767 137.974 C 199.263 137.152,199.283 137.467,199.360 115.143 L 199.433 94.259 214.316 94.259 C 222.502 94.259,230.634 94.357,232.388 94.477 L 235.578 94.695 235.578 90.123 L 235.578 85.552 234.844 85.736 C 232.399 86.349,190.047 86.795,189.135 86.216 C 188.736 85.964,188.832 50.210,189.240 47.271 L 189.426 45.925 184.404 45.925 L 179.381 45.925 179.598 46.704 M216.912 53.930 C 213.164 61.917,208.595 68.968,202.958 75.464 C 200.189 78.655,200.045 78.107,204.323 80.652 L 207.938 82.803 208.886 81.728 C 214.303 75.584,218.779 69.038,223.964 59.674 C 226.752 54.640,226.937 55.358,222.250 53.010 L 218.277 51.020 216.912 53.930 M146.215 53.505 C 143.047 55.173,142.650 55.461,142.955 55.869 C 143.146 56.124,144.591 57.927,146.165 59.874 C 151.072 65.946,154.378 71.050,158.042 78.214 C 158.927 79.945,159.784 81.361,159.945 81.361 C 160.266 81.361,167.183 77.175,167.374 76.865 C 167.891 76.029,158.524 61.849,152.232 53.942 C 150.016 51.156,150.598 51.199,146.215 53.505 M41.673 198.275 C 45.606 199.236,48.233 200.792,50.633 203.582 L 51.514 204.606 51.860 202.161 C 52.050 200.817,52.305 199.525,52.427 199.291 C 52.738 198.690,57.596 198.525,58.073 199.099 C 58.318 199.394,58.382 207.534,58.329 231.214 L 58.257 262.934 54.628 263.014 L 51.000 263.093 51.085 250.611 C 51.131 243.746,51.137 238.129,51.098 238.129 C 51.058 238.129,50.565 238.639,50.002 239.263 C 45.779 243.937,38.380 245.453,30.842 243.188 C 15.862 238.688,14.507 207.074,28.980 199.770 C 32.370 198.060,38.052 197.390,41.673 198.275 M96.522 198.308 C 100.292 199.183,103.682 201.426,105.039 203.944 C 105.729 205.227,105.700 205.233,106.951 203.557 C 111.675 197.230,124.056 195.884,130.481 201.000 C 132.858 202.893,133.937 204.891,134.791 208.985 C 135.451 212.151,135.437 243.089,134.775 243.343 C 134.025 243.631,128.986 243.535,128.401 243.222 C 127.869 242.937,127.853 242.460,127.853 227.230 C 127.853 209.937,127.805 209.416,126.027 207.085 C 122.403 202.333,111.988 203.637,109.151 209.197 C 107.310 212.805,107.336 212.546,107.223 228.485 C 107.147 239.320,107.034 243.135,106.785 243.293 C 106.384 243.548,101.161 243.590,100.519 243.343 C 100.119 243.189,100.071 241.649,100.071 228.869 C 100.071 210.513,99.877 209.035,97.121 206.429 C 95.307 204.713,94.018 204.278,90.716 204.265 C 85.042 204.243,81.920 206.559,80.032 212.190 L 79.272 214.458 79.156 228.846 L 79.040 243.234 78.429 243.387 C 78.092 243.471,76.541 243.502,74.982 243.456 L 72.147 243.373 72.006 221.403 C 71.928 209.320,71.911 199.269,71.969 199.069 C 72.047 198.797,72.796 198.725,74.945 198.786 L 77.817 198.866 78.355 201.674 L 78.894 204.482 79.480 203.659 C 82.685 199.155,90.116 196.822,96.522 198.308 M169.511 198.296 C 175.800 199.403,178.900 201.959,180.518 207.371 C 181.125 209.403,181.409 242.892,180.821 243.264 C 180.333 243.574,176.305 243.582,175.820 243.274 C 175.618 243.146,175.211 241.858,174.914 240.412 C 174.249 237.163,174.360 237.248,172.882 238.863 C 171.115 240.792,168.567 242.590,166.876 243.100 C 154.512 246.827,145.135 241.632,145.148 231.061 C 145.161 221.349,153.042 216.584,169.095 216.584 C 174.066 216.584,174.063 216.585,174.051 214.493 C 173.993 204.409,167.034 201.487,154.979 206.488 C 152.000 207.723,152.266 207.839,151.092 204.802 C 149.954 201.858,149.998 201.740,152.680 200.635 C 158.715 198.150,164.283 197.376,169.511 198.296 M291.245 198.301 C 295.387 199.261,299.302 201.973,300.079 204.419 C 300.335 205.228,300.690 205.084,301.515 203.838 C 303.784 200.409,309.561 197.869,315.070 197.878 C 324.059 197.893,328.980 202.229,329.958 210.995 C 330.560 216.395,330.359 242.876,329.714 243.222 C 329.028 243.589,323.751 243.602,323.175 243.238 C 322.808 243.006,322.730 240.736,322.608 226.587 L 322.466 210.206 321.616 208.505 C 318.417 202.108,306.720 202.910,303.702 209.733 C 302.263 212.987,302.206 213.719,302.201 228.835 C 302.197 242.476,302.179 242.938,301.649 243.222 C 301.063 243.535,296.025 243.631,295.275 243.343 C 294.874 243.189,294.826 241.621,294.826 228.554 C 294.826 210.103,294.585 208.396,291.650 206.076 C 287.450 202.756,279.441 203.931,276.556 208.290 C 274.305 211.691,273.848 215.511,273.848 230.919 C 273.848 241.830,273.799 243.190,273.400 243.343 C 272.740 243.596,267.529 243.544,267.114 243.280 C 266.832 243.102,266.773 238.448,266.830 220.960 L 266.903 198.866 269.738 198.866 L 272.573 198.866 273.119 201.581 L 273.666 204.296 275.387 202.550 C 279.350 198.529,285.326 196.928,291.245 198.301 M365.273 198.451 C 374.088 200.658,378.985 208.264,378.682 219.277 L 378.597 222.395 363.460 222.469 L 348.323 222.542 348.504 224.595 C 349.524 236.148,359.960 240.848,373.504 235.852 C 374.434 235.509,375.546 235.165,375.974 235.087 L 376.754 234.946 376.754 238.062 C 376.754 241.593,376.823 241.472,374.344 242.336 C 367.807 244.616,359.666 244.852,353.792 242.932 C 347.301 240.811,342.586 234.847,341.197 227.002 C 340.895 225.297,340.965 217.183,341.299 215.121 C 343.281 202.884,353.792 195.575,365.273 198.451 M200.936 199.064 C 201.192 199.321,201.276 203.296,201.276 215.213 C 201.276 230.627,201.291 231.061,201.877 232.627 C 204.999 240.972,219.909 239.543,222.717 230.629 C 223.631 227.725,223.722 226.368,223.907 212.757 L 224.096 198.866 227.640 198.866 L 231.184 198.866 231.256 221.015 L 231.329 243.165 230.689 243.336 C 227.902 244.083,224.805 243.358,224.805 241.957 C 224.805 241.429,224.251 238.476,224.102 238.209 C 224.083 238.175,223.263 238.914,222.278 239.851 C 214.870 246.900,199.069 245.269,195.430 237.078 C 193.969 233.792,193.584 224.219,193.901 199.079 C 193.907 198.589,200.447 198.576,200.936 199.064 M35.436 204.430 C 28.497 206.308,25.079 215.306,26.889 226.931 C 28.305 236.026,34.962 239.966,44.020 237.073 C 50.187 235.104,53.157 222.020,49.736 211.894 C 47.735 205.972,41.590 202.765,35.436 204.430 M357.193 204.515 C 352.739 205.752,348.707 211.038,348.692 215.663 L 348.689 216.584 359.783 216.584 L 370.877 216.584 370.730 214.670 C 370.138 206.981,364.243 202.559,357.193 204.515 M170.517 221.882 C 157.209 222.258,152.385 224.907,152.863 231.576 C 153.486 240.247,167.973 240.454,172.285 231.853 C 173.668 229.095,174.428 221.965,173.352 221.842 C 173.196 221.824,171.921 221.842,170.517 221.882 M251.464 233.664 C 254.776 235.334,255.019 241.280,251.874 243.679 C 249.633 245.389,245.464 244.436,244.274 241.942 C 242.330 237.865,244.841 233.026,248.901 233.026 C 249.683 233.026,250.702 233.280,251.464 233.664 " stroke="none" fill="#ffffff" fill-rule="evenodd"></path><path id="path3" d="M119.763 27.853 C 119.688 28.047,119.661 58.122,119.701 94.685 L 119.773 161.162 186.605 161.234 L 253.437 161.305 253.437 94.402 L 253.437 27.498 186.667 27.498 C 133.512 27.498,119.870 27.570,119.763 27.853 M189.422 46.775 C 189.373 47.321,189.268 56.422,189.190 66.999 L 189.047 86.231 210.682 86.068 C 222.582 85.978,233.118 85.828,234.096 85.734 L 235.875 85.562 235.797 90.194 L 235.719 94.826 234.869 94.734 C 234.401 94.684,226.269 94.578,216.797 94.500 L 199.575 94.359 199.575 115.513 L 199.575 136.666 200.245 137.337 C 201.210 138.301,202.662 138.407,213.186 138.275 C 225.161 138.125,225.546 137.999,226.792 133.831 C 227.514 131.418,228.154 127.042,228.390 122.898 C 228.616 118.949,228.489 119.056,231.294 120.466 C 232.537 121.091,234.342 121.822,235.305 122.089 C 237.488 122.696,237.445 122.554,236.862 127.225 C 235.504 138.128,233.458 142.917,229.248 145.051 C 223.972 147.724,199.380 147.863,194.135 145.249 C 190.682 143.528,190.790 144.426,190.788 117.434 L 190.787 94.401 183.316 94.401 L 175.845 94.401 175.657 97.449 C 174.357 118.516,167.905 131.541,154.217 140.737 C 150.826 143.015,138.540 148.944,138.188 148.471 C 138.161 148.435,137.556 147.512,136.843 146.421 C 136.130 145.330,134.834 143.615,133.964 142.611 C 132.201 140.577,132.198 140.591,134.373 139.900 C 155.891 133.061,165.093 120.924,166.577 97.424 L 166.771 94.352 152.202 94.493 C 144.189 94.570,137.218 94.723,136.712 94.833 L 135.790 95.032 135.790 90.304 L 135.790 85.576 139.546 85.807 C 141.612 85.934,151.531 86.038,161.588 86.038 L 179.872 86.038 179.853 68.037 C 179.842 57.689,179.713 49.160,179.549 47.977 C 179.193 45.396,178.711 45.616,184.533 45.706 L 189.511 45.783 189.422 46.775 M222.331 52.877 C 226.931 55.155,226.706 54.904,225.780 56.734 C 221.639 64.914,216.561 72.703,210.695 79.872 C 207.867 83.329,208.353 83.263,204.118 80.764 C 199.637 78.119,199.689 78.956,203.710 74.227 C 208.614 68.460,211.779 63.618,215.668 55.927 C 217.029 53.236,218.245 51.032,218.370 51.031 C 218.495 51.029,220.277 51.860,222.331 52.877 M151.584 52.941 C 156.764 59.007,161.469 65.809,166.068 73.882 C 167.940 77.167,168.128 76.693,163.893 79.353 C 159.394 82.178,160.003 82.307,157.755 78.059 C 153.675 70.347,150.255 65.116,145.462 59.258 C 143.744 57.158,142.379 55.401,142.427 55.352 C 142.615 55.165,149.833 51.322,150.007 51.317 C 150.109 51.314,150.818 52.045,151.584 52.941 M72.140 221.120 C 72.140 233.047,72.175 237.927,72.218 231.963 C 72.261 225.999,72.261 216.240,72.218 210.276 C 72.175 204.313,72.140 209.192,72.140 221.120 M37.779 204.030 C 38.209 204.096,38.847 204.094,39.196 204.027 C 39.545 203.959,39.192 203.906,38.412 203.908 C 37.633 203.910,37.348 203.965,37.779 204.030 M164.638 204.028 C 164.991 204.095,165.501 204.093,165.772 204.022 C 166.043 203.951,165.755 203.895,165.131 203.899 C 164.507 203.902,164.286 203.960,164.638 204.028 M359.674 204.027 C 360.025 204.095,360.599 204.095,360.950 204.027 C 361.300 203.960,361.013 203.904,360.312 203.904 C 359.610 203.904,359.323 203.960,359.674 204.027 M367.399 206.520 C 367.928 207.066,368.424 207.512,368.502 207.512 C 368.580 207.512,368.211 207.066,367.682 206.520 C 367.154 205.974,366.657 205.528,366.579 205.528 C 366.501 205.528,366.870 205.974,367.399 206.520 M46.917 206.945 C 47.526 207.569,48.088 208.079,48.166 208.079 C 48.244 208.079,47.810 207.569,47.201 206.945 C 46.592 206.322,46.030 205.811,45.952 205.811 C 45.874 205.811,46.308 206.322,46.917 206.945 M110.261 207.158 L 109.284 208.221 110.347 207.244 C 111.337 206.335,111.541 206.095,111.324 206.095 C 111.277 206.095,110.798 206.573,110.261 207.158 M180.669 211.056 C 180.671 211.991,180.724 212.340,180.787 211.831 C 180.850 211.321,180.848 210.556,180.784 210.130 C 180.719 209.704,180.667 210.120,180.669 211.056 M329.827 227.782 C 329.827 236.201,329.864 239.605,329.908 235.345 C 329.952 231.085,329.952 224.196,329.908 220.037 C 329.863 215.877,329.827 219.362,329.827 227.782 M128.268 227.923 C 128.268 236.265,128.304 239.678,128.348 235.507 C 128.393 231.336,128.393 224.511,128.348 220.340 C 128.304 216.169,128.268 219.582,128.268 227.923 M135.072 227.782 C 135.072 236.045,135.108 239.385,135.152 235.203 C 135.196 231.022,135.196 224.260,135.152 220.178 C 135.108 216.097,135.072 219.518,135.072 227.782 M174.152 214.600 C 174.152 215.613,174.203 216.028,174.266 215.521 C 174.329 215.014,174.329 214.185,174.266 213.678 C 174.203 213.172,174.152 213.586,174.152 214.600 M100.203 228.207 C 100.203 236.393,100.239 239.741,100.283 235.648 C 100.328 231.556,100.328 224.858,100.283 220.765 C 100.239 216.673,100.203 220.021,100.203 228.207 M107.006 229.341 C 107.006 236.747,107.042 239.777,107.087 236.074 C 107.132 232.371,107.132 226.311,107.087 222.608 C 107.042 218.905,107.006 221.935,107.006 229.341 M301.761 229.766 C 301.761 237.094,301.798 240.133,301.842 236.518 C 301.887 232.904,301.887 226.908,301.842 223.195 C 301.798 219.481,301.761 222.438,301.761 229.766 M26.191 221.262 C 26.191 223.288,26.237 224.080,26.291 223.022 C 26.346 221.963,26.346 220.304,26.290 219.336 C 26.235 218.368,26.190 219.235,26.191 221.262 M164.777 221.882 C 165.050 221.953,165.496 221.953,165.769 221.882 C 166.042 221.811,165.819 221.753,165.273 221.753 C 164.727 221.753,164.504 221.811,164.777 221.882 M224.036 224.947 C 224.038 225.726,224.093 226.012,224.158 225.581 C 224.223 225.150,224.221 224.512,224.154 224.163 C 224.087 223.815,224.034 224.167,224.036 224.947 M173.843 226.790 C 173.843 227.335,173.902 227.558,173.973 227.286 C 174.044 227.013,174.044 226.566,173.973 226.293 C 173.902 226.021,173.843 226.244,173.843 226.790 M346.137 237.651 C 346.137 237.700,346.552 238.114,347.059 238.572 L 347.980 239.405 347.148 238.483 C 346.371 237.625,346.137 237.432,346.137 237.651 " stroke="none" fill="#f23a31" fill-rule="evenodd"></path></g></svg>
